%FSTAX44Y44*%
%MOMM*%
%SFA1B1*%

%IPPOS*%
%ADD19C,0.799998*%
%ADD46C,3.499993*%
%ADD47C,0.499999*%
%ADD50C,0.599999*%
%LNpcb1-1*%
%LPD*%
G36*
X00518907Y00572071D02*
X00525883Y00570684D01*
X00532618Y00568397*
X00538998Y00565251*
X00544912Y005613*
X0055026Y0055661*
X00554949Y00551262*
X00558901Y00545348*
X00562047Y00538968*
X00564333Y00532233*
X00565721Y00525257*
X00566174Y00518355*
X00566092Y0051816*
Y0038103*
X00566174Y00380834*
X00565721Y00373932*
X00564333Y00366956*
X00562047Y00360221*
X00558901Y00353842*
X00554949Y00347927*
X0055026Y0034258*
X00544912Y0033789*
X00538998Y00333938*
X00532618Y00330792*
X00525883Y00328506*
X00518907Y00327118*
X00512005Y00326666*
X0051181Y00326747*
X00473668*
X0047366Y00326768*
X00472687Y00327171*
X00471715Y00326768*
X00471707Y00326747*
X0037468*
X00374484Y00326666*
X00367583Y00327118*
X00360606Y00328506*
X00353871Y00330792*
X00347491Y00333938*
X00341577Y0033789*
X0033623Y0034258*
X0033154Y00347927*
X00327588Y00353842*
X00324442Y00360221*
X00322156Y00366956*
X00320768Y00373932*
X00320316Y00380834*
X00320397Y0038103*
Y0051816*
X00320316Y00518355*
X00320768Y00525257*
X00322156Y00532233*
X00324442Y00538968*
X00327588Y00545348*
X0033154Y00551262*
X0033623Y0055661*
X00341577Y005613*
X00347491Y00565251*
X00353871Y00568397*
X00360606Y00570684*
X00367583Y00572071*
X00374484Y00572523*
X0037468Y00572442*
X0051181*
X00512005Y00572523*
X00518907Y00572071*
G37*
%LNpcb1-2*%
%LPC*%
G36*
X00449265Y00545516D02*
X00447785D01*
X00446418Y0054495*
X00445525Y00544057*
X00444632Y0054495*
X00443265Y00545516*
X00441785*
X00440418Y0054495*
X00439371Y00543903*
X00438805Y00542536*
Y00541056*
X00439371Y00539689*
X00440418Y00538642*
X00441785Y00538076*
X00443265*
X00444632Y00538642*
X00445525Y00539535*
X00446418Y00538642*
X00447785Y00538076*
X00449265*
X00450632Y00538642*
X00451678Y00539689*
X00452245Y00541056*
Y00542536*
X00451678Y00543903*
X00450632Y0054495*
X00449265Y00545516*
G37*
G36*
X00467265D02*
X00465785D01*
X00464418Y0054495*
X00463371Y00543903*
X00462805Y00542536*
Y00541056*
X00463371Y00539689*
X00464418Y00538642*
X00465785Y00538076*
X00467265*
X00468632Y00538642*
X00469678Y00539689*
X00470245Y00541056*
Y00542536*
X00469678Y00543903*
X00468632Y0054495*
X00467265Y00545516*
G37*
G36*
X00413265D02*
X00411785D01*
X00410418Y0054495*
X00409371Y00543903*
X00408805Y00542536*
Y00541056*
X00409371Y00539689*
X00410418Y00538642*
X00411785Y00538076*
X00413265*
X00414632Y00538642*
X00415679Y00539689*
X00416245Y00541056*
Y00542536*
X00415679Y00543903*
X00414632Y0054495*
X00413265Y00545516*
G37*
G36*
Y00533516D02*
X00411785D01*
X00410418Y0053295*
X00409371Y00531903*
X00408805Y00530536*
Y00529056*
X00409371Y00527689*
X00410418Y00526642*
X00411785Y00526076*
X00413265*
X00414632Y00526642*
X00415679Y00527689*
X00416245Y00529056*
Y00530536*
X00415679Y00531903*
X00414632Y0053295*
X00413265Y00533516*
G37*
G36*
X00485265Y00521516D02*
X00483785D01*
X00482418Y0052095*
X00481525Y00520057*
X00480632Y0052095*
X00479265Y00521516*
X00477785*
X00476418Y0052095*
X00475525Y00520057*
X00474632Y0052095*
X00473265Y00521516*
X00471785*
X00470418Y0052095*
X00469525Y00520057*
X00468632Y0052095*
X00467265Y00521516*
X00465785*
X00464418Y0052095*
X00463525Y00520057*
X00462632Y0052095*
X00461265Y00521516*
X00459785*
X00458418Y0052095*
X00457525Y00520057*
X00456632Y0052095*
X00455265Y00521516*
X00453785*
X00452418Y0052095*
X00451525Y00520057*
X00450632Y0052095*
X00449265Y00521516*
X00447785*
X00446418Y0052095*
X00445525Y00520057*
X00444632Y0052095*
X00443265Y00521516*
X00441785*
X00440418Y0052095*
X00439371Y00519903*
X00438805Y00518536*
Y00517056*
X00439371Y00515689*
X00440418Y00514643*
X00441785Y00514076*
X00443265*
X00444632Y00514643*
X00445525Y00515535*
X00446418Y00514643*
X00447785Y00514076*
X00449265*
X00450632Y00514643*
X00451525Y00515535*
X00452418Y00514643*
X00453785Y00514076*
X00455265*
X00456632Y00514643*
X00457525Y00515535*
X00458418Y00514643*
X00459785Y00514076*
X00461265*
X00462632Y00514643*
X00463525Y00515535*
X00464418Y00514643*
X00465785Y00514076*
X00467265*
X00468632Y00514643*
X00469525Y00515535*
X00470418Y00514643*
X00471361Y00514252*
X00471785Y00514076*
X00472024Y00512848*
X00471269Y00511835*
X00469726*
X00468175Y00511192*
X00466988Y00510005*
X00466345Y00508454*
Y00506775*
X00466988Y00505224*
X00468175Y00504037*
X00469726Y00503395*
X00471405*
X00472956Y00504037*
X00474143Y00505224*
X00474785Y00506775*
Y00508108*
X00474963Y00508227*
X00476443*
X0047781Y00508793*
X00478539Y00509521*
X00479418Y00508643*
X00480785Y00508076*
X00482265*
X00483632Y00508643*
X00484525Y00509535*
X00485418Y00508643*
X00486785Y00508076*
X00488265*
X00489632Y00508643*
X00490678Y00509689*
X00491245Y00511056*
Y00512536*
X00490678Y00513903*
X00489632Y0051495*
X00488265Y00515516*
X00488133Y00516786*
X00488245Y00517056*
Y00518536*
X00487678Y00519903*
X00486632Y0052095*
X00485265Y00521516*
G37*
G36*
X00455265Y00509516D02*
X00453785D01*
X00452418Y0050895*
X00451371Y00507903*
X00450805Y00506536*
Y00505056*
X00451371Y00503689*
X00452418Y00502643*
X00453785Y00502076*
X00455265*
X00456632Y00502643*
X00457678Y00503689*
X00458245Y00505056*
Y00506536*
X00457678Y00507903*
X00456632Y0050895*
X00455265Y00509516*
G37*
G36*
X00527415Y00500273D02*
X00525736D01*
X00524185Y00499631*
X00522998Y00498444*
X00522434Y00497084*
X00522172Y00497042*
X00521427*
X00521164Y00497084*
X00520601Y00498444*
X00519414Y00499631*
X00517863Y00500273*
X00516184*
X00514633Y00499631*
X00513446Y00498444*
X00512804Y00496893*
Y00495214*
X00513446Y00493663*
X00514633Y00492476*
X00516184Y00491833*
X00517863*
X00519414Y00492476*
X00520601Y00493663*
X00521164Y00495023*
X00521427Y00495065*
X00522172*
X00522434Y00495023*
X00522998Y00493663*
X00524185Y00492476*
X00525736Y00491833*
X00527415*
X00528965Y00492476*
X00530153Y00493663*
X00530795Y00495214*
Y00496893*
X00530153Y00498444*
X00528965Y00499631*
X00527415Y00500273*
G37*
G36*
X00465597Y00500954D02*
X00463918D01*
X00462367Y00500311*
X0046118Y00499124*
X00460537Y00497573*
Y00495894*
X0046118Y00494343*
X00462367Y00493156*
X00463918Y00492513*
X00465597*
X00467148Y00493156*
X00468335Y00494343*
X00468977Y00495894*
Y00497573*
X00468335Y00499124*
X00467148Y00500311*
X00465597Y00500954*
G37*
G36*
X00437265Y00509516D02*
X00435785D01*
X00434418Y0050895*
X00433371Y00507903*
X00432805Y00506536*
Y00505056*
X00432917Y00504786*
X00432785Y00503516*
X00431419Y0050295*
X00430371Y00501904*
X00429805Y00500536*
Y00499056*
X00430371Y00497689*
X00431419Y00496643*
X00432785Y00496076*
X00432917Y00494806*
X00432805Y00494536*
Y00493056*
X00433371Y00491689*
X00434418Y00490643*
X00435785Y00490076*
X00437265*
X00438632Y00490643*
X00439678Y00491689*
X00440245Y00493056*
Y00494536*
X00439678Y00495904*
X00438632Y00496951*
X00437265Y00497516*
X00437134Y00498786*
X00437245Y00499056*
Y00500536*
X00437134Y00500806*
X00437265Y00502076*
X00438632Y00502643*
X00439678Y00503689*
X00440245Y00505056*
Y00506536*
X00439678Y00507903*
X00438632Y0050895*
X00437265Y00509516*
G37*
G36*
X00410265Y00485516D02*
X00408785D01*
X00407418Y0048495*
X00406525Y00484057*
X00405632Y0048495*
X00404265Y00485516*
X00402785*
X00401418Y0048495*
X00400525Y00484057*
X00399632Y0048495*
X00398265Y00485516*
X00396785*
X00395418Y0048495*
X00394525Y00484057*
X00393632Y0048495*
X00392265Y00485516*
X00390785*
X00389418Y0048495*
X00388525Y00484057*
X00387632Y0048495*
X00386265Y00485516*
X00384785*
X00383418Y0048495*
X00382525Y00484057*
X00381632Y0048495*
X00380265Y00485516*
X00378785*
X00377418Y0048495*
X00376371Y00483903*
X00375805Y00482536*
Y00481056*
X00375917Y00480786*
X00375785Y00479516*
X00374418Y0047895*
X00373371Y00477904*
X00372805Y00476536*
Y00475056*
X00373371Y00473689*
X00374418Y00472643*
X00375785Y00472076*
X00375917Y00470806*
X00375805Y00470536*
Y00469056*
X00375917Y00468786*
X00375785Y00467516*
X00374418Y0046695*
X00373371Y00465904*
X00372805Y00464536*
Y00463056*
X00373371Y00461689*
X00374418Y00460643*
X00375785Y00460076*
X00375917Y00458806*
X00375805Y00458536*
Y00457056*
X00375917Y00456786*
X00375785Y00455516*
X00374418Y0045495*
X00373371Y00453904*
X00372805Y00452536*
Y00451056*
X00373371Y00449689*
X00374418Y00448643*
X00375785Y00448076*
X00375917Y00446806*
X00375805Y00446536*
Y00445056*
X00375917Y00444786*
X00375785Y00443516*
X00374418Y0044295*
X00373371Y00441904*
X00372805Y00440536*
Y00439056*
X00373371Y00437689*
X00374418Y00436643*
X00375785Y00436076*
X00377265*
X00378632Y00436643*
X00379679Y00437689*
X00380245Y00439056*
Y00440536*
X00380133Y00440806*
X00380265Y00442076*
X00381632Y00442643*
X00382525Y00443535*
X00383418Y00442643*
X00384785Y00442076*
X00386265*
X00387632Y00442643*
X00388679Y00443689*
X00389245Y00445056*
Y00446536*
X00389133Y00446806*
X00389265Y00448076*
X00390632Y00448643*
X00391679Y00449689*
X00392245Y00451056*
Y00452536*
X00392133Y00452806*
X00392265Y00454076*
X00393632Y00454643*
X00394525Y00455535*
X00395418Y00454643*
X00396785Y00454076*
X00398265*
X00399632Y00454643*
X00400679Y00455689*
X00401245Y00457056*
Y00458536*
X00401133Y00458806*
X00401265Y00460076*
X00402632Y00460643*
X00403679Y00461689*
X00404245Y00463056*
Y00464536*
X00404133Y00464806*
X00404265Y00466076*
X00405632Y00466643*
X00406525Y00467536*
X00407418Y00466643*
X00408785Y00466076*
X00410265*
X00411632Y00466643*
X00412679Y00467689*
X00413245Y00469056*
Y00470536*
X00413133Y00470806*
X00413265Y00472076*
X00414632Y00472643*
X00415679Y00473689*
X00416245Y00475056*
Y00476536*
X00415679Y00477904*
X00414632Y0047895*
X00413265Y00479516*
X00413133Y00480786*
X00413245Y00481056*
Y00482536*
X00412679Y00483903*
X00411632Y0048495*
X00410265Y00485516*
G37*
G36*
X00477734Y00486585D02*
X00476055D01*
X00474504Y00485942*
X00473317Y00484755*
X00472675Y00483204*
Y00481525*
X00473317Y00479975*
X00473698Y00479593*
X00474466Y00478747*
X00473698Y00477934*
X004733Y00477535*
X00472658Y00475984*
Y00474305*
X004733Y00472755*
X00474487Y00471567*
X00476039Y00470925*
X00477717*
X00479268Y00471567*
X00480455Y00472755*
X00481098Y00474305*
Y00475984*
X00480455Y00477535*
X00480074Y00477917*
X00479307Y00478763*
X00480074Y00479576*
X00480472Y00479975*
X00481114Y00481525*
Y00483204*
X00480472Y00484755*
X00479285Y00485942*
X00477734Y00486585*
G37*
G36*
X00528058Y00471499D02*
X00526379D01*
X00524828Y00470857*
X00523641Y00469669*
X00522998Y00468118*
Y0046644*
X00523641Y00464889*
X00524828Y00463702*
X00526379Y00463059*
X00528058*
X00529609Y00463702*
X00530796Y00464889*
X00531439Y0046644*
Y00468118*
X00530796Y00469669*
X00529609Y00470857*
X00528058Y00471499*
G37*
G36*
X00410265Y00461516D02*
X00408785D01*
X00407418Y0046095*
X00406371Y00459904*
X00405805Y00458536*
Y00457056*
X00405917Y00456786*
X00405785Y00455516*
X00404418Y0045495*
X00403371Y00453904*
X00402805Y00452536*
Y00451056*
X00402917Y00450786*
X00402785Y00449516*
X00401418Y0044895*
X00400525Y00448057*
X00399632Y0044895*
X00398265Y00449516*
X00396785*
X00395418Y0044895*
X00394371Y00447904*
X00393805Y00446536*
Y00445056*
X00393917Y00444786*
X00393785Y00443516*
X00392418Y0044295*
X00391371Y00441904*
X00390805Y00440536*
Y00439056*
X00390917Y00438786*
X00390785Y00437516*
X00389418Y0043695*
X00388371Y00435904*
X00387805Y00434536*
Y00433056*
X00387917Y00432786*
X00387785Y00431516*
X00386418Y0043095*
X00385371Y00429904*
X00384805Y00428536*
Y00427056*
X00385371Y00425689*
X00386418Y00424643*
X00387785Y00424076*
X00389265*
X00390632Y00424643*
X00391525Y00425535*
X00392418Y00424643*
X00393785Y00424076*
X00395265*
X00396632Y00424643*
X00397525Y00425535*
X00398418Y00424643*
X00399785Y00424076*
X00401265*
X00402632Y00424643*
X00403525Y00425535*
X00404418Y00424643*
X00405785Y00424076*
X00407265*
X00408632Y00424643*
X00409525Y00425535*
X00410418Y00424643*
X00411785Y00424076*
X00413265*
X00414632Y00424643*
X00415525Y00425535*
X00416418Y00424643*
X00417785Y00424076*
X00419265*
X00420632Y00424643*
X00421679Y00425689*
X00422245Y00427056*
Y00428536*
X00421679Y00429904*
X00420632Y0043095*
X00419265Y00431516*
X00419133Y00432786*
X00419245Y00433056*
Y00434536*
X00419133Y00434806*
X00419265Y00436076*
X00420632Y00436643*
X00421679Y00437689*
X00422245Y00439056*
Y00440536*
X00421679Y00441904*
X00420632Y0044295*
X00419265Y00443516*
X00419133Y00444786*
X00419245Y00445056*
Y00446536*
X00418679Y00447904*
X00417632Y0044895*
X00416265Y00449516*
X00416133Y00450786*
X00416245Y00451056*
Y00452536*
X00415679Y00453904*
X00414632Y0045495*
X00413265Y00455516*
X00413133Y00456786*
X00413245Y00457056*
Y00458536*
X00412679Y00459904*
X00411632Y0046095*
X00410265Y00461516*
G37*
G36*
X00531749Y00451842D02*
X0053007D01*
X00528519Y00451199*
X00527331Y00450012*
X00526689Y00448461*
Y00446782*
X00527331Y00445231*
X00528519Y00444044*
X0053007Y00443402*
X00531749*
X00533299Y00444044*
X00534486Y00445231*
X00535129Y00446782*
Y00448461*
X00534486Y00450012*
X00533299Y00451199*
X00531749Y00451842*
G37*
G36*
X00475521Y00450398D02*
X00473842D01*
X00472291Y00449756*
X00471104Y00448568*
X00470462Y00447017*
Y00445339*
X00471104Y00443787*
X00472291Y004426*
X00473842Y00441958*
X00475521*
X00477072Y004426*
X00478259Y00443787*
X00478902Y00445339*
Y00447017*
X00478259Y00448568*
X00477072Y00449756*
X00475521Y00450398*
G37*
G36*
X00458265Y00425516D02*
X00456785D01*
X00455418Y0042495*
X00454525Y00424057*
X00453632Y0042495*
X00452265Y00425516*
X00450785*
X00449418Y0042495*
X00448371Y00423904*
X00447805Y00422536*
Y00421057*
X00448371Y00419689*
X00449418Y00418643*
X00450785Y00418076*
X00452265*
X00453632Y00418643*
X00454525Y00419536*
X00455418Y00418643*
X00456785Y00418076*
X00458265*
X00459632Y00418643*
X00460679Y00419689*
X00461245Y00421057*
Y00422536*
X00460679Y00423904*
X00459632Y0042495*
X00458265Y00425516*
G37*
G36*
X00521505Y00433719D02*
X00519826D01*
X00518275Y00433077*
X00517088Y00431889*
X00516445Y00430338*
Y0042866*
X00517088Y00427109*
X00518275Y00425922*
X00519826Y00425279*
X00521505*
X00522307Y00424237*
Y00423769*
X00522949Y00422218*
X00524136Y00421031*
X00525687Y00420388*
X00527366*
X00528917Y00421031*
X00530104Y00422218*
X00530746Y00423769*
Y00425447*
X00530104Y00426999*
X00528917Y00428186*
X00527366Y00428828*
X00525687*
X00524885Y00429871*
Y00430338*
X00524243Y00431889*
X00523056Y00433077*
X00521505Y00433719*
G37*
G36*
X00389265Y00419516D02*
X00387785D01*
X00386418Y0041895*
X00385525Y00418057*
X00384632Y0041895*
X00383265Y00419516*
X00381785*
X00380418Y0041895*
X00379525Y00418057*
X00378632Y0041895*
X00377265Y00419516*
X00375785*
X00374418Y0041895*
X00373371Y00417904*
X00372805Y00416536*
Y00415056*
X00373371Y00413689*
X00374418Y00412643*
X00375785Y00412076*
X00377265*
X00378632Y00412643*
X00379525Y00413536*
X00380418Y00412643*
X00381785Y00412076*
X00383265*
X00384632Y00412643*
X00385525Y00413536*
X00386418Y00412643*
X00387785Y00412076*
X00389265*
X00390632Y00412643*
X00391679Y00413689*
X00392245Y00415056*
Y00416536*
X00391679Y00417904*
X00390632Y0041895*
X00389265Y00419516*
G37*
G36*
X00413265D02*
X00411785D01*
X00410418Y0041895*
X00409371Y00417904*
X00408805Y00416536*
Y00415056*
X00409371Y00413689*
X00410418Y00412643*
X00411785Y00412076*
X00413265*
X00414632Y00412643*
X00415679Y00413689*
X00416245Y00415056*
Y00416536*
X00415679Y00417904*
X00414632Y0041895*
X00413265Y00419516*
G37*
G36*
X0038644Y00410619D02*
X00384761D01*
X0038321Y00409976*
X00382023Y00408789*
X00381381Y00407238*
Y0040556*
X00382023Y00404009*
X0038321Y00402821*
X00384761Y00402179*
X0038644*
X00387991Y00402821*
X00389178Y00404009*
X0038982Y0040556*
Y00407238*
X00389178Y00408789*
X00387991Y00409976*
X0038644Y00410619*
G37*
G36*
X003631D02*
X00361421D01*
X0035987Y00409976*
X00358683Y00408789*
X0035804Y00407238*
Y0040556*
X00358683Y00404009*
X0035987Y00402821*
X00361421Y00402179*
X003631*
X00364651Y00402821*
X00365838Y00404009*
X0036648Y0040556*
Y00407238*
X00365838Y00408789*
X00364651Y00409976*
X003631Y00410619*
G37*
G36*
X00353675Y00393759D02*
X00351996D01*
X00350445Y00393117*
X00349258Y00391929*
X00348615Y00390378*
Y003887*
X00349258Y00387149*
X00350445Y00385961*
X00351996Y00385319*
X00353675*
X00355226Y00385961*
X00356413Y00387149*
X00357055Y003887*
Y00390378*
X00356413Y00391929*
X00355226Y00393117*
X00353675Y00393759*
G37*
%LNpcb1-3*%
%LPD*%
G54D19*
X00555504Y00501159D03*
Y00484159D03*
X00330985Y00501159D03*
Y00484159D03*
X0039168Y00561854D03*
X0040868D03*
X00494809D03*
X00477809D03*
X00494809Y00337335D03*
X00477809D03*
X00555504Y0039803D03*
Y0041503D03*
Y0043203D03*
Y0044903D03*
Y0046603D03*
X00330985Y0039803D03*
Y0041503D03*
Y0043203D03*
Y0044903D03*
Y0046603D03*
X0051181Y00337335D03*
X0040868D03*
X0039168D03*
X0037468D03*
X00555504Y0038103D03*
X00552178Y00364309D03*
X0052853Y00340661D03*
X00542706Y00350133D03*
X00330985Y0038103D03*
X00357959Y00340661D03*
X00334311Y00364309D03*
X00343783Y00350133D03*
X0037468Y00561854D03*
X00330985Y0051816D03*
X00334311Y0053488D03*
X00357959Y00558528D03*
X00343783Y00549056D03*
X00542706D03*
X00552178Y0053488D03*
X0052853Y00558528D03*
X0051181Y00561854D03*
X00555504Y0051816D03*
G54D46*
X0037468Y0051816D03*
Y0038103D03*
X0051181D03*
Y0051816D03*
G54D47*
X00472525Y00469796D03*
X00497169Y00454999D03*
X00508169D03*
X00497169Y00443999D03*
X00508169D03*
X00538525Y00529796D03*
Y00517796D03*
X00541525Y00511796D03*
X00538525Y00505796D03*
X00541525Y00499796D03*
X00538525Y00493796D03*
X00541525Y00487796D03*
Y00415796D03*
Y00403796D03*
X00538525Y00397797D03*
X00541525Y00391796D03*
X00538525Y00385797D03*
X00541525Y00379797D03*
X00538525Y00373796D03*
X00535525Y00535796D03*
X00532525Y00529796D03*
X00535525Y00523796D03*
Y00511796D03*
X00532525Y00505796D03*
X00535525Y00499796D03*
X00532525Y00397797D03*
X00535525Y00391796D03*
Y00379797D03*
Y00367797D03*
X00532525Y00361796D03*
X00526525Y00541796D03*
X00529525Y00535796D03*
X00526525Y00361796D03*
X00520525Y00541796D03*
X00523525Y00355797D03*
X00514525Y00541796D03*
X00517525Y00355797D03*
X00511525Y00547796D03*
X00508525Y00541796D03*
X00511525Y00355797D03*
X00505525Y00547796D03*
X00502525Y00541796D03*
X00505525Y00355797D03*
X00499525Y00547796D03*
X00496525Y00397797D03*
Y00361796D03*
X00499525Y00355797D03*
X00475525Y00463796D03*
X00466525Y00469796D03*
X00469525Y00463796D03*
X00424525Y00385797D03*
X00421525Y00391796D03*
X00418525Y00385797D03*
X00421525Y00379797D03*
X00415525Y00391796D03*
X00412525Y00385797D03*
X00415525Y00379797D03*
X00412525Y00373796D03*
Y00361796D03*
X00409525Y00391796D03*
X00406525Y00385797D03*
X00409525Y00379797D03*
X00406525Y00373796D03*
X00409525Y00367797D03*
Y00355797D03*
X00400525Y00505796D03*
Y00493796D03*
X00397525Y00511796D03*
X00394525Y00505796D03*
X00397525Y00499796D03*
X00394525Y00493796D03*
X00388525Y00541796D03*
X00391525Y00499796D03*
X00388525Y00493796D03*
Y00361796D03*
X00391525Y00355797D03*
X00385525Y00547796D03*
X00382525Y00541796D03*
Y00493796D03*
X00385525Y00355797D03*
X00379525Y00547796D03*
X00376525Y00541796D03*
Y00493796D03*
X00379525Y00355797D03*
X00373525Y00547796D03*
X00370525Y00541796D03*
Y00493796D03*
X00373525Y00355797D03*
X00364525Y00541796D03*
Y00493796D03*
X00367525Y00487796D03*
Y00451796D03*
X00364525Y00445796D03*
X00367525Y00355797D03*
X00358525Y00541796D03*
Y00493796D03*
X00361525Y00487796D03*
Y00451796D03*
X00358525Y00445796D03*
Y00361796D03*
X00361525Y00355797D03*
X00355525Y00535796D03*
X00352525Y00529796D03*
Y00505796D03*
X00355525Y00499796D03*
X00352525Y00493796D03*
X00355525Y00487796D03*
Y00451796D03*
X00352525Y00445796D03*
Y00373796D03*
X00355525Y00367797D03*
X00352525Y00361796D03*
X00349525Y00523796D03*
X00346525Y00517796D03*
X00349525Y00511796D03*
X00346525Y00505796D03*
X00349525Y00499796D03*
X00346525Y00493796D03*
X00349525Y00487796D03*
Y00451796D03*
X00346525Y00445796D03*
Y00385797D03*
X00349525Y00379797D03*
X00346525Y00373796D03*
X00349525Y00367797D03*
X00458739Y00488099D03*
Y00477099D03*
G54D50*
X00483564Y00500414D03*
X00507472Y00496353D03*
X00497921D03*
X00488369D03*
X00477449Y00427833D03*
X00407202Y00501756D03*
X00407018Y00511706D03*
X00492176Y00529908D03*
Y00539524D03*
M02*