%FSTAX44Y44*%
%MOMM*%
%SFA1B1*%

%IPPOS*%
%ADD11C,0.253999*%
%ADD19C,0.799998*%
%ADD29C,2.299995*%
%ADD46C,3.499993*%
%ADD47C,0.499999*%
%ADD48C,0.299999*%
%ADD50C,0.599999*%
%ADD51R,0.999998X1.999996*%
%LNpcb1-1*%
%LPD*%
G36*
X00492919Y00543744D02*
X00491337D01*
X00489786Y00543101*
X00488599Y00541914*
X00487956Y00540363*
Y00538685*
X00488599Y00537134*
X00489786Y00535946*
X00491337Y00535305*
Y00534128*
X00489786Y00533486*
X00488599Y00532298*
X00487956Y00530747*
Y00529069*
X00488599Y00527518*
X00489786Y00526331*
X00491337Y00525688*
X00492919*
Y00505796*
X0047544*
X00474785Y00506776*
Y00508454*
X00474143Y00510005*
X00472956Y00511192*
X00471405Y00511835*
X00469726*
X00468175Y00511192*
X00466988Y00510005*
X00466345Y00508454*
Y00506776*
X00465691Y00505796*
X00463359*
Y00500722*
X00462367Y00500311*
X0046118Y00499124*
X00460537Y00497573*
Y00495894*
X0046118Y00494343*
X00462367Y00493156*
X00463359Y00492745*
Y00490318*
X0046178*
X00460846Y00491253*
X00459479Y00491819*
X00457999*
X00456632Y00491253*
X00455698Y00490318*
X00443191*
Y0044958*
X0041783*
Y00497536*
X00410746*
X0041022Y00498805*
X00410779Y00499365*
X00411422Y00500916*
Y00502595*
X00410779Y00504146*
X00409592Y00505333*
X00408041Y00505975*
X00407202*
Y00507486*
X00407858*
X00409408Y00508129*
X00410596Y00509316*
X00411238Y00510867*
Y00512546*
X00410596Y00514097*
X00409408Y00515284*
X00407858Y00515926*
X00407202*
Y00544797*
Y00549024*
X00492919*
Y00543744*
G37*
G36*
X005461Y00347098D02*
X00544926Y00346612D01*
X0054483Y0034671*
X0033909*
Y00550258*
X00340009Y00551134*
X00357959Y00550248*
X0035889Y0055118*
X00405897*
X00406268Y00549958*
X00405881Y00549024*
Y00544797*
Y00515926*
X00406268Y00514993*
X00407202Y00514606*
X00407595*
X0040866Y00514164*
X00409476Y00513349*
X00409918Y00512283*
Y0051113*
X00409476Y00510064*
X0040866Y00509248*
X00407595Y00508807*
X00407202*
X00406268Y0050842*
X00405881Y00507486*
Y00505975*
X00406268Y00505042*
X00407202Y00504655*
X00407779*
X00408844Y00504214*
X0040966Y00503398*
X00410102Y00502332*
Y00501179*
X0040966Y00500113*
X00409286Y00499739*
X00409186Y00499497*
X00409Y00499311*
Y00499048*
X00408899Y00498805*
X00409Y00498563*
Y004983*
X00409526Y0049703*
X00409712Y00496844*
X00409812Y00496602*
X00410055Y00496501*
X00410241Y00496316*
X00410503*
X00410746Y00496215*
X00416509*
Y00489641*
X00415614Y00488648*
X00415603Y00488639*
X00373374Y0048847*
X0037291Y00488276*
X00372445Y00488084*
X00372444Y00488081*
X00372442Y0048808*
X00372251Y00487614*
X00372059Y0048715*
Y00411699*
X00372445Y00410765*
X0037338Y00410378*
X00381816*
X00382342Y00409108*
X00382023Y00408789*
X00381381Y00407238*
Y0040556*
X00382023Y00404009*
X0038321Y00402821*
X00384761Y00402179*
X0038644*
X00387991Y00402821*
X00389029Y0040386*
X0047879*
X00479761Y00404053*
X00480584Y00404604*
X00525932Y00449951*
X00527008Y00449232*
X00526689Y00448461*
Y00446782*
X00527331Y00445231*
X00528519Y00444044*
X0053007Y00443402*
X00531749*
X00533299Y00444044*
X00534486Y00445231*
X00535129Y00446782*
Y00448461*
X00534486Y00450012*
X00533299Y00451199*
X00531749Y00451842*
X0053007*
X00529299Y00451522*
X00528579Y00452599*
X00529014Y00453033*
X00529564Y00453857*
X00529757Y00454828*
Y00454829*
Y0046385*
X00530796Y00464889*
X00531439Y0046644*
Y00468118*
X00530796Y00469669*
X00529609Y00470857*
X00528058Y00471499*
X00526379*
X00524828Y00470857*
X00523641Y00469669*
X00522998Y00468118*
Y0046644*
X00523641Y00464889*
X0052468Y0046385*
Y0045588*
X00477737Y00408938*
X00390163*
X00390049Y00409108*
X00390727Y00410378*
X004699*
X00470833Y00410765*
X0047122Y00411699*
Y00442013*
X0047249Y00442518*
X00473842Y00441958*
X00475521*
X00477072Y004426*
X00478259Y00443787*
X00478902Y00445339*
Y00447017*
X00478259Y00448568*
X00477433Y00449394*
Y00452873*
X00516394Y00491833*
X00517863*
X00519414Y00492476*
X00520601Y00493663*
X00521164Y00495023*
X00521427Y00495065*
X00522172*
X00522434Y00495023*
X00522998Y00493663*
X00524185Y00492476*
X00525736Y00491833*
X00527415*
X00528965Y00492476*
X00530153Y00493663*
X00530795Y00495214*
Y00496893*
X00530153Y00498444*
X00528965Y00499631*
X00527415Y00500273*
X00525736*
X00524185Y00499631*
X00522998Y00498444*
X00522434Y00497084*
X00522172Y00497042*
X00521427*
X00521164Y00497084*
X00520601Y00498444*
X00519414Y00499631*
X00517863Y00500273*
X00516184*
X00514633Y00499631*
X00513446Y00498444*
X00512804Y00496893*
Y00495424*
X00473099Y00455719*
X00472549Y00454896*
X00472356Y00453924*
Y00449782*
X00472291Y00449756*
X0047206Y00449524*
X00470833Y00449167*
X004699Y00449554*
X004635*
X00462566Y00449167*
X0046218Y00448233*
Y0044813*
X00449741*
Y00448233*
X00449354Y00449167*
X0044842Y00449554*
X00444529*
X00444512Y0044958*
Y00488998*
X00455698*
X00456631Y00489385*
X0045738Y00490133*
X00458262Y00490498*
X00459216*
X00460098Y00490133*
X00460847Y00489385*
X0046178Y00488998*
X00463359*
X00464293Y00489385*
X00464679Y00490318*
Y00492513*
X00465597*
X00467148Y00493156*
X00468335Y00494343*
X00468977Y00495894*
Y00497573*
X00468335Y00499124*
X00467148Y00500311*
X00465597Y00500954*
X00464679*
Y00504227*
X00465938Y00504503*
X00465949Y00504501*
X00466269Y00504715*
X00466625Y00504863*
X00467759Y00504422*
X00467849Y00504363*
X00468175Y00504037*
X00469726Y00503395*
X00471405*
X00472956Y00504037*
X00473282Y00504363*
X00473372Y00504422*
X00474506Y00504863*
X00474862Y00504715*
X00475182Y00504501*
X00475315Y00504528*
X0047544Y00504476*
X00492919*
X00493853Y00504863*
X00494239Y00505796*
Y00525688*
X00493853Y00526622*
X00492919Y00527009*
X00491599*
X00490534Y0052745*
X00489718Y00528266*
X00489276Y00529331*
Y00530485*
X00489718Y00531551*
X00490534Y00532366*
X00491842Y00532908*
X00492028Y00533094*
X0049227Y00533194*
X00492371Y00533437*
X00492556Y00533623*
Y00533885*
X00492657Y00534128*
Y00535305*
X00492556Y00535547*
Y00535809*
X00492371Y00535995*
X0049227Y00536238*
X00492028Y00536338*
X00491842Y00536524*
X00490534Y00537066*
X00489718Y00537882*
X00489276Y00538947*
Y00540101*
X00489718Y00541166*
X00490534Y00541982*
X00491599Y00542424*
X00492919*
X00493853Y0054281*
X00494239Y00543744*
Y00549024*
X00493853Y00549958*
X00494224Y0055118*
X005461*
Y00347098*
G37*
G36*
X00416509Y00465476D02*
Y0044958D01*
X00416895Y00448645*
X0041783Y00448259*
X0042302*
Y0043818*
X004381*
Y00448259*
X00441854*
X00441871Y00448233*
Y00422169*
X00384859*
Y00435486*
X00394553Y0044518*
X00394654Y00445422*
X00394839Y00445608*
X00395007Y00446013*
X00395025Y00446031*
X00395491Y00447156*
X00396166Y0044783*
X0039729Y00448296*
X00397308Y00448314*
X00397713Y00448482*
X00397899Y00448668*
X00398142Y00448768*
X00406367Y00456994*
X00406553Y0045718*
X00406654Y00457422*
X00406839Y00457608*
X0040694Y00457851*
X00407007Y00458013*
X00407025Y00458031*
X00407491Y00459156*
X00408166Y00459831*
X0040929Y00460296*
X00409308Y00460314*
X00409713Y00460482*
X00409899Y00460668*
X00410142Y00460768*
X00415335Y00465963*
X00416509Y00465476*
G37*
G36*
X00416505Y00486426D02*
X00416509Y00486422D01*
Y00469003*
X00409208Y00461702*
X00408803Y00461534*
X00408785Y00461516*
X00407661Y0046105*
X0040766*
X00407418Y0046095*
X00406371Y00459904*
X00405805Y00458536*
X00405787Y00458518*
X0040572Y00458356*
X00405619Y00458113*
X00405433Y00457928*
X00397208Y00449702*
X00396803Y00449534*
X00396785Y00449516*
X00395661Y00449051*
X00395418Y0044895*
X00394371Y00447904*
X00393805Y00446536*
X00393787Y00446518*
X00393619Y00446113*
X0038354Y00436033*
Y00420849*
X00443191*
Y00448233*
X00448157*
X00448343Y00448156*
X0044842Y0044797*
Y0043818*
X004635*
Y0044797*
X00463577Y00448156*
X00463763Y00448233*
X00469636*
X004699Y00448124*
Y00442013*
Y00411962*
X00469822Y00411776*
X00469636Y00411699*
X00373642*
X00373456Y00411776*
X0037338Y00411962*
Y00486887*
X00373456Y00487073*
X00373642Y00487151*
X00415238Y00487317*
X00416505Y00486426*
G37*
%LNpcb1-2*%
%LPC*%
G36*
X004381Y0047612D02*
X0043183D01*
Y0046485*
X004381*
Y0047612*
G37*
G36*
X0042929D02*
X0042302D01*
Y0046485*
X0042929*
Y0047612*
G37*
G36*
X004381Y0046231D02*
X0043183D01*
Y0045104*
X004381*
Y0046231*
G37*
G36*
X0042929D02*
X0042302D01*
Y0045104*
X0042929*
Y0046231*
G37*
G36*
X00477734Y00486585D02*
X00476055D01*
X00474504Y00485942*
X00473317Y00484755*
X00472675Y00483204*
Y00481525*
X00473317Y00479975*
X00473698Y00479593*
X00474466Y00478747*
X00473698Y00477934*
X004733Y00477535*
X00472658Y00475984*
Y00474305*
X004733Y00472755*
X00474487Y00471567*
X00476039Y00470925*
X00477717*
X00479268Y00471567*
X00480455Y00472755*
X00481098Y00474305*
Y00475984*
X00480455Y00477535*
X00480074Y00477917*
X00479307Y00478763*
X00480074Y00479576*
X00480472Y00479975*
X00481114Y00481525*
Y00483204*
X00480472Y00484755*
X00479285Y00485942*
X00477734Y00486585*
G37*
G36*
X004635Y0047612D02*
X0045723D01*
Y0046485*
X004635*
Y0047612*
G37*
G36*
X0045469D02*
X0044842D01*
Y0046485*
X0045469*
Y0047612*
G37*
G36*
X004635Y0046231D02*
X0045723D01*
Y0045104*
X004635*
Y0046231*
G37*
G36*
X0045469D02*
X0044842D01*
Y0045104*
X0045469*
Y0046231*
G37*
G36*
X00521505Y00433719D02*
X00519826D01*
X00518275Y00433077*
X00517088Y00431889*
X00516445Y00430338*
Y0042866*
X00517088Y00427109*
X00518275Y00425922*
X00519826Y00425279*
X00521505*
X00522307Y00424237*
Y00423769*
X00522949Y00422218*
X00524136Y00421031*
X00525687Y00420388*
X00527366*
X00528917Y00421031*
X00530104Y00422218*
X00530746Y00423769*
Y00425447*
X00530104Y00426999*
X00528917Y00428186*
X00527366Y00428828*
X00525687*
X00524885Y00429871*
Y00430338*
X00524243Y00431889*
X00523056Y00433077*
X00521505Y00433719*
G37*
G36*
X003631Y00410619D02*
X00361421D01*
X0035987Y00409976*
X00358683Y00408789*
X0035804Y00407238*
Y0040556*
X00358683Y00404009*
X0035987Y00402821*
X00361421Y00402179*
X003631*
X00364651Y00402821*
X00365838Y00404009*
X0036648Y0040556*
Y00407238*
X00365838Y00408789*
X00364651Y00409976*
X003631Y00410619*
G37*
G36*
X00353675Y00393759D02*
X00351996D01*
X00350445Y00393117*
X00349258Y00391929*
X00348615Y00390378*
Y003887*
X00349258Y00387149*
X00350445Y00385961*
X00351996Y00385319*
X00353675*
X00355226Y00385961*
X00356413Y00387149*
X00357055Y003887*
Y00390378*
X00356413Y00391929*
X00355226Y00393117*
X00353675Y00393759*
G37*
G36*
X004381Y0043564D02*
X0043183D01*
Y0042437*
X004381*
Y0043564*
G37*
G36*
X0042929D02*
X0042302D01*
Y0042437*
X0042929*
Y0043564*
G37*
G36*
X004635D02*
X0045723D01*
Y0042437*
X004635*
Y0043564*
G37*
G36*
X0045469D02*
X0044842D01*
Y0042437*
X0045469*
Y0043564*
G37*
%LNpcb1-3*%
%LPD*%
G54D11*
X00474895Y00446391D02*
Y00453924D01*
X00517024Y00496053*
X0047879Y004064D02*
X00527219Y00454828D01*
Y00467279*
X003856Y004064D02*
X0047879D01*
X00352835Y00389539D02*
X00353147Y0038985D01*
X00474682Y00446178D02*
X00474895Y00446391D01*
G54D19*
X00555504Y00501159D03*
Y00484159D03*
X00330985Y00501159D03*
Y00484159D03*
X0039168Y00561854D03*
X0040868D03*
X00494809D03*
X00477809D03*
X00494809Y00337335D03*
X00477809D03*
X00555504Y0039803D03*
Y0041503D03*
Y0043203D03*
Y0044903D03*
Y0046603D03*
X00330985Y0039803D03*
Y0041503D03*
Y0043203D03*
Y0044903D03*
Y0046603D03*
X0051181Y00337335D03*
X0040868D03*
X0039168D03*
X0037468D03*
X00555504Y0038103D03*
X00552178Y00364309D03*
X0052853Y00340661D03*
X00542706Y00350133D03*
X00330985Y0038103D03*
X00357959Y00340661D03*
X00334311Y00364309D03*
X00343783Y00350133D03*
X0037468Y00561854D03*
X00330985Y0051816D03*
X00334311Y0053488D03*
X00357959Y00558528D03*
X00343783Y00549056D03*
X00542706D03*
X00552178Y0053488D03*
X0052853Y00558528D03*
X0051181Y00561854D03*
X00555504Y0051816D03*
G54D29*
X0037468Y00561854D02*
D01*
X00371632Y00561748*
X00368599Y00561429*
X00365596Y005609*
X00362636Y00560162*
X00359736Y00559219*
X00356908Y00558077*
X00354167Y0055674*
X00351526Y00555215*
X00348997Y00553509*
X00346594Y00551632*
X00344327Y00549591*
X00342209Y00547397*
X00340248Y00545061*
X00338456Y00542593*
X00336839Y00540007*
X00335408Y00537314*
X00334167Y00534528*
X00333124Y00531662*
X00332283Y0052873*
X00331649Y00525747*
X00331225Y00522727*
X00331012Y00519684*
X00330985Y0051816*
X00555504D02*
D01*
X00555398Y00521208*
X00555079Y00524241*
X0055455Y00527244*
X00553812Y00530203*
X00552869Y00533104*
X00551727Y00535932*
X0055039Y00538673*
X00548865Y00541314*
X00547159Y00543843*
X00545282Y00546246*
X00543241Y00548513*
X00541047Y00550631*
X00538711Y00552591*
X00536243Y00554384*
X00533657Y00556*
X00530964Y00557432*
X00528178Y00558673*
X00525312Y00559716*
X0052238Y00560556*
X00519397Y00561191*
X00516377Y00561615*
X00513334Y00561828*
X0051181Y00561854*
Y00337335D02*
D01*
X00514858Y00337442*
X00517891Y00337761*
X00520894Y0033829*
X00523853Y00339028*
X00526754Y00339971*
X00529582Y00341113*
X00532323Y0034245*
X00534964Y00343975*
X00537493Y0034568*
X00539896Y00347558*
X00542163Y00349599*
X00544281Y00351793*
X00546241Y00354129*
X00548034Y00356596*
X0054965Y00359183*
X00551082Y00361876*
X00552323Y00364662*
X00553366Y00367528*
X00554206Y0037046*
X00554841Y00373443*
X00555265Y00376463*
X00555478Y00379505*
X00555504Y0038103*
X00330985D02*
D01*
X00331092Y00377982*
X00331411Y00374949*
X0033194Y00371946*
X00332678Y00368986*
X00333621Y00366086*
X00334763Y00363258*
X003361Y00360517*
X00337625Y00357876*
X0033933Y00355347*
X00341208Y00352944*
X00343249Y00350677*
X00345443Y00348559*
X00347779Y00346598*
X00350246Y00344806*
X00352833Y00343189*
X00355526Y00341758*
X00358312Y00340517*
X00361178Y00339474*
X0036411Y00338633*
X00367093Y00337999*
X00370113Y00337575*
X00373155Y00337362*
X0037468Y00337335*
X00555504Y00501159D02*
Y0051816D01*
Y00484159D02*
Y00501159D01*
Y0046603D02*
Y00484159D01*
Y0044903D02*
Y0046603D01*
Y0043203D02*
Y0044903D01*
Y0041503D02*
Y0043203D01*
Y0039803D02*
Y0041503D01*
Y0038103D02*
Y0039803D01*
X00330985Y00501159D02*
Y0051816D01*
Y00484159D02*
Y00501159D01*
Y0046603D02*
Y00484159D01*
Y0044903D02*
Y0046603D01*
Y0043203D02*
Y0044903D01*
Y0041503D02*
Y0043203D01*
Y0039803D02*
Y0041503D01*
Y0038103D02*
Y0039803D01*
X0037468Y00561854D02*
X0039168D01*
X00494809D02*
X0051181D01*
X00477809D02*
X00494809D01*
X0040868D02*
X00477809D01*
X0039168D02*
X0040868D01*
X0037468Y00337335D02*
X0051181D01*
G54D46*
X0037468Y0051816D03*
Y0038103D03*
X0051181D03*
Y0051816D03*
G54D47*
X00475703Y00511947D03*
X00472525Y00469796D03*
X00497169Y00454999D03*
X00508169D03*
X00497169Y00443999D03*
X00508169D03*
X00538525Y00529796D03*
Y00517796D03*
X00541525Y00511796D03*
X00538525Y00505796D03*
X00541525Y00499796D03*
X00538525Y00493796D03*
X00541525Y00487796D03*
Y00415796D03*
Y00403796D03*
X00538525Y00397797D03*
X00541525Y00391796D03*
X00538525Y00385797D03*
X00541525Y00379797D03*
X00538525Y00373796D03*
X00535525Y00535796D03*
X00532525Y00529796D03*
X00535525Y00523796D03*
Y00511796D03*
X00532525Y00505796D03*
X00535525Y00499796D03*
X00532525Y00397797D03*
X00535525Y00391796D03*
Y00379797D03*
Y00367797D03*
X00532525Y00361796D03*
X00526525Y00541796D03*
X00529525Y00535796D03*
X00526525Y00361796D03*
X00520525Y00541796D03*
X00523525Y00355797D03*
X00514525Y00541796D03*
X00517525Y00355797D03*
X00511525Y00547796D03*
X00508525Y00541796D03*
X00511525Y00355797D03*
X00505525Y00547796D03*
X00502525Y00541796D03*
X00505525Y00355797D03*
X00499525Y00547796D03*
X00496525Y00397797D03*
Y00361796D03*
X00499525Y00355797D03*
X00475525Y00463796D03*
X00466525Y00469796D03*
X00469525Y00463796D03*
X00424525Y00385797D03*
X00421525Y00391796D03*
X00418525Y00385797D03*
X00421525Y00379797D03*
X00415525Y00391796D03*
X00412525Y00385797D03*
X00415525Y00379797D03*
X00412525Y00373796D03*
Y00361796D03*
X00409525Y00391796D03*
X00406525Y00385797D03*
X00409525Y00379797D03*
X00406525Y00373796D03*
X00409525Y00367797D03*
Y00355797D03*
X00400525Y00505796D03*
Y00493796D03*
X00397525Y00511796D03*
X00394525Y00505796D03*
X00397525Y00499796D03*
X00394525Y00493796D03*
X00388525Y00541796D03*
X00391525Y00499796D03*
X00388525Y00493796D03*
Y00361796D03*
X00391525Y00355797D03*
X00385525Y00547796D03*
X00382525Y00541796D03*
Y00493796D03*
X00385525Y00355797D03*
X00379525Y00547796D03*
X00376525Y00541796D03*
Y00493796D03*
X00379525Y00355797D03*
X00373525Y00547796D03*
X00370525Y00541796D03*
Y00493796D03*
X00373525Y00355797D03*
X00364525Y00541796D03*
Y00493796D03*
X00367525Y00487796D03*
Y00451796D03*
X00364525Y00445796D03*
X00367525Y00355797D03*
X00358525Y00541796D03*
Y00493796D03*
X00361525Y00487796D03*
Y00451796D03*
X00358525Y00445796D03*
Y00361796D03*
X00361525Y00355797D03*
X00355525Y00535796D03*
X00352525Y00529796D03*
Y00505796D03*
X00355525Y00499796D03*
X00352525Y00493796D03*
X00355525Y00487796D03*
Y00451796D03*
X00352525Y00445796D03*
Y00373796D03*
X00355525Y00367797D03*
X00352525Y00361796D03*
X00349525Y00523796D03*
X00346525Y00517796D03*
X00349525Y00511796D03*
X00346525Y00505796D03*
X00349525Y00499796D03*
X00346525Y00493796D03*
X00349525Y00487796D03*
Y00451796D03*
X00346525Y00445796D03*
Y00385797D03*
X00349525Y00379797D03*
X00346525Y00373796D03*
X00349525Y00367797D03*
X00484525Y00517796D03*
X00487525Y00511796D03*
X00478525Y00517796D03*
X00481525Y00511796D03*
X00472525Y00517796D03*
X00466525Y00541796D03*
Y00517796D03*
X00460525D03*
X00454525D03*
Y00505796D03*
X00448525Y00541796D03*
Y00517796D03*
X00442525Y00541796D03*
Y00517796D03*
X00436525Y00505796D03*
Y00493796D03*
X00433525Y00499796D03*
X00412525Y00541796D03*
Y00529796D03*
X00457525Y00421796D03*
X00451525D03*
X00412525Y00475796D03*
Y00415796D03*
X00409525Y00481796D03*
X00406525Y00475796D03*
X00409525Y00469796D03*
X00403525Y00481796D03*
X00400525Y00475796D03*
X00403525Y00469796D03*
X00400525Y00463796D03*
X00397525Y00481796D03*
X00394525Y00475796D03*
X00397525Y00469796D03*
X00394525Y00463796D03*
X00397525Y00457796D03*
X00391525Y00481796D03*
X00388525Y00475796D03*
X00391525Y00469796D03*
X00388525Y00463796D03*
X00391525Y00457796D03*
X00388525Y00451796D03*
Y00415796D03*
X00385525Y00481796D03*
X00382525Y00475796D03*
X00385525Y00469796D03*
X00382525Y00463796D03*
X00385525Y00457796D03*
X00382525Y00451796D03*
X00385525Y00445796D03*
X00382525Y00415796D03*
X00379525Y00481796D03*
X00376525Y00475796D03*
X00379525Y00469796D03*
X00376525Y00463796D03*
X00379525Y00457796D03*
X00376525Y00451796D03*
X00379525Y00445796D03*
X00376525Y00439796D03*
Y00415796D03*
X00418525Y00439796D03*
Y00427796D03*
X00412525Y00451796D03*
X00415525Y00445796D03*
X00412525Y00439796D03*
X00415525Y00433796D03*
X00412525Y00427796D03*
X00409525Y00457796D03*
X00406525Y00451796D03*
X00409525Y00445796D03*
X00406525Y00439796D03*
X00409525Y00433796D03*
X00406525Y00427796D03*
X00403525Y00445796D03*
X00400525Y00439796D03*
X00403525Y00433796D03*
X00400525Y00427796D03*
X00397525Y00445796D03*
X00394525Y00439796D03*
X00397525Y00433796D03*
X00394525Y00427796D03*
X00391525Y00433796D03*
X00388525Y00427796D03*
X00458739Y00488099D03*
Y00477099D03*
G54D48*
X00530994Y00447719D02*
X00531483Y00448208D01*
X00530512Y00447622D02*
X00530909D01*
G54D50*
X00470565Y00507615D03*
X00464757Y00496734D03*
X00483564Y00500414D03*
X00476894Y00482365D03*
X00476878Y00475145D03*
X00530909Y00447622D03*
X00520665Y00429499D03*
X00526526Y00424608D03*
X00507472Y00496353D03*
X00497921D03*
X00488369D03*
X00527219Y00467279D03*
X003856Y004064D03*
X0036226D03*
X00477449Y00427833D03*
X00526575Y00496053D03*
X00517024D03*
X00352835Y00389539D03*
X00407202Y00501756D03*
X00407018Y00511706D03*
X00492176Y00529908D03*
X00474682Y00446178D03*
X00492176Y00539524D03*
G54D51*
X0043056Y0043691D03*
X0045596D03*
Y0046358D03*
X0043056D03*
M02*