%FSTAX44Y44*%
%MOMM*%
%SFA1B1*%

%IPPOS*%
%ADD12C,0.150000*%
%ADD49C,0.499999*%
%ADD53R,0.488699X0.580599*%
%LNpcb1-1*%
%LPD*%
G36*
X00450752Y00432106D02*
X00443378Y00424733D01*
X00435754Y00432357*
X00435667Y0043557*
X00435706Y0043561*
X00450752*
Y00432106*
G37*
G36*
X00404851Y00369318D02*
Y00368107D01*
X00399749Y00366081*
Y00367464*
X00402353Y00368439*
X00402514Y00368493*
X00402653Y00368536*
X00402718Y00368557*
X00402761Y00368568*
X00402782Y00368578*
X00402793*
X00402847Y00368589*
X00402911Y00368611*
X0040305Y00368664*
X00403125Y00368686*
X00403179Y00368696*
X00403222Y00368718*
X00403232*
X00402353Y00368997*
X00399749Y00369961*
Y00371376*
X00404851Y00369318*
G37*
G36*
X00400649Y00364816D02*
X00400488Y00364484D01*
X00400328Y00364195*
X00400242Y00364055*
X00400156Y00363937*
X00400081Y00363819*
X00400006Y00363723*
X00399942Y00363637*
X00399888Y00363562*
X00399835Y00363508*
X00399802Y00363466*
X00399781Y00363444*
X0039977Y00363433*
X00404851*
Y00362083*
X00397787*
Y00363187*
X00398023Y00363283*
X00398237Y00363412*
X0039843Y00363551*
X00398591Y00363691*
X0039873Y0036383*
X00398827Y00363937*
X00398859Y00363969*
X00398891Y00364002*
X00398902Y00364023*
X00398913Y00364034*
X00399084Y00364259*
X00399213Y00364473*
X00399331Y00364666*
X00399416Y00364838*
X00399491Y00364977*
X00399534Y00365084*
X00399545Y00365127*
X00399556Y00365159*
X00399566Y0036517*
Y00365181*
X00400788*
X00400649Y00364816*
G37*
G36*
X00404851Y00358449D02*
X004035D01*
Y003598*
X00404851*
Y00358449*
G37*
G36*
X00403436Y00354698D02*
X00404851D01*
Y0035339*
X00403436*
Y00352522*
X00402257*
Y0035339*
X00397787*
Y00354526*
X00402268Y00357581*
X00403436*
Y00354698*
G37*
G36*
X00400171Y00478769D02*
X004006Y0047873D01*
X0040099Y00478672*
X0040138Y00478574*
X00401732Y00478477*
X00402063Y0047836*
X00402375Y00478223*
X00402648Y00478106*
X00402902Y0047797*
X00403117Y00477853*
X00403292Y00477736*
X00403448Y00477638*
X00403585Y00477541*
X00403663Y00477482*
X00403721Y00477443*
X00403741Y00477424*
X00404033Y0047715*
X00404287Y00476838*
X00404502Y00476526*
X00404697Y00476214*
X00404853Y00475902*
X00404989Y0047559*
X00405106Y00475278*
X00405184Y00474985*
X00405262Y00474692*
X00405301Y00474439*
X0040534Y00474205*
X00405379Y0047401*
Y00473854*
X00405399Y00473717*
Y0047362*
X00405379Y00473288*
X0040534Y00472956*
X00405282Y00472664*
X00405204Y00472371*
X00405126Y00472098*
X00405028Y00471844*
X00404911Y0047161*
X00404794Y00471415*
X00404697Y0047122*
X0040458Y00471064*
X00404482Y00470908*
X00404385Y00470791*
X00404326Y00470694*
X00404267Y00470635*
X00404229Y00470596*
X00404209Y00470577*
X0040415Y00470498*
X00404112Y0047044*
X00404092Y0047042*
Y00470401*
X00404131Y00470342*
X00404189Y00470323*
X00404229Y00470303*
X00404248*
X00404404*
X00404541*
X00404755Y00470284*
X00404911*
X00405009*
X00405067*
X00405106*
X00405126*
X00405204Y00470225*
X00405262Y00470128*
X00405301Y00470011*
X00405321Y00469894*
X0040534Y00469757*
X0040536Y0046966*
Y00468314*
X0040534Y00468002*
Y00467475*
X00405321Y0046728*
Y00466948*
X00405301Y00466831*
Y00466675*
X00405282Y00466636*
Y00466577*
X00405243Y0046648*
X00405204Y00466421*
X00405165Y00466402*
X00405145*
X00405087*
X00404989Y00466421*
X00404911Y00466441*
X00404872*
X00404482Y0046648*
X00404014Y00466519*
X00403526Y00466558*
X00403Y00466577*
X00402453Y00466617*
X00401907Y00466636*
X00401361Y00466655*
X00400815*
X00400308Y00466675*
X0039982*
X00399371Y00466695*
X00399001*
X00398688*
X00398552*
X00398435*
X00398357*
X00398298*
X00398259*
X0039824*
X00397225*
X00396738*
X0039627Y00466675*
X00395821*
X00395411Y00466655*
X00395021*
X0039467Y00466636*
X00394338*
X00394065*
X00393812Y00466617*
X00393597*
X00393422Y00466598*
X00393305*
X00393227*
X00393207*
X00392505Y00466558*
X003919Y00466538*
X00391607Y00466519*
X00391354Y004665*
X003911Y0046648*
X00390886Y0046646*
X0039069*
X00390515Y00466441*
X00390359Y00466421*
X00390242*
X00390144*
X00390066Y00466402*
X00390027*
X00390008*
X00389793Y00466382*
X00389618*
X00389481Y00466363*
X00389383*
X00389305Y00466344*
X00389267*
X00389247*
X00389267Y00466324*
X00389247*
Y00466344*
X00389169*
X0038911Y00466382*
X00389032Y00466441*
X00388993Y00466519*
Y00466598*
X00389013Y00466655*
X00389032Y00466773*
X00389052Y00466909*
X00389071Y00467046*
X0038911Y00467221*
X0038915Y00467572*
X00389208Y00467943*
X00389228Y00468099*
X00389247Y00468255*
X00389267Y00468372*
Y0046847*
X00389286Y00468528*
Y00468548*
X00389305Y00468996*
X00389345Y00469406*
X00389364Y00469757*
X00389383Y0047003*
X00389403Y00470264*
Y0047042*
X00389423Y00470518*
Y00470557*
X00389442Y00470615*
X00389501Y00470655*
X00389618Y00470713*
X00389715Y00470732*
X00389754*
X00389774*
X00389949*
X00390144*
X00390554*
X00390983Y00470713*
X00391393*
X00391783*
X00391939Y00470694*
X00392095*
X00392212*
X0039229*
X00392349*
X00392368*
X0039268Y00470674*
X00392973*
X00393246*
X003935Y00470655*
X00393734*
X00393948*
X00394143*
X00394299Y00470635*
X00394455*
X00394592*
X00394709*
X00394807*
X00394865*
X00394924*
X00394943*
X00394963*
X0039506*
X00395119Y00470655*
X00395197Y00470694*
X00395236Y00470732*
Y00470752*
X00395216Y00470811*
X00395158Y00470889*
X00395099Y00470947*
X0039508Y00470967*
X00394885Y00471142*
X00394709Y00471357*
X00394573Y00471552*
X00394455Y00471766*
X0039426Y00472215*
X00394124Y00472644*
X00394046Y00473034*
X00394026Y0047319*
X00394007Y00473327*
X00393987Y00473464*
Y0047362*
X00394007Y00474068*
X00394065Y00474478*
X00394143Y00474868*
X0039426Y00475239*
X00394377Y0047557*
X00394514Y00475882*
X0039467Y00476175*
X00394826Y00476429*
X00395002Y00476663*
X00395138Y00476877*
X00395294Y00477033*
X00395411Y00477189*
X00395528Y00477307*
X00395606Y00477384*
X00395665Y00477424*
X00395684Y00477443*
X00395997Y00477677*
X00396309Y00477892*
X0039664Y00478067*
X00396972Y00478223*
X00397323Y0047836*
X00397655Y00478457*
X00397986Y00478555*
X00398298Y00478613*
X00398591Y00478672*
X00398864Y00478711*
X00399098Y0047875*
X00399313Y00478769*
X00399488Y0047879*
X00399605*
X00399703*
X00399722*
X00400171Y00478769*
G37*
G36*
X00395138Y00464802D02*
X00395177D01*
X00395197*
X00395528Y00464724*
X00395879Y00464646*
X00396601Y00464529*
X00397342Y00464432*
X00397694Y00464393*
X00398025Y00464373*
X00398337Y00464354*
X0039863Y00464334*
X00398903*
X00399118Y00464315*
X00399313*
X00399449*
X00399527*
X00399566*
X00399742*
X00399937*
X00400386*
X00400834*
X00401263*
X00401654Y00464334*
X00401829*
X00401985*
X00402102*
X004022*
X00402258*
X00402278*
X00402609*
X00402902*
X00403195*
X00403448*
X00403702*
X00403916*
X00404112*
X00404287*
X00404463*
X00404599*
X00404697*
X00404794*
X00404872*
X00404931*
X0040495*
X0040497*
X00405067Y00464315*
X00405165Y00464276*
X00405262Y00464159*
X00405321Y00464042*
X0040534Y00464002*
Y00463983*
X0040536Y0046371*
X00405379Y00463437*
Y00463144*
X00405399Y00462871*
Y00461525*
X00405379Y00461252*
Y00460842*
X0040536Y00460706*
Y00460608*
X0040534Y00460472*
X00405301Y00460375*
X00405243Y00460316*
X00405204Y00460257*
X00405087Y00460218*
X00405067*
X00405048*
X00404931*
X00404775*
X00404463Y00460238*
X00404326Y00460257*
X00404209*
X00404131Y00460277*
X00404112*
X00403877Y00460296*
X00403682*
X00403507*
X0040337Y00460316*
X00403253*
X00403175*
X00403136*
X00403117*
X00402922*
X00402687*
X00402434*
X004022*
X00401985Y00460335*
X0040181*
X00401693*
X00401673*
X00401654*
X00401302*
X0040101Y00460355*
X00400756*
X00400542*
X00400386*
X00400269*
X0040019*
X00400171*
X00399859Y00460335*
X00399605Y00460296*
X0039941Y00460257*
X00399254Y00460179*
X00399137Y00460121*
X00399059Y00460082*
X0039902Y00460043*
X00399001Y00460023*
X00398903Y00459867*
X00398825Y00459672*
X00398786Y00459477*
X00398747Y00459262*
X00398727Y00459048*
X00398708Y00458892*
Y0045854*
X00398727Y00458345*
Y00458248*
X00398747Y0045817*
Y00458111*
X00398767Y00457838*
Y00457487*
X00398747Y00457331*
X00398688Y00457214*
X0039863Y00457136*
X00398532Y00457078*
X00398454Y00457038*
X00398396Y00457019*
X00398337*
X00398318*
X0039822*
X00398084*
X00397791*
X00397655Y00457038*
X00397537*
X0039746*
X0039744*
X00397245*
X00397069*
X00396913*
X00396796*
X00396699*
X00396621*
X00396582*
X00396562*
X00396445*
X00396309Y00457019*
X00395997Y00457*
X0039586*
X00395743Y0045698*
X00395665*
X00395645*
X00395431Y0045696*
X00395255Y00456941*
X00395099Y00456921*
X00394963Y00456902*
X00394865*
X00394787*
X00394748*
X00394728*
X00394631Y00456921*
X00394553Y00457*
X00394514Y00457097*
X00394475Y00457214*
X00394455Y00457351*
X00394436Y00457448*
Y00457546*
X00394455Y00457916*
X00394533Y00458287*
X00394631Y00458619*
X00394728Y0045895*
X00394846Y00459223*
X00394943Y00459418*
X00394982Y00459496*
X00395021Y00459555*
X00395041Y00459594*
Y00459613*
X00395138Y0045977*
X00395216Y00459925*
X00395353Y0046016*
X0039545Y00460316*
X00395528Y00460433*
X00395567Y00460491*
X00395606Y0046053*
X00395626Y0046055*
X00395587Y00460608*
X00395489Y00460647*
X00395372Y00460686*
X00395236Y00460706*
X00395119Y00460725*
X00395002Y00460745*
X00394924*
X00394904*
X0039467Y00460764*
X00394494Y00460803*
X00394377Y00460842*
X0039428Y00460881*
X00394241Y0046092*
X00394221Y00460959*
X00394202Y00460979*
Y00461037*
X00394221Y00461096*
X00394241Y00461193*
X0039426Y0046131*
X0039428Y00461447*
X00394319Y00461603*
X00394377Y00461954*
X00394436Y00462286*
X00394475Y00462442*
X00394494Y00462578*
X00394514Y00462676*
X00394533Y00462774*
X00394553Y00462832*
Y00462852*
X00394612Y00463261*
X0039467Y00463632*
X00394728Y00463944*
X00394767Y00464198*
X00394787Y00464393*
X00394807Y00464549*
X00394826Y00464627*
Y00464666*
X00394885Y00464763*
X00394943Y00464802*
X00395021Y00464822*
X00395041*
X00395138Y00464802*
G37*
G36*
X00394982Y00455614D02*
X00395041D01*
X0039508*
X0039545Y00455575*
X0039584Y00455536*
X00396679Y00455458*
X00397518Y00455419*
X00397928Y004554*
X00398337*
X00398708Y0045538*
X00399059*
X00399371Y00455361*
X00399644*
X00399859*
X00400035*
X00400132*
X00400171*
X00400503*
X00400873*
X00401263Y0045538*
X00401634*
X00401985*
X00402141Y004554*
X00402278*
X00402375*
X00402453*
X00402512*
X00402531*
X00403078*
X00403546Y00455419*
X00403955*
X00404287*
X00404541*
X00404716*
X00404833*
X00404872*
X0040497*
X00405048*
X00405145Y004554*
X00405184*
X00405204*
X00405262Y00455322*
X00405301Y00455224*
X00405321Y00455146*
X0040534Y00455107*
Y00455029*
X0040536Y00454912*
X00405379Y00454678*
Y00454385*
X00405399Y00454093*
Y00452708*
X00405379Y00452532*
Y0045222*
X0040536Y00452006*
Y0045183*
X0040534Y00451713*
Y00451635*
X00405301Y00451537*
X00405262Y00451479*
X00405165Y00451401*
X00405087Y00451362*
X00405048*
X00404716*
X00404326*
X00403936Y00451381*
X00403546*
X00403175*
X00403019Y00451401*
X00402902*
X00402785*
X00402707*
X00402648*
X00402629*
X00402044Y0045142*
X00401556*
X00401127*
X00400776Y0045144*
X00400522*
X00400327*
X0040021*
X00400171*
X00399625*
X00399118Y0045142*
X0039863*
X00398142Y00451401*
X00397694Y00451381*
X00397284Y00451362*
X00396894Y00451323*
X00396543Y00451303*
X00396211Y00451284*
X00395918Y00451245*
X00395665Y00451225*
X0039547Y00451206*
X00395294Y00451186*
X00395177*
X00395099Y00451167*
X0039508*
X00394963Y00451147*
X00394904*
X00394865*
X00394787Y00451167*
X00394728Y00451186*
X0039465Y00451284*
X00394631Y00451401*
Y00451733*
X0039465Y00452045*
X0039467Y00452181*
Y00452298*
X0039469Y00452376*
Y00452415*
X00394709Y00452649*
X00394728Y00452844*
Y00453001*
X00394748Y00453137*
Y00453527*
X00394728Y00453683*
X00394709Y00453995*
Y00454152*
X0039469Y00454268*
Y00454366*
X0039467Y004546*
X0039465Y00454795*
X00394631Y00454951*
X00394612Y00455088*
Y00455419*
X0039465Y00455497*
X0039469Y00455556*
X00394728Y00455595*
X00394807Y00455634*
X00394826*
X00394846*
X00394904*
X00394982Y00455614*
G37*
G36*
X00392134Y00455536D02*
X00392427Y00455458D01*
X00392661Y00455361*
X00392875Y00455224*
X00393051Y00455107*
X00393168Y0045499*
X00393246Y00454912*
X00393265Y00454893*
X00393422Y0045466*
X00393539Y00454385*
X00393636Y00454132*
X00393695Y00453878*
X00393734Y00453664*
X00393753Y00453488*
Y00453332*
X00393734Y00452942*
X00393675Y0045261*
X00393578Y00452318*
X00393441Y00452064*
X00393305Y0045185*
X00393129Y00451674*
X00392953Y00451518*
X00392778Y00451401*
X00392602Y00451303*
X00392427Y00451245*
X00392251Y00451186*
X00392115Y00451167*
X00391978Y00451147*
X0039188Y00451128*
X00391822*
X00391802*
X0039149Y00451147*
X00391198Y00451225*
X00390964Y00451342*
X00390749Y00451459*
X00390593Y00451596*
X00390456Y00451693*
X00390378Y00451771*
X00390359Y0045181*
X00390183Y00452064*
X00390047Y00452318*
X00389949Y00452591*
X00389871Y00452825*
X00389832Y0045302*
X00389813Y00453196*
Y00453332*
X00389832Y00453664*
X00389891Y00453956*
X00389988Y0045421*
X00390066Y00454444*
X00390164Y0045462*
X00390261Y00454756*
X0039032Y00454834*
X00390339Y00454873*
X00390573Y00455107*
X00390808Y00455283*
X00391042Y004554*
X00391276Y00455478*
X0039149Y00455536*
X00391646Y00455556*
X00391763Y00455575*
X00391783*
X00391802*
X00392134Y00455536*
G37*
G36*
X00398084Y00449665D02*
X00398552Y00449645D01*
X00398942Y00449606*
X00399274Y00449548*
X00399527Y00449489*
X00399703Y0044945*
X0039982Y00449431*
X00399859Y00449411*
X00400015Y00449353*
X0040019Y00449255*
X004006Y0044904*
X00401029Y00448787*
X00401478Y00448514*
X00401888Y00448241*
X00402083Y00448124*
X00402239Y00448026*
X00402356Y00447929*
X00402473Y0044787*
X00402531Y00447831*
X00402551Y00447812*
X00402882Y00447578*
X00403175Y00447363*
X00403448Y00447168*
X00403702Y00446973*
X00403936Y00446797*
X0040415Y00446641*
X00404326Y00446485*
X00404502Y00446368*
X00404638Y00446251*
X00404775Y00446134*
X00404872Y00446056*
X0040495Y00445978*
X00405067Y004459*
X00405106Y00445861*
X00405204Y00445744*
X00405262Y00445627*
X00405301Y00445529*
X00405321Y0044549*
X0040534Y00445412*
Y00445315*
X0040536Y00445061*
X00405379Y00444788*
Y00444495*
X00405399Y00444242*
Y00443539*
X00405379Y00443305*
X0040536Y00443091*
X0040534Y00442915*
X00405321Y0044274*
X00405282Y00442603*
X00405262Y00442486*
X00405223Y00442369*
X00405165Y00442214*
X00405106Y00442116*
X00405067Y00442076*
X00405048Y00442057*
X00404677Y00441745*
X00404267Y00441413*
X00403838Y00441082*
X00403429Y00440769*
X00403058Y00440516*
X00402902Y00440399*
X00402765Y00440301*
X00402648Y00440223*
X0040257Y00440165*
X00402512Y00440126*
X00402492Y00440106*
X00402141Y00439872*
X00401829Y00439677*
X00401537Y00439482*
X00401263Y00439326*
X0040101Y0043917*
X00400795Y00439053*
X004006Y00438936*
X00400425Y00438858*
X00400269Y0043878*
X00400132Y00438721*
X00400015Y00438663*
X00399937Y00438624*
X00399859Y00438604*
X0039982Y00438585*
X00399781Y00438565*
X00399703Y00438546*
X00399566Y00438526*
X0039943Y00438507*
X00399274Y00438487*
X00398884Y00438468*
X00398493*
X00398103Y00438448*
X00397947*
X00397791*
X00397655*
X00397557*
X00397499*
X00397479*
X00397129*
X00396816*
X00396523Y00438468*
X0039625*
X00396016Y00438487*
X00395801Y00438507*
X00395606Y00438526*
X0039545*
X00395314Y00438546*
X00395197Y00438565*
X00395099Y00438585*
X00395021Y00438604*
X00394924Y00438624*
X00394885*
X00394787Y00438663*
X00394709Y00438721*
X0039467Y0043878*
X00394631Y00438858*
X00394592Y00438975*
Y00439248*
X00394612Y00439521*
Y00439638*
X00394631Y00439736*
Y00439833*
X0039465Y00440028*
Y0044034*
X0039467Y00440438*
Y00441628*
X0039465Y00441803*
Y00442252*
X0039467Y0044233*
X00394709Y00442389*
X00394826Y00442468*
X00394943Y00442506*
X00394982*
X00395002*
X00395138*
X00395294Y00442486*
X00395606Y00442468*
X00395743Y00442447*
X0039586*
X00395938Y00442428*
X00395977*
X00396211Y00442408*
X00396406Y00442389*
X00396582Y00442369*
X00396718Y0044235*
X00396835*
X00396913*
X00396952*
X00396972*
X00397383*
X00397752Y00442369*
X00398084Y00442389*
X00398357*
X00398591Y00442408*
X00398767Y00442428*
X00398864Y00442447*
X00398903*
X00399059Y00442486*
X00399274Y00442564*
X00399508Y00442681*
X00399742Y00442798*
X00399956Y00442896*
X00400132Y00442993*
X00400249Y00443071*
X00400269Y00443091*
X00400288*
X00400483Y00443208*
X00400659Y00443305*
X00400795Y00443403*
X00400932Y00443481*
X00401029Y00443559*
X00401127Y00443637*
X00401263Y00443774*
X00401342Y00443871*
X0040138Y0044393*
X004014Y00443969*
Y00443988*
X0040138Y00444047*
X00401342Y00444105*
X00401302Y00444183*
X00401224Y00444261*
X00401049Y00444417*
X00400834Y00444573*
X0040062Y0044471*
X00400444Y00444827*
X00400366Y00444866*
X00400308Y00444905*
X00400288Y00444924*
X00400269*
X00399917Y0044512*
X00399605Y00445276*
X00399352Y00445393*
X00399157Y0044549*
X00399001Y00445529*
X00398903Y00445568*
X00398844Y00445588*
X00398825*
X00398532Y00445607*
X0039822*
X00397908*
X00397596Y00445627*
X00397323*
X00397108*
X0039703*
X00396972*
X00396933*
X00396913*
X00396777*
X00396621*
X00396309Y00445607*
X00396172*
X00396055*
X00395977*
X00395958*
X00395723Y00445588*
X00395528*
X00395372Y00445568*
X00395236*
X00395138*
X0039506*
X00395021*
X00395002*
X00394885Y00445588*
X00394807Y00445607*
X00394728Y00445646*
X0039469Y00445685*
X0039465Y00445783*
Y00446622*
X00394631Y00446895*
Y00447538*
X00394612Y00447948*
Y00448299*
X00394592Y00448592*
Y00449275*
X00394612Y00449411*
X00394631Y00449509*
X0039469Y00449567*
X00394728Y00449606*
X00394846Y00449665*
X00394865*
X00394885*
X0039508*
X00395275*
X00395509*
X00395723*
X00395918Y00449684*
X00396075*
X00396192*
X00396211*
X00396231*
X00396543*
X00396796*
X0039703*
X00397206*
X00397362*
X0039746*
X00397518*
X00397537*
X00398084Y00449665*
G37*
G36*
X00400074Y00437161D02*
X00400522Y00437102D01*
X00400971Y00437024*
X0040138Y00436907*
X00401751Y0043679*
X00402102Y00436634*
X00402434Y00436497*
X00402707Y00436322*
X0040298Y00436166*
X00403214Y0043601*
X00403409Y00435873*
X00403565Y00435756*
X00403682Y00435639*
X0040378Y00435561*
X00403838Y00435503*
X00403858Y00435483*
X00404131Y00435171*
X00404365Y00434839*
X0040458Y00434488*
X00404755Y00434117*
X00404892Y00433766*
X00405028Y00433415*
X00405126Y00433064*
X00405204Y00432713*
X00405262Y00432401*
X00405321Y00432108*
X0040536Y00431855*
X00405379Y00431621*
Y00431426*
X00405399Y00431289*
Y00431172*
X00405379Y00430645*
X0040534Y00430158*
X00405262Y00429689*
X00405165Y0042928*
X00405048Y0042889*
X00404931Y00428539*
X00404794Y00428226*
X00404658Y00427953*
X00404521Y004277*
X00404385Y00427485*
X00404267Y00427309*
X0040415Y00427153*
X00404053Y00427036*
X00403975Y00426958*
X00403936Y00426919*
X00403916Y004269*
X00403819Y00426783*
X00403721Y00426724*
X00403682Y00426705*
X00403663*
X00403526Y00426724*
X00403352Y00426783*
X00403136Y0042688*
X00402902Y00426978*
X00402687Y00427095*
X00402512Y00427173*
X00402395Y00427251*
X00402375Y0042727*
X00402356*
X00402161Y00427368*
X00402005Y00427466*
X00401849Y00427563*
X00401732Y00427641*
X00401537Y00427778*
X0040138Y00427875*
X00401283Y00427973*
X00401244Y00428031*
X00401205Y00428051*
Y0042807*
X004014Y00428382*
X00401575Y00428656*
X00401654Y00428772*
X00401712Y00428851*
X00401732Y00428909*
X00401751Y00428929*
X00401927Y00429299*
X00402063Y0042967*
X00402161Y00430022*
X00402219Y00430314*
X00402258Y00430587*
X00402297Y00430782*
Y00430957*
X00402278Y0043125*
X00402239Y00431543*
X004022Y00431777*
X00402122Y00432011*
X00402063Y00432186*
X00402024Y00432323*
X00401985Y00432401*
X00401966Y0043244*
X0040181Y00432713*
X00401634Y00432928*
X00401459Y00433084*
X00401263Y00433201*
X00401107Y00433298*
X00400971Y00433337*
X00400893Y00433376*
X00400854*
X00400815Y00432889*
X00400776Y0043244*
X00400737Y0043203*
X00400717Y0043164*
X00400678Y00431289*
X00400639Y00430957*
X0040062Y00430665*
X004006Y00430411*
X00400581Y00430177*
X00400561Y00429982*
X00400542Y00429806*
X00400522Y0042967*
Y00429553*
X00400503Y00429475*
Y00429416*
X00400464Y00429026*
X00400425Y00428694*
X00400405Y00428382*
X00400366Y00428129*
X00400347Y00427914*
X00400327Y00427719*
Y00427563*
X00400308Y00427426*
X00400288Y00427329*
Y00427192*
X00400269Y00427153*
Y00427095*
X00400229Y00426958*
X00400171Y00426841*
X00399995Y00426666*
X00399781Y00426529*
X00399547Y00426451*
X00399332Y00426393*
X00399137Y00426373*
X00399059Y00426354*
X00399001*
X00398981*
X00398962*
X00398552Y00426373*
X00398181Y00426412*
X00397811Y0042649*
X0039746Y00426588*
X00397129Y00426705*
X00396816Y00426841*
X00396523Y00426978*
X0039625Y00427114*
X00396016Y00427251*
X00395821Y00427387*
X00395626Y00427524*
X0039547Y00427641*
X00395353Y00427739*
X00395275Y00427817*
X00395216Y00427856*
X00395197Y00427875*
X00394924Y00428168*
X0039467Y0042846*
X00394455Y00428772*
X0039428Y00429085*
X00394124Y00429397*
X00394007Y00429689*
X0039389Y00429982*
X00393812Y00430276*
X00393753Y00430528*
X00393695Y00430782*
X00393656Y00430996*
X00393636Y00431172*
Y00431328*
X00393617Y00431445*
Y00431543*
X00393636Y00432011*
X00393695Y00432459*
X00393773Y00432889*
X0039389Y00433279*
X00394007Y00433649*
X00394163Y00433981*
X00394319Y00434293*
X00394475Y00434566*
X00394631Y0043482*
X00394787Y00435054*
X00394943Y00435229*
X0039506Y00435386*
X00395177Y00435522*
X00395255Y004356*
X00395314Y00435659*
X00395333Y00435678*
X00395645Y00435951*
X00395997Y00436166*
X00396348Y0043638*
X00396699Y00436536*
X0039705Y00436692*
X00397401Y00436809*
X00397752Y00436907*
X00398084Y00436985*
X00398396Y00437063*
X00398669Y00437102*
X00398942Y00437141*
X00399157Y00437161*
X00399332*
X00399469Y0043718*
X00399547*
X00399586*
X00400074Y00437161*
G37*
G36*
X00395138Y00425008D02*
X00395177D01*
X00395197*
X00395528Y0042493*
X00395879Y00424852*
X00396601Y00424734*
X00397342Y00424637*
X00397694Y00424598*
X00398025Y00424579*
X00398337Y00424559*
X0039863Y00424539*
X00398903*
X00399118Y0042452*
X00399313*
X00399449*
X00399527*
X00399566*
X00399742*
X00399937*
X00400386*
X00400834*
X00401263*
X00401654Y00424539*
X00401829*
X00401985*
X00402102*
X004022*
X00402258*
X00402278*
X00402609*
X00402902*
X00403195*
X00403448*
X00403702*
X00403916*
X00404112*
X00404287*
X00404463*
X00404599*
X00404697*
X00404794*
X00404872*
X00404931*
X0040495*
X0040497*
X00405067Y0042452*
X00405165Y00424481*
X00405262Y00424364*
X00405321Y00424247*
X0040534Y00424208*
Y00424188*
X0040536Y00423915*
X00405379Y00423642*
Y00423349*
X00405399Y00423076*
Y0042173*
X00405379Y00421457*
Y00421048*
X0040536Y00420911*
Y00420814*
X0040534Y00420677*
X00405301Y00420579*
X00405243Y00420521*
X00405204Y00420462*
X00405087Y00420423*
X00405067*
X00405048*
X00404931*
X00404775*
X00404463Y00420443*
X00404326Y00420462*
X00404209*
X00404131Y00420482*
X00404112*
X00403877Y00420502*
X00403682*
X00403507*
X0040337Y00420521*
X00403253*
X00403175*
X00403136*
X00403117*
X00402922*
X00402687*
X00402434*
X004022*
X00401985Y0042054*
X0040181*
X00401693*
X00401673*
X00401654*
X00401302*
X0040101Y0042056*
X00400756*
X00400542*
X00400386*
X00400269*
X0040019*
X00400171*
X00399859Y0042054*
X00399605Y00420502*
X0039941Y00420462*
X00399254Y00420384*
X00399137Y00420326*
X00399059Y00420287*
X0039902Y00420248*
X00399001Y00420228*
X00398903Y00420072*
X00398825Y00419877*
X00398786Y00419682*
X00398747Y00419468*
X00398727Y00419253*
X00398708Y00419097*
Y00418746*
X00398727Y00418551*
Y00418453*
X00398747Y00418375*
Y00418317*
X00398767Y00418044*
Y00417692*
X00398747Y00417536*
X00398688Y00417419*
X0039863Y00417341*
X00398532Y00417283*
X00398454Y00417244*
X00398396Y00417224*
X00398337*
X00398318*
X0039822*
X00398084*
X00397791*
X00397655Y00417244*
X00397537*
X0039746*
X0039744*
X00397245*
X00397069*
X00396913*
X00396796*
X00396699*
X00396621*
X00396582*
X00396562*
X00396445*
X00396309Y00417224*
X00395997Y00417205*
X0039586*
X00395743Y00417185*
X00395665*
X00395645*
X00395431Y00417166*
X00395255Y00417146*
X00395099Y00417127*
X00394963Y00417107*
X00394865*
X00394787*
X00394748*
X00394728*
X00394631Y00417127*
X00394553Y00417205*
X00394514Y00417302*
X00394475Y00417419*
X00394455Y00417556*
X00394436Y00417653*
Y00417751*
X00394455Y00418122*
X00394533Y00418492*
X00394631Y00418824*
X00394728Y00419155*
X00394846Y00419429*
X00394943Y00419624*
X00394982Y00419702*
X00395021Y0041976*
X00395041Y00419799*
Y00419819*
X00395138Y00419975*
X00395216Y00420131*
X00395353Y00420365*
X0039545Y00420521*
X00395528Y00420638*
X00395567Y00420697*
X00395606Y00420736*
X00395626Y00420755*
X00395587Y00420814*
X00395489Y00420853*
X00395372Y00420892*
X00395236Y00420911*
X00395119Y00420931*
X00395002Y0042095*
X00394924*
X00394904*
X0039467Y0042097*
X00394494Y00421009*
X00394377Y00421048*
X0039428Y00421087*
X00394241Y00421126*
X00394221Y00421165*
X00394202Y00421184*
Y00421243*
X00394221Y00421301*
X00394241Y00421399*
X0039426Y00421516*
X0039428Y00421652*
X00394319Y00421809*
X00394377Y0042216*
X00394436Y00422491*
X00394475Y00422647*
X00394494Y00422784*
X00394514Y00422881*
X00394533Y00422979*
X00394553Y00423037*
Y00423057*
X00394612Y00423467*
X0039467Y00423837*
X00394728Y00424149*
X00394767Y00424403*
X00394787Y00424598*
X00394807Y00424754*
X00394826Y00424832*
Y00424871*
X00394885Y00424969*
X00394943Y00425008*
X00395021Y00425027*
X00395041*
X00395138Y00425008*
G37*
G36*
X00371812Y00494D02*
X00372222D01*
X00372574Y0049397*
X00372896*
X0037316Y00493941*
X00373423*
X00373657*
X00373833Y00493912*
X00373979*
X00374126Y00493883*
X00374214*
X00374243*
X00374272*
X0037436Y00493853*
X00374419Y00493795*
X00374477Y00493619*
X00374507Y00493443*
Y00493004*
X00374477Y00492828*
Y00492623*
X00374507Y00492389*
X00374565Y00492242*
X00374624Y00492125*
X00374712Y00492037*
X00374829Y00491979*
X00374887Y0049195*
X00374946*
X00374975*
X00384318*
X00384493Y0049192*
X00384669Y00491862*
X00384786Y00491774*
X00384874Y00491657*
X00384962Y00491481*
X00384991Y00491422*
Y00491276*
X0038502Y0049113*
X0038505Y00490749*
Y00490339*
X00385079Y00489929*
Y00487205*
X0038505Y00486971*
Y00486297*
X0038502Y00486092*
Y00485975*
X00384991Y00485829*
X00384962Y00485712*
X00384874Y00485653*
X00384815Y00485595*
X00384698Y00485536*
X0038464*
X00384142*
X00383615*
X00383058Y00485565*
X00382502*
X00382033Y00485595*
X00381799*
X00381623*
X00381477Y00485624*
X0038136*
X00381301*
X00381272*
X00380833Y00485653*
X00380452Y00485682*
X00380071*
X00379749Y00485712*
X00379427Y00485741*
X00379163*
X00378695Y0048577*
X00378343*
X00378109Y004858*
X00377962*
X00377904*
X00377113Y00485829*
X0037641*
X00375795Y00485858*
X00375297Y00485887*
X00374887*
X00374594Y00485917*
X00374419*
X0037436*
X00374389Y00485477*
X00374419Y00485009*
X00374448Y0048454*
Y00484072*
X00374477Y00483662*
Y00483017*
X00374448Y00482871*
X00374419Y00482754*
X0037436Y00482695*
X00374272Y00482637*
X00374126Y00482578*
X00374097*
X00374067*
X00373774*
X00373423*
X00373042*
X00372632*
X00372252*
X00371959*
X00371842*
X00371754*
X00371695*
X00371666*
X00371109Y00482607*
X00370641*
X00370231*
X00369879Y00482637*
X00369616*
X0036944*
X00369323*
X00369294*
X00369177Y00482666*
X0036906Y00482724*
X00368972Y00482871*
X00368913Y00483047*
Y00484042*
X00368942Y00484277*
Y0048498*
X00368972Y00485272*
Y00486092*
X00368591Y00486151*
X00368269Y0048618*
X00368122Y0048621*
X00368005*
X00367947*
X00367917*
X00367302Y0048618*
X00366804Y00486122*
X00366395Y00486034*
X00366072Y00485917*
X00365838Y004858*
X00365662Y00485712*
X00365574Y00485653*
X00365545Y00485624*
X00365428Y00485448*
X00365311Y00485214*
X00365223Y0048495*
X00365164Y00484657*
X00365106Y00484365*
X00365077Y0048413*
X00365047Y00483984*
Y00483925*
X00364989Y00483515*
X00364901Y00483222*
X00364813Y00483017*
X00364725Y00482871*
X00364637Y00482783*
X00364579Y00482754*
X00364549Y00482724*
X0036452*
X00364227Y00482754*
X00363876Y00482783*
X00363759Y00482812*
X00363642Y00482842*
X00363554Y00482871*
X00363524*
X00363261Y00482929*
X00363056Y00482988*
X00362909Y00483017*
X00362792Y00483047*
X00362704Y00483076*
X00362646*
X00362616*
X0036206Y00483164*
X00361562Y00483252*
X00361182Y00483339*
X00360859Y00483398*
X00360625Y00483427*
X00360449Y00483457*
X00360361Y00483486*
X00360332*
X00360215Y00483574*
X00360156Y0048372*
X00360127Y00483837*
Y00483896*
X00360156Y00484804*
X00360244Y00485653*
X00360361Y00486444*
X00360537Y00487147*
X00360742Y0048782*
X00360947Y00488406*
X00361211Y00488933*
X00361445Y00489402*
X00361679Y00489841*
X00361914Y00490192*
X00362148Y00490485*
X00362353Y0049072*
X00362529Y00490925*
X00362646Y00491042*
X00362734Y0049113*
X00362763Y00491159*
X00363026Y00491364*
X00363319Y0049154*
X00363993Y00491832*
X00364696Y00492008*
X00365399Y00492155*
X00366014Y00492242*
X00366306Y00492272*
X00366541*
X00366746Y00492301*
X00366892*
X0036698*
X00367009*
X00367332*
X00367654Y00492272*
X00368005*
X00368357Y00492242*
X00368649*
X00368884Y00492213*
X0036906*
X00369089*
X00369118*
X00369147Y00492653*
X00369177Y00493033*
Y0049318*
X00369206Y00493297*
Y00493385*
X00369265Y0049359*
X00369382Y00493765*
X00369499Y00493883*
X00369616Y00493941*
X00369762Y00494*
X0036985Y0049403*
X00369938*
X00369967*
X00370465*
X00370963*
X00371402*
X00371812Y00494*
G37*
G36*
X00361738Y00480762D02*
X00361796Y00480733D01*
X00361826*
X0036288Y00480616*
X00363993Y00480528*
X00365047Y00480441*
X00365574Y00480411*
X00366072Y00480382*
X00366541*
X00366951Y00480352*
X00367332*
X00367654Y00480323*
X00367917*
X00368093*
X00368239*
X00368269*
X00374741Y00480352*
X00375034*
X00375356*
X00376088*
X0037682*
X00377552*
X00377904Y00480382*
X00378226*
X00378519*
X00378753*
X00378958*
X00379105*
X00379222*
X00379251*
X00379808*
X00380305*
X00380803*
X00381243*
X00381653*
X00382004*
X00382355*
X00382648*
X00382912*
X00383146*
X00383351*
X00383497*
X00383615*
X00383732*
X00383761*
X0038379*
X00384493*
X0038461Y00480352*
X00384728Y00480323*
X00384874Y00480177*
X00384933Y0048006*
X00384962Y00480001*
X00384991Y00479884*
Y00479737*
X0038502Y00479357*
X0038505Y00478917*
Y00478478*
X00385079Y00478068*
Y00476692*
X0038505Y00476135*
Y00475637*
X0038502Y00475256*
X00384991Y00474993*
Y00474788*
X00384962Y00474671*
Y00474641*
X00384903Y00474495*
X00384845Y00474407*
X00384698Y0047429*
X00384581Y00474231*
X00384523*
X00384318*
X00384113*
X00383673*
X00383468Y00474261*
X00383322*
X00383205*
X00383175*
X00382853Y0047429*
X0038259Y00474319*
X00382355*
X0038218Y00474349*
X00382033*
X00381945*
X00381887*
X00381857*
X0038136*
X00380833*
X00380276*
X0037972Y00474378*
X00378519*
X00377377*
X0037685*
X00376352*
X00375883*
X00375502*
X0037518*
X00374946*
X00374799*
X00374741*
X00373687*
X00372574Y00474349*
X00370348Y0047429*
X00369265Y00474261*
X00368181Y00474231*
X00367157Y00474173*
X00366189Y00474144*
X00365282Y00474085*
X00364432Y00474056*
X003637Y00474026*
X00363349Y00473997*
X00363056Y00473968*
X00362792*
X00362529Y00473939*
X00362324*
X00362148*
X00362001Y00473909*
X00361914*
X00361855*
X00361826*
X00361562*
X00361445*
X00361328Y00473968*
X0036124Y00474085*
X00361182Y00474231*
Y00480352*
X00361211Y00480499*
X0036124Y00480616*
X00361299Y00480675*
X00361357Y00480733*
X00361504Y00480792*
X00361533*
X00361562*
X0036165*
X00361738Y00480762*
G37*
G36*
X00377084Y00471742D02*
X00377757Y00471654D01*
X00378431Y00471537*
X00379046Y00471361*
X00379603Y00471186*
X0038013Y00470951*
X00380628Y00470746*
X00381038Y00470483*
X00381448Y00470249*
X00381799Y00470014*
X00382092Y00469809*
X00382326Y00469634*
X00382502Y00469458*
X00382648Y00469341*
X00382736Y00469253*
X00382765Y00469224*
X00383175Y00468755*
X00383527Y00468257*
X00383849Y0046773*
X00384113Y00467174*
X00384318Y00466646*
X00384523Y00466119*
X00384669Y00465592*
X00384786Y00465065*
X00384874Y00464596*
X00384962Y00464157*
X0038502Y00463776*
X0038505Y00463425*
Y00463132*
X00385079Y00462927*
Y00462751*
X0038505Y00461961*
X00384991Y00461229*
X00384874Y00460526*
X00384728Y00459911*
X00384552Y00459325*
X00384376Y00458798*
X00384171Y00458329*
X00383966Y00457919*
X00383761Y00457538*
X00383556Y00457216*
X0038338Y00456953*
X00383205Y00456718*
X00383058Y00456543*
X00382941Y00456426*
X00382882Y00456367*
X00382853Y00456338*
X00382707Y00456162*
X0038256Y00456074*
X00382502Y00456045*
X00382472*
X00382267Y00456074*
X00382004Y00456162*
X00381682Y00456308*
X0038133Y00456455*
X00381008Y00456631*
X00380746Y00456748*
X00380569Y00456865*
X0038054Y00456894*
X0038051*
X00380218Y00457041*
X00379984Y00457187*
X00379749Y00457333*
X00379573Y00457451*
X0037928Y00457656*
X00379046Y00457802*
X003789Y00457948*
X00378841Y00458036*
X00378782Y00458065*
Y00458095*
X00379075Y00458563*
X00379339Y00458973*
X00379456Y00459149*
X00379544Y00459266*
X00379573Y00459354*
X00379603Y00459383*
X00379866Y0045994*
X00380071Y00460496*
X00380218Y00461024*
X00380305Y00461463*
X00380365Y00461873*
X00380423Y00462166*
Y00462429*
X00380393Y00462868*
X00380335Y00463308*
X00380276Y00463659*
X00380159Y00464011*
X00380071Y00464274*
X00380013Y00464479*
X00379954Y00464596*
X00379925Y00464655*
X0037969Y00465065*
X00379427Y00465387*
X00379163Y00465621*
X0037887Y00465797*
X00378636Y00465944*
X00378431Y00466002*
X00378314Y00466061*
X00378255*
X00378197Y00465329*
X00378138Y00464655*
X0037808Y0046404*
X0037805Y00463454*
X00377992Y00462927*
X00377933Y00462429*
X00377904Y0046199*
X00377875Y00461609*
X00377845Y00461258*
X00377816Y00460965*
X00377787Y00460701*
X00377757Y00460496*
Y00460321*
X00377728Y00460203*
Y00460116*
X0037767Y0045953*
X00377611Y00459032*
X00377582Y00458563*
X00377523Y00458183*
X00377494Y00457861*
X00377465Y00457568*
Y00457333*
X00377435Y00457128*
X00377406Y00456982*
Y00456777*
X00377377Y00456718*
Y00456631*
X00377318Y00456426*
X0037723Y0045625*
X00376967Y00455986*
X00376645Y00455781*
X00376293Y00455664*
X00375971Y00455576*
X00375678Y00455547*
X00375561Y00455518*
X00375473*
X00375444*
X00375415*
X00374799Y00455547*
X00374243Y00455605*
X00373687Y00455723*
X0037316Y00455869*
X00372662Y00456045*
X00372193Y0045625*
X00371754Y00456455*
X00371344Y0045666*
X00370992Y00456865*
X00370699Y0045707*
X00370407Y00457275*
X00370172Y00457451*
X00369997Y00457597*
X00369879Y00457714*
X00369792Y00457773*
X00369762Y00457802*
X00369352Y00458241*
X00368972Y00458681*
X00368649Y00459149*
X00368386Y00459618*
X00368152Y00460086*
X00367976Y00460526*
X003678Y00460965*
X00367683Y00461404*
X00367595Y00461785*
X00367507Y00462166*
X00367449Y00462488*
X00367419Y00462751*
Y00462986*
X0036739Y00463161*
Y00463308*
X00367419Y00464011*
X00367507Y00464684*
X00367624Y00465329*
X003678Y00465914*
X00367976Y00466471*
X0036821Y00466969*
X00368444Y00467437*
X00368679Y00467847*
X00368913Y00468228*
X00369147Y00468579*
X00369382Y00468843*
X00369557Y00469077*
X00369733Y00469282*
X0036985Y00469399*
X00369938Y00469487*
X00369967Y00469517*
X00370436Y00469926*
X00370963Y00470249*
X0037149Y00470571*
X00372017Y00470805*
X00372545Y00471039*
X00373072Y00471215*
X00373599Y00471361*
X00374097Y00471479*
X00374565Y00471596*
X00374975Y00471654*
X00375385Y00471713*
X00375707Y00471742*
X00375971*
X00376176Y00471771*
X00376293*
X00376352*
X00377084Y00471742*
G37*
G36*
X00384581Y00453526D02*
X00384698Y00453438D01*
X00384757Y00453321*
X00384845Y00453146*
X00384874Y00452941*
X00384933Y00452706*
X00384991Y00452208*
X0038505Y0045174*
Y00451505*
X00385079Y004513*
Y00450451*
X0038505Y0045007*
Y00449748*
X0038502Y00449485*
X00384991Y00449309*
Y00449163*
X00384962Y00449075*
Y00449045*
X00384874Y00448753*
X00384728Y00448548*
X0038461Y0044843*
X00384552Y00448401*
X00384025Y00447991*
X00383556Y0044761*
X00383146Y00447288*
X00382765Y00446995*
X00382443Y00446732*
X0038215Y00446497*
X00381916Y00446322*
X00381711Y00446146*
X00381535Y00446*
X00381418Y00445912*
X00381213Y00445736*
X00381125Y00445677*
X00381096Y00445648*
X00381916Y00445063*
X00382619Y00444535*
X00383234Y00444125*
X00383732Y00443774*
X00384113Y00443481*
X00384405Y00443276*
X00384581Y00443159*
X0038461Y0044313*
X0038464*
X00384786Y00442837*
X00384903Y00442632*
X00384962Y00442515*
Y00442485*
X00384991Y00442163*
X0038502Y00441841*
X0038505Y0044149*
Y00441167*
X00385079Y00440904*
Y00440084*
X0038505Y00439703*
Y00439322*
X0038502Y00439029*
X00384991Y00438766*
Y00438561*
X00384962Y00438444*
Y00438385*
X00384903Y0043818*
X00384874Y00438063*
X00384815Y00437975*
Y00437946*
X00384728Y00437858*
X0038461Y00437829*
X00384523Y00437799*
X00384493*
X00381506*
X00381389*
X00381301Y00437858*
X00381096Y00437946*
X0038095Y00438063*
X0038092Y00438092*
X00380891Y00438122*
X00380393Y0043859*
X00379925Y00439*
X00379515Y0043941*
X00379105Y00439791*
X00378753Y00440113*
X00378402Y00440436*
X00378109Y00440728*
X00377845Y00440962*
X00377582Y00441198*
X00377377Y00441402*
X00377201Y00441548*
X00377084Y00441695*
X00376967Y00441782*
X00376879Y0044187*
X0037685Y004419*
X0037682Y00441929*
X00376322Y0044146*
X00375883Y0044105*
X00375473Y0044064*
X00375063Y0044026*
X00374712Y00439937*
X00374389Y00439615*
X00374097Y00439322*
X00373833Y00439088*
X00373599Y00438854*
X00373394Y00438649*
X00373218Y00438502*
X00373072Y00438356*
X00372984Y00438268*
X00372896Y0043818*
X00372837Y00438122*
X0037275Y00438004*
X00372662Y00437946*
X00372457Y00437829*
X0037234Y00437799*
X00372281*
X00369294*
X00369147Y00437829*
X0036903Y00437887*
X00368972Y00438004*
X00368913Y00438092*
X00368854Y00438327*
Y00439029*
X00368884Y0043941*
Y00440055*
X00368913Y00440318*
Y00440552*
X00368942Y0044105*
Y00441841*
X00368972Y00442134*
Y00442778*
X0036903Y00442895*
X00369118Y004431*
X00369235Y00443217*
X00369265Y00443276*
X00369294*
X00369821Y00443627*
X00370348Y00444038*
X00370875Y00444448*
X00371373Y00444828*
X00371812Y0044518*
X00371988Y00445326*
X00372135Y00445443*
X00372281Y0044556*
X00372369Y00445648*
X00372427Y00445677*
X00372457Y00445707*
X00371783Y00446292*
X00371168Y0044682*
X00370612Y00447259*
X00370172Y0044761*
X00369792Y00447903*
X00369528Y00448108*
X00369352Y00448255*
X00369294Y00448284*
X00369177Y00448401*
X00369089Y00448518*
X00368972Y00448723*
X00368942Y0044887*
Y00449865*
X00368913Y00450188*
Y00450949*
X00368884Y00451418*
Y00451828*
X00368854Y00452179*
Y0045297*
X00368884Y00453175*
X00368913Y00453321*
X00369001Y00453409*
X0036906Y00453468*
X00369235Y00453556*
X00369265*
X00369294*
X00372281*
X00372369Y00453526*
X00372457Y00453468*
X00372603Y0045338*
X0037275Y00453263*
X00373101Y0045297*
X00373482Y00452618*
X00373833Y00452267*
X00374155Y00451974*
X00374272Y00451857*
X0037436Y00451769*
X00374419Y0045171*
X00374448Y00451681*
X00375268Y00450803*
X00375649Y00450422*
X00376Y00450041*
X00376293Y00449748*
X00376498Y00449514*
X00376645Y00449368*
X00376703Y00449309*
X00377201Y00449778*
X0037767Y00450246*
X00378109Y00450656*
X00378519Y00451037*
X003789Y00451388*
X00379222Y0045171*
X00379544Y00451974*
X00379808Y00452238*
X00380042Y00452472*
X00380247Y00452677*
X00380423Y00452823*
X00380569Y0045297*
X00380686Y00453058*
X00380774Y00453146*
X00380803Y00453175*
X00380833Y00453204*
X00380979Y00453321*
X00381096Y0045338*
X00381301Y00453497*
X00381418Y00453526*
X00381477*
X00381682*
X00381945*
X00382443*
X00382648Y00453556*
X00382824*
X00382941*
X00383*
X00383351*
X00383644*
X00383908*
X00384113*
X00384288*
X00384405*
X00384464*
X00384493*
X00384581Y00453526*
G37*
G36*
X00377289Y00435808D02*
X00377904Y0043575D01*
X0037846Y00435662*
X00379017Y00435515*
X00379515Y00435369*
X00380013Y00435193*
X00380452Y00434988*
X00380833Y00434812*
X00381213Y00434607*
X00381535Y00434432*
X00381799Y00434256*
X00382033Y00434109*
X00382238Y00433963*
X00382355Y00433875*
X00382443Y00433817*
X00382472Y00433787*
X00382941Y00433377*
X00383322Y00432938*
X00383673Y00432469*
X00383966Y0043203*
X0038423Y00431561*
X00384435Y00431122*
X0038461Y00430683*
X00384757Y00430244*
X00384874Y00429863*
X00384933Y00429482*
X00384991Y0042916*
X0038505Y00428897*
Y00428662*
X00385079Y00428487*
Y0042834*
X0038505Y0042793*
X00384991Y00427549*
X00384903Y00427169*
X00384786Y00426788*
X00384464Y00426085*
X00384113Y00425499*
X00383937Y00425236*
X0038379Y00424972*
X00383615Y00424767*
X00383468Y00424591*
X00383351Y00424445*
X00383263Y00424357*
X00383205Y00424299*
X00383175Y00424269*
X00383058Y00424123*
X0038297Y00424006*
X00382912Y00423947*
Y00423918*
X00382941Y00423859*
X00383058Y0042383*
X00383205Y00423771*
X0038338Y00423742*
X00383585Y00423713*
X00383732*
X00383849Y00423684*
X00383878*
X003842Y00423625*
X00384435Y00423566*
X0038461Y00423478*
X00384728Y00423391*
X00384786Y00423303*
X00384815Y00423244*
X00384845Y00423215*
Y00422219*
X00384815Y00421311*
X00384786Y00420491*
Y0042014*
X00384757Y00419789*
Y00419232*
X00384728Y00418968*
Y00418793*
X00384698Y00418617*
Y00418412*
X00384669Y00418207*
X00384581Y00418061*
X00384464Y00417973*
X00384318Y00417885*
X003842Y00417856*
X00384083Y00417826*
X00383995*
X00383966*
X00383703*
X00383439*
X00382824Y00417856*
X0038218Y00417885*
X00381565Y00417914*
X00381008Y00417943*
X00380746Y00417973*
X0038054*
X00380365*
X00380247Y00418002*
X00380159*
X0038013*
X00379661Y00418031*
X00379222Y00418061*
X00378812*
X00378431Y0041809*
X0037808*
X00377757Y00418119*
X00377465*
X00377201*
X00376996Y00418148*
X00376791*
X00376615*
X00376469*
X00376381*
X00376293*
X00376235*
X00374975Y00418119*
X00373774Y00418061*
X00373218Y00418002*
X00372691Y00417973*
X00372164Y00417914*
X00371725Y00417856*
X00371285Y00417797*
X00370904Y00417738*
X00370582Y00417709*
X00370289Y00417651*
X00370055Y00417621*
X00369909Y00417592*
X00369792Y00417563*
X00369762*
X00369587Y00417533*
X00369469*
X00369411*
X00369294Y00417563*
X00369206Y00417651*
X00369147Y00417738*
X00369118Y00417768*
X0036903Y0041809*
X00368942Y00418441*
X00368854Y00418851*
X00368767Y00419261*
X00368679Y00419613*
X0036862Y00419935*
X00368591Y00420023*
X00368562Y00420111*
Y00420199*
X00368444Y00420784*
X00368357Y00421311*
X00368298Y00421721*
X00368239Y00422043*
Y00422278*
X0036821Y00422453*
Y00422571*
X00368239Y00422658*
X00368327Y00422746*
X00368474Y00422834*
X0036862Y00422893*
X00368767Y00422951*
X00368913Y0042301*
X00369001Y00423039*
X0036903*
X00369294Y00423098*
X00369499Y00423186*
X00369616Y00423244*
X00369733Y00423273*
X00369792Y00423303*
X00369821Y00423332*
Y00423361*
X00369792Y00423478*
X00369762Y00423508*
X0036944Y00423801*
X00369147Y00424123*
X00368884Y00424445*
X00368679Y00424796*
X00368503Y00425148*
X00368357Y00425499*
X00368122Y00426173*
X00367976Y00426759*
X00367947Y00427022*
X00367917Y00427256*
X00367888Y00427432*
Y00427696*
X00367917Y00428399*
X00368005Y00429043*
X00368122Y00429687*
X00368269Y00430244*
X00368474Y004308*
X00368679Y00431298*
X00368913Y00431737*
X00369118Y00432147*
X00369352Y00432499*
X00369587Y00432821*
X00369792Y00433114*
X00369997Y00433319*
X00370143Y00433494*
X0037026Y00433612*
X00370348Y00433699*
X00370377Y00433729*
X00370846Y00434109*
X00371314Y00434432*
X00371842Y00434695*
X00372369Y00434959*
X00372896Y00435164*
X00373423Y0043531*
X00373921Y00435457*
X00374419Y00435574*
X00374887Y00435662*
X00375297Y0043572*
X00375678Y00435779*
X0037603Y00435808*
X00376293*
X00376498Y00435837*
X00376615*
X00376674*
X00377289Y00435808*
G37*
G36*
X00369674Y00415161D02*
X00369733D01*
X00369762*
X0037026Y00415044*
X00370787Y00414927*
X00371871Y00414751*
X00372984Y00414605*
X00373511Y00414546*
X00374009Y00414517*
X00374477Y00414488*
X00374917Y00414458*
X00375327*
X00375649Y00414429*
X00375942*
X00376147*
X00376264*
X00376322*
X00376586*
X00376879*
X00377552*
X00378226*
X0037887*
X00379456Y00414458*
X0037972*
X00379954*
X0038013*
X00380276*
X00380365*
X00380393*
X00380891*
X0038133*
X0038177*
X0038215*
X00382531*
X00382853*
X00383146*
X0038341*
X00383673*
X00383878*
X00384025*
X00384171*
X00384288*
X00384376*
X00384405*
X00384435*
X00384581Y00414429*
X00384728Y0041437*
X00384874Y00414195*
X00384962Y0041402*
X00384991Y0041396*
Y00413931*
X0038502Y00413521*
X0038505Y00413111*
Y00412672*
X00385079Y00412262*
Y00410241*
X0038505Y00409831*
Y00409216*
X0038502Y00409011*
Y00408865*
X00384991Y0040866*
X00384933Y00408513*
X00384845Y00408425*
X00384786Y00408338*
X0038461Y00408279*
X00384581*
X00384552*
X00384376*
X00384142*
X00383673Y00408308*
X00383468Y00408338*
X00383292*
X00383175Y00408367*
X00383146*
X00382795Y00408396*
X00382502*
X00382238*
X00382033Y00408425*
X00381857*
X0038174*
X00381682*
X00381653*
X0038136*
X00381008*
X00380628*
X00380276*
X00379954Y00408455*
X0037969*
X00379515*
X00379485*
X00379456*
X00378929*
X0037849Y00408484*
X00378109*
X00377787*
X00377552*
X00377377*
X0037726*
X0037723*
X00376762Y00408455*
X00376381Y00408396*
X00376088Y00408338*
X00375854Y0040822*
X00375678Y00408133*
X00375561Y00408074*
X00375502Y00408015*
X00375473Y00407986*
X00375327Y00407752*
X0037521Y00407459*
X00375151Y00407166*
X00375092Y00406844*
X00375063Y00406522*
X00375034Y00406287*
Y0040576*
X00375063Y00405467*
Y00405321*
X00375092Y00405204*
Y00405116*
X00375122Y00404706*
Y00404179*
X00375092Y00403945*
X00375004Y00403769*
X00374917Y00403652*
X0037477Y00403564*
X00374653Y00403505*
X00374565Y00403476*
X00374477*
X00374448*
X00374302*
X00374097*
X00373657*
X00373452Y00403505*
X00373277*
X0037316*
X0037313*
X00372837*
X00372574*
X0037234*
X00372164*
X00372017*
X003719*
X00371842*
X00371812*
X00371637*
X00371432Y00403476*
X00370963Y00403447*
X00370758*
X00370582Y00403418*
X00370465*
X00370436*
X00370114Y00403388*
X0036985Y00403359*
X00369616Y0040333*
X00369411Y004033*
X00369265*
X00369147*
X00369089*
X0036906*
X00368913Y0040333*
X00368796Y00403447*
X00368737Y00403593*
X00368679Y00403769*
X00368649Y00403974*
X0036862Y0040412*
Y00404267*
X00368649Y00404823*
X00368767Y0040538*
X00368913Y00405877*
X0036906Y00406375*
X00369235Y00406785*
X00369382Y00407078*
X0036944Y00407195*
X00369499Y00407283*
X00369528Y00407342*
Y00407371*
X00369674Y00407605*
X00369792Y0040784*
X00369997Y00408191*
X00370143Y00408425*
X0037026Y00408601*
X00370319Y00408689*
X00370377Y00408748*
X00370407Y00408777*
X00370348Y00408865*
X00370202Y00408923*
X00370026Y00408982*
X00369821Y00409011*
X00369645Y0040904*
X00369469Y0040907*
X00369352*
X00369323*
X00368972Y00409099*
X00368708Y00409158*
X00368532Y00409216*
X00368386Y00409275*
X00368327Y00409333*
X00368298Y00409392*
X00368269Y00409421*
Y00409509*
X00368298Y00409597*
X00368327Y00409743*
X00368357Y00409919*
X00368386Y00410124*
X00368444Y00410358*
X00368532Y00410885*
X0036862Y00411383*
X00368679Y00411618*
X00368708Y00411823*
X00368737Y00411969*
X00368767Y00412116*
X00368796Y00412203*
Y00412233*
X00368884Y00412848*
X00368972Y00413404*
X0036906Y00413873*
X00369118Y00414253*
X00369147Y00414546*
X00369177Y0041478*
X00369206Y00414898*
Y00414956*
X00369294Y00415103*
X00369382Y00415161*
X00369499Y0041519*
X00369528*
X00369674Y00415161*
G37*
%LNpcb1-2*%
%LPC*%
G36*
X00402257Y00356327D02*
X00399845Y00354698D01*
X00402257*
Y00356327*
G37*
G36*
X00399839Y00474712D02*
X00399722D01*
X00399703*
X00399683*
X00399332Y00474692*
X0039902Y00474634*
X00398747Y00474536*
X00398532Y00474439*
X00398337Y00474341*
X00398201Y00474244*
X00398103Y00474185*
X00398084Y00474166*
X00397869Y00473951*
X00397694Y00473698*
X00397577Y00473464*
X00397499Y0047321*
X0039746Y00473015*
X0039742Y00472839*
Y00472683*
X0039744Y00472371*
X00397518Y00472079*
X00397635Y00471825*
X00397752Y0047161*
X00397869Y00471435*
X00397986Y00471318*
X00398064Y0047122*
X00398084Y00471201*
X00398337Y00470986*
X00398591Y0047083*
X00398844Y00470732*
X00399098Y00470655*
X00399313Y00470615*
X00399469Y00470577*
X00399586*
X00399605*
X00399625*
X00399956Y00470596*
X00400269Y00470674*
X00400542Y00470772*
X00400776Y00470869*
X00400951Y00470986*
X00401107Y00471084*
X00401185Y00471162*
X00401224Y00471181*
X00401439Y00471415*
X00401615Y00471669*
X00401732Y00471922*
X0040181Y00472176*
X00401849Y00472371*
X00401868Y00472547*
X00401888Y00472664*
Y00472703*
X00401868Y00473015*
X0040179Y00473307*
X00401673Y00473561*
X00401556Y00473776*
X00401439Y00473932*
X00401322Y00474068*
X00401244Y00474146*
X00401224Y00474166*
X00400971Y00474341*
X00400717Y00474478*
X00400464Y00474575*
X0040021Y00474634*
X00400015Y00474673*
X00399839Y00474712*
G37*
G36*
X00398435Y00433591D02*
X00398415D01*
X00398396*
X00398142Y00433571*
X00397889Y00433513*
X00397674Y00433454*
X00397479Y00433357*
X00397323Y00433279*
X00397206Y0043322*
X00397129Y00433162*
X00397108Y00433142*
X00396913Y00432967*
X00396777Y00432771*
X0039666Y00432576*
X00396601Y00432401*
X00396562Y00432245*
X00396523Y00432108*
Y00431991*
X00396543Y00431738*
X00396601Y00431523*
X00396699Y00431309*
X00396777Y00431133*
X00396875Y00430996*
X00396972Y00430899*
X0039703Y00430821*
X0039705Y00430801*
X00397245Y00430626*
X0039746Y00430509*
X00397655Y00430411*
X0039785Y00430353*
X00398006Y00430314*
X00398142Y00430294*
X0039822*
X00398259*
X00398298Y00430314*
X00398337Y00430353*
X00398415Y0043047*
X00398435Y00430606*
X00398454Y00430645*
Y00430665*
X00398493Y00430977*
X00398532Y00431289*
X00398571Y00431562*
X00398591Y00431816*
X0039863Y0043205*
X0039865Y00432264*
X00398669Y00432459*
Y00432635*
X00398688Y00432771*
Y00432908*
X00398708Y00433006*
Y00433259*
X00398688Y00433376*
X0039865Y00433454*
X0039861Y00433513*
X00398552Y00433552*
X00398435Y00433591*
G37*
G36*
X00374624Y00466383D02*
X00374594D01*
X00374565*
X00374184Y00466353*
X00373804Y00466266*
X00373482Y00466178*
X00373189Y00466031*
X00372955Y00465914*
X00372779Y00465826*
X00372662Y00465739*
X00372632Y00465709*
X0037234Y00465446*
X00372135Y00465153*
X00371959Y0046486*
X00371871Y00464596*
X00371812Y00464362*
X00371754Y00464157*
Y00463981*
X00371783Y00463601*
X00371871Y00463278*
X00372017Y00462956*
X00372135Y00462693*
X00372281Y00462488*
X00372427Y00462341*
X00372515Y00462224*
X00372545Y00462195*
X00372837Y00461931*
X0037316Y00461756*
X00373452Y00461609*
X00373745Y00461521*
X00373979Y00461463*
X00374184Y00461434*
X00374302*
X0037436*
X00374419Y00461463*
X00374477Y00461521*
X00374594Y00461697*
X00374624Y00461902*
X00374653Y00461961*
Y0046199*
X00374712Y00462458*
X0037477Y00462927*
X00374829Y00463337*
X00374858Y00463718*
X00374917Y00464069*
X00374946Y00464391*
X00374975Y00464684*
Y00464948*
X00375004Y00465153*
Y00465358*
X00375034Y00465504*
Y00465885*
X00375004Y00466061*
X00374946Y00466178*
X00374887Y00466266*
X00374799Y00466324*
X00374624Y00466383*
G37*
G36*
X0037641Y00430068D02*
X00376381D01*
X00376352*
X00375825Y00430039*
X00375356Y00429921*
X00374946Y00429775*
X00374594Y00429629*
X00374331Y00429453*
X00374126Y00429336*
X00373979Y00429219*
X0037395Y00429189*
X00373628Y00428838*
X00373394Y00428457*
X00373247Y00428047*
X0037313Y00427696*
X00373072Y00427344*
X00373013Y00427081*
Y00426847*
X00373042Y00426319*
X0037316Y00425851*
X00373306Y00425441*
X00373482Y00425119*
X00373657Y00424826*
X00373804Y0042465*
X00373921Y00424504*
X0037395Y00424474*
X00374331Y00424181*
X00374712Y00423947*
X00375122Y00423801*
X00375502Y00423684*
X00375825Y00423625*
X00376117Y00423566*
X00376293*
X00376322*
X00376352*
X00376879Y00423596*
X00377318Y00423713*
X00377728Y00423859*
X0037808Y00424006*
X00378372Y00424181*
X00378577Y00424328*
X00378695Y00424445*
X00378753Y00424474*
X00379075Y00424826*
X0037928Y00425236*
X00379456Y00425616*
X00379573Y00425997*
X00379632Y00426349*
X00379661Y00426612*
X0037969Y00426788*
Y00426847*
X00379661Y00427344*
X00379544Y00427784*
X00379397Y00428164*
X00379192Y00428487*
X00379017Y0042875*
X0037887Y00428955*
X00378753Y00429102*
X00378724Y00429131*
X00378343Y00429453*
X00377933Y00429658*
X00377523Y00429834*
X00377172Y00429951*
X0037685Y00430009*
X00376586Y00430039*
X0037641Y00430068*
G37*
%LNpcb1-3*%
%LPD*%
G54D12*
X00339987Y-0028028D02*
X00333322D01*
X00336655Y-00283612D02*
Y-00276948D01*
G54D49*
X00443191Y00428605D02*
X00447636Y0043305D01*
X00443191D02*
Y00469245D01*
X00438746Y0043305D02*
X00443191Y00428605D01*
X00438746Y0043305D02*
X00447636D01*
G54D53*
X00443186Y00469269D03*
M02*