%FSTAX44Y44*%
%MOMM*%
%SFA1B1*%

%IPPOS*%
%AMD28*
4,1,8,0.200660,0.124460,-0.200660,0.124460,-0.248920,0.076200,-0.248920,-0.076200,-0.200660,-0.124460,0.200660,-0.124460,0.248920,-0.076200,0.248920,0.076200,0.200660,0.124460,0.0*
1,1,0.100000,0.200660,0.076200*
1,1,0.100000,-0.200660,0.076200*
1,1,0.100000,-0.200660,-0.076200*
1,1,0.100000,0.200660,-0.076200*
%
%AMD45*
4,1,8,0.401320,0.800100,-0.401320,0.800100,-0.449580,0.749300,-0.449580,-0.749300,-0.401320,-0.800100,0.401320,-0.800100,0.449580,-0.749300,0.449580,0.749300,0.401320,0.800100,0.0*
1,1,0.099000,0.401320,0.749300*
1,1,0.099000,-0.401320,0.749300*
1,1,0.099000,-0.401320,-0.749300*
1,1,0.099000,0.401320,-0.749300*
%
%ADD10C,0.200000*%
%ADD11C,0.253999*%
%ADD15R,0.999998X0.749999*%
%ADD19C,0.799998*%
G04~CAMADD=28~8~0.0~0.0~196.9~98.4~19.7~0.0~15~0.0~0.0~0.0~0.0~0~0.0~0.0~0.0~0.0~0~0.0~0.0~0.0~0.0~196.9~98.4*
%ADD28D28*%
%ADD29C,2.299995*%
%ADD31R,0.649999X0.699999*%
%ADD32R,1.349997X2.599995*%
%ADD33R,0.699999X0.649999*%
%ADD34R,0.779998X0.739999*%
%ADD35R,0.739999X0.779998*%
%ADD36C,0.999998*%
%ADD37R,0.699999X0.999998*%
%ADD38O,0.799998X0.349999*%
%ADD39O,0.349999X0.799998*%
%ADD40R,2.699995X2.699995*%
%ADD41R,2.449995X2.149996*%
%ADD42R,2.599995X3.099994*%
%ADD43R,0.699999X0.999998*%
%ADD44R,0.699999X0.849998*%
G04~CAMADD=45~8~0.0~0.0~354.3~629.9~19.5~0.0~15~0.0~0.0~0.0~0.0~0~0.0~0.0~0.0~0.0~0~0.0~0.0~0.0~0.0~354.3~629.9*
%ADD45D45*%
%ADD46C,3.499993*%
%ADD47C,0.499999*%
%ADD48C,0.299999*%
%ADD49C,0.499999*%
%ADD50C,0.599999*%
%LNpcb1-1*%
%LPD*%
G36*
X00492919Y00543744D02*
X00491337D01*
X00490626Y00544219*
Y00544444*
X00482146*
Y00545764*
X00476976*
Y00539524*
X00474436*
Y00545764*
X00469266*
Y00538699*
X00465699*
Y00531159*
Y00523619*
X00470469*
Y00523668*
X00474436*
Y00529908*
X00476976*
Y00523668*
X00482146*
Y00524988*
X00490626*
Y00525213*
X00491337Y00525688*
X00492919*
Y00505796*
X0047544*
X00474785Y00506776*
Y00508454*
X00474143Y00510005*
X00472956Y00511192*
X00471405Y00511835*
X00469726*
X00468625Y00511379*
X00459709*
Y00498939*
X0045996*
X00460666Y00497883*
X00460537Y00497573*
Y00495894*
X0046118Y00494343*
X00462367Y00493156*
X00462447Y00493123*
X00462195Y00491853*
X00454734*
X00454162Y00491739*
X00454103Y00492035*
X00453431Y00493041*
X00452425Y00493713*
X00451239Y00493949*
X00450509*
Y00490099*
X00449239*
Y00488829*
X00443713*
X0044346Y00488521*
X00430007*
Y00490829*
X00423567*
Y00493369*
X00430007*
Y00495516*
X00430112*
Y00500485*
X00423672*
Y00503025*
X00430112*
Y00507995*
X00428608*
Y0051028*
X00438218*
X00440709Y00507789*
Y00498939*
X00450149*
Y00511379*
X00444299*
X00441065Y00514614*
X00440241Y00515164*
X0043927Y00515357*
X00428608*
Y00516626*
X00408568*
X00407413Y00516903*
X00407202Y00517017*
Y00520008*
X00408739*
Y00546333*
X0041143Y00549024*
X00415979*
Y00535498*
X00425269*
X00434559*
Y00549024*
X00451136*
Y00538699*
X00446699*
Y00531159*
Y00523619*
X00451469*
Y00524939*
X00458389*
Y00523619*
X00463159*
Y00531159*
Y00538699*
X00458722*
Y00549024*
X00492919*
Y00543744*
G37*
G36*
X00408647Y00487179D02*
D01*
X00428687*
X00429957Y00487222*
X00430007Y00487201*
X00443114*
X00444004Y00486431*
X00444187Y00486087*
X00444139Y00485849*
Y00484952*
X00443887Y00484503*
X00443526Y0048411*
X00442938Y00483881*
X00436655*
X00436618Y00483888*
X0043658Y00483881*
X00436525*
X00436482Y00483863*
X00436359Y00483913*
X00430456Y00483908*
X00429985Y00483713*
X00429523Y00483521*
X00380065Y0043402*
X00379873Y00433557*
X00379678Y00433086*
Y00423382*
X00380065Y00422448*
X00381Y00422061*
X004381*
X00439034Y00422448*
X00439421Y00423382*
Y00434129*
X0046355*
Y0041274*
X00458062Y00412677*
X00457159Y0041357*
Y00414549*
X00447719*
Y00412558*
X00441562Y00412486*
X00440659Y00413379*
Y00414549*
X00431219*
Y00412367*
X00427536Y00412324*
X00426633Y00413217*
Y00415113*
X00417193*
Y00412205*
X00406036Y00412076*
X00405133Y00412969*
Y00415113*
X00395693*
Y00411957*
X00374282Y0041171*
X0037338Y00412602*
Y0048715*
X00408535Y0048729*
X00408647Y00487179*
G37*
G36*
X00533436Y00474706D02*
X00534376Y00474316D01*
Y00472942*
X00533436Y00472552*
X00531686Y00470802*
X00531598Y0047059*
X00530121Y00470344*
X00529609Y00470857*
X00528058Y00471499*
X00526379*
X00524828Y00470857*
X00523641Y00469669*
X00522998Y00468118*
Y0046644*
X00523641Y00464889*
X00524828Y00463702*
X00525345Y00463487*
X00524975Y00462266*
X00524919Y00462277*
X00520419*
X00519979Y0046219*
X00518709Y0046309*
Y00465539*
X0050976*
X0050886Y00466809*
X00508947Y00467249*
Y00471749*
X00508717Y00472908*
X00508325Y00473493*
X00508847Y0047472*
X00508889Y00474763*
X00512392*
X00512554Y00475163*
X00521493*
X00522105*
X00531045*
Y00475301*
X00532315Y00475826*
X00533436Y00474706*
G37*
G36*
X00460009Y00472D02*
X00462744D01*
X00463928Y00472235*
X00464932Y00472906*
X00465046Y00473077*
X00465568Y00472729*
X00466239Y00472595*
X00468063*
X00468239Y0047256*
X00473495*
X00474487Y00471567*
X00476039Y00470925*
X00477717*
X00479268Y00471567*
X00480455Y00472755*
X00481098Y00474305*
Y00475984*
X00480455Y00477535*
X00480074Y00477917*
X00479307Y00478763*
X00480074Y00479576*
X00480472Y00479975*
X00480794Y00480751*
X00482288Y00481053*
X00482622Y00480718*
X00483446Y00480168*
X00483449Y00480167*
Y00474763*
X0048583*
Y00470987*
X00486024Y00470015*
X00486574Y00469192*
X00488062Y00467704*
X00488736Y00467253*
X0048893Y00466987*
X00488978Y00466809*
X00488004Y00465539*
X00486629*
Y0046309*
X00485359Y0046219*
X00484919Y00462277*
X00480419*
X0047926Y00462047*
X00478278Y00461391*
X00477621Y00460408*
X00477391Y00459249*
X00477621Y0045809*
X00478278Y00457108*
X00478106Y00455695*
X0047771Y00455288*
X00464849*
Y00467569*
X00452177*
Y00471436*
X00452425Y00471485*
X00453431Y00472157*
X00453503Y00472266*
X0045355Y00472235*
X00454734Y00472*
X00457469*
Y004826*
X00460009*
Y00472*
G37*
G36*
X00544462Y00347098D02*
X00543289Y00346612D01*
X00543192Y0034671*
X00337452*
Y00550258*
X00338372Y00551134*
X00356322Y00550248*
X00357253Y0055118*
X00408726*
X0040935Y0054991*
X00409247Y00549776*
X00409223Y00549768*
X00402039*
Y00534228*
Y00518688*
X00405881*
Y00517017*
X00405958Y00516831*
X00405938Y00516633*
X00406144Y00516382*
X00406268Y00516082*
X00406453Y00516006*
X00406579Y00515851*
X0040679Y00515739*
X00406964Y00515722*
X00407105Y0051562*
X00407248Y00515585*
Y00512976*
X00413688*
Y00510436*
X00407248*
Y00505466*
X00407432*
Y00503025*
X00413872*
Y00500485*
X00407432*
Y00498339*
X00407327*
Y00493369*
X00413767*
Y00490829*
X00407327*
Y00488606*
X00373374Y0048847*
X0037291Y00488276*
X00372445Y00488084*
X00372444Y00488081*
X00372442Y0048808*
X00372251Y00487614*
X00372059Y0048715*
Y00483889*
X00360899*
Y00470599*
Y00457309*
X00372059*
Y00443069*
X00346159*
Y00419129*
X00350296*
Y00417179*
X00346615*
Y00407239*
X0035804*
Y00407238*
Y0040556*
X00358573Y00404273*
X00358683Y00404009*
X00359362Y00403329*
X00359358Y00403289*
X00358716Y00402179*
X00357915*
X00357905*
X00346615*
Y00392239*
X00348011*
X0034886Y00390969*
X00348615Y00390378*
Y003887*
X00349258Y00387149*
X00350445Y00385961*
X00351996Y00385319*
X00353675*
X00355226Y00385961*
X00356413Y00387149*
X00357055Y003887*
Y00390378*
X00356811Y00390969*
X00357659Y00392239*
X00359055*
Y00400961*
Y00401889*
X00359262Y00402125*
X00360098Y00402727*
X00360423Y00402592*
X00361421Y00402179*
X003631*
X00363554Y00402367*
X0036421Y00401929*
X0037365*
X0037371*
X0037492*
X0038315*
X0038442Y0040232*
X00384761Y00402179*
X0038644*
X00387991Y00402821*
X00389029Y0040386*
X00395693*
Y00402673*
X00397874*
Y00370113*
X00395693*
Y00357673*
X00405133*
Y00370113*
X00402952*
Y00402673*
X00405133*
Y00409755*
X00406022Y00410732*
X00406051Y00410756*
X0041497Y00410859*
X00415674Y00410163*
X00421913*
X00427953*
Y00410473*
X00428868Y00410706*
X00429291Y00410349*
X00435939*
X00441979*
Y00411171*
X00446816Y00411226*
X00447719Y00410334*
Y00403609*
X00457159*
Y00406815*
X00463675*
X00464161Y00405642*
X00458429Y0039991*
X00457159Y00400436*
Y00402209*
X00447719*
Y00391269*
X00452312*
X0045299Y00389999*
X00452904Y00389869*
X00447719*
Y00378929*
X00452312*
X0045299Y00377659*
X00452904Y00377529*
X00447719*
Y00366589*
X00452312*
X0045299Y00365319*
X00452904Y00365189*
X00447719*
Y00354249*
X00457159*
Y00361988*
X00478191Y00383021*
X00478682Y00383755*
X00478854Y00384621*
Y0039717*
X00491477Y00409792*
X00492747Y00409266*
Y00407653*
X00493694Y00405367*
X00495443Y00403618*
X00497729Y00402671*
X00500204*
X0050249Y00403618*
X0050424Y00405367*
X00504701Y0040648*
X00506075*
X00506536Y00405367*
X00508286Y00403618*
X00510572Y00402671*
X00513046*
X00515332Y00403618*
X00517082Y00405367*
X00518029Y00407653*
Y00410128*
X00517328Y00411819*
X00525897Y00420388*
X00527366*
X00528917Y00421031*
X00530104Y00422218*
X00530746Y00423769*
Y00425238*
X00530954Y00425445*
X00531505Y00426269*
X00531698Y00427241*
Y00436684*
X00532871Y00437171*
X00533436Y00436606*
X00535722Y00435659*
X00538196*
X00540482Y00436606*
X00542232Y00438356*
X00543179Y00440642*
Y00443116*
X00542232Y00445402*
X00540482Y00447152*
X00539542Y00447542*
Y00448916*
X00540482Y00449306*
X00542232Y00451056*
X00543179Y00453342*
Y00455816*
X00542232Y00458102*
X00540482Y00459852*
X00539542Y00460242*
Y00461616*
X00540482Y00462006*
X00542232Y00463756*
X00543179Y00466042*
Y00468516*
X00542232Y00470802*
X00540482Y00472552*
X00539542Y00472942*
Y00474316*
X00540482Y00474706*
X00542232Y00476456*
X00543179Y00478742*
Y00481216*
X00542232Y00483502*
X00540482Y00485252*
X00538196Y00486199*
X00535722*
X00533436Y00485252*
X00532315Y00484131*
X00531045Y00484603*
Y00485873*
Y00494103*
X00530607Y00494759*
X00530795Y00495214*
Y00496893*
X00530153Y00498444*
X00528965Y00499631*
X00527415Y00500273*
X00525736*
X00524185Y00499631*
X00522998Y00498444*
X00522434Y00497084*
X00522172Y00497042*
X00521427*
X00521164Y00497084*
X00520601Y00498444*
X00519414Y00499631*
X00517863Y00500273*
X00516184*
X00514633Y00499631*
X00513446Y00498444*
X00512804Y00496893*
Y00496123*
X00508742*
Y00489683*
X00506202*
Y00496123*
X00503978*
Y00496266*
X00499008*
Y00489826*
X00496468*
Y00496266*
X00491498*
Y00496123*
X00489639*
Y00489683*
X00487099*
Y00496123*
X00483134*
Y00499144*
X00476894*
Y00501684*
X00483134*
Y00504476*
X00492919*
X00493853Y00504863*
X00494239Y00505796*
Y00525688*
X00493853Y00526622*
X00492919Y00527009*
X00491946*
Y00528638*
X00485506*
Y00531178*
X00491946*
Y00533284*
Y00538254*
X00485506*
Y00540794*
X00491946*
Y00542424*
X00492919*
X00493853Y0054281*
X00494239Y00543744*
Y00549024*
X00493853Y00549958*
X00494224Y0055118*
X00544462*
Y00347098*
G37*
G36*
X00436525Y0048256D02*
X00443315D01*
X00444171Y00481369*
X00449239*
Y00478829*
X00444243*
X00444375Y00478163*
X00445047Y00477157*
X00445737Y00476697*
X00445619Y0047652*
X00445485Y00475849*
Y00474349*
X00445619Y00473678*
X00445999Y00473109*
X00446568Y00472729*
X00447239Y00472595*
X00449062*
X00449239Y0047256*
X0044934Y0047258*
X00450857*
Y00467569*
X00436409*
Y00434129*
X004381*
Y00423382*
X00381*
Y00433086*
X00430457Y00482588*
X0043636Y00482593*
X00436525Y0048256*
G37*
%LNpcb1-2*%
%LPC*%
G36*
X00444159Y00538699D02*
X00439389D01*
Y00532429*
X00444159*
Y00538699*
G37*
G36*
Y00529889D02*
X00439389D01*
Y00523619*
X00444159*
Y00529889*
G37*
G36*
X00434559Y00532958D02*
X00426539D01*
Y00518688*
X00434559*
Y00532958*
G37*
G36*
X00423999D02*
X00415979D01*
Y00518688*
X00423999*
Y00532958*
G37*
G36*
X00447969Y00493949D02*
X00447239D01*
X00446053Y00493713*
X00445047Y00493041*
X00444375Y00492035*
X00444243Y00491369*
X00447969*
Y00493949*
G37*
G36*
X00399499Y00549768D02*
X00391479D01*
Y00535498*
X00399499*
Y00549768*
G37*
G36*
Y00532958D02*
X00391479D01*
Y00518688*
X00399499*
Y00532958*
G37*
G36*
X00358359Y00483889D02*
X00344839D01*
Y00471869*
X00358359*
Y00483889*
G37*
G36*
Y00469329D02*
X00344839D01*
Y00457309*
X00358359*
Y00469329*
G37*
G36*
X00427953Y00407623D02*
X00423183D01*
Y00401353*
X00427953*
Y00407623*
G37*
G36*
X00420643D02*
X00415873D01*
Y00401353*
X00420643*
Y00407623*
G37*
G36*
X00441979Y00407809D02*
X00435939D01*
X00429899*
Y00402289*
Y00398009*
X00435939*
X00441979*
Y00402289*
Y00407809*
G37*
G36*
Y00395469D02*
X00435939D01*
X00429899*
Y00389949*
Y00385669*
X00435939*
X00441979*
Y00389949*
Y00395469*
G37*
G36*
Y00383129D02*
X00435939D01*
X00429899*
Y00377609*
Y00373329*
X00435939*
X00441979*
Y00377609*
Y00383129*
G37*
G36*
X00427953Y00371433D02*
X00423183D01*
Y00365163*
X00427953*
Y00371433*
G37*
G36*
X00420643D02*
X00415873D01*
Y00365163*
X00420643*
Y00371433*
G37*
G36*
X00441979Y00370789D02*
X00435939D01*
X00429899*
Y00365269*
Y00360989*
X00435939*
X00441979*
Y00365269*
Y00370789*
G37*
G36*
X00427953Y00362623D02*
X00423183D01*
Y00356353*
X00427953*
Y00362623*
G37*
G36*
X00420643D02*
X00415873D01*
Y00356353*
X00420643*
Y00362623*
G37*
G36*
X00441979Y00358449D02*
X00437209D01*
Y00352929*
X00441979*
Y00358449*
G37*
G36*
X00434669D02*
X00429899D01*
Y00352929*
X00434669*
Y00358449*
G37*
%LNpcb1-3*%
%LPD*%
G54D10*
X00492919Y00427655D02*
Y00429499D01*
X00488682Y00426962D02*
X00492226D01*
X00452439Y00409079D02*
X00466245D01*
X00482669Y00425503*
X00492226Y00426962D02*
X00492919Y00427655D01*
X00482669Y00425503D02*
Y00439749D01*
X00458459Y00396739D02*
X00488682Y00426962D01*
X00452439Y00396739D02*
X00458459D01*
X00489871Y00422581D02*
X00495841D01*
X00452439Y00385149D02*
X00489871Y00422581D01*
X00492527Y00419361D02*
X00499121D01*
X00472831Y00399665D02*
X00492527Y00419361D01*
X00472831Y00393201D02*
Y00399665D01*
X00476591Y00398107D02*
X00494625Y00416141D01*
X00501469*
X00476591Y00384621D02*
Y00398107D01*
X00499132Y00429212D02*
X00499419Y00429499D01*
X00495841Y00422581D02*
X00499132Y00425872D01*
Y00429212*
X00452439Y00372809D02*
X00472831Y00393201D01*
X00452439Y00360469D02*
X00476591Y00384621D01*
X00499121Y00419361D02*
X00505735Y00425975D01*
X00501469Y00416141D02*
X00512419Y00427092D01*
X00505735Y00425975D02*
Y00429315D01*
G54D11*
X00464429Y00505385D02*
X00466659Y00507615D01*
X00464429Y00505159D02*
Y00505385D01*
X00466659Y00507615D02*
X00470565D01*
X00464593Y00496898D02*
Y00504245D01*
X00464429Y00504409D02*
X00464593Y00504245D01*
Y00496898D02*
X00464757Y00496734D01*
X00476894Y00500414D02*
X00483564D01*
X00488369Y00479426D02*
X00497738D01*
X00482179Y00484844D02*
Y00485129D01*
Y00484844D02*
X00482384Y00484639D01*
X00476894Y00490414D02*
X00482179Y00485129D01*
X00482384Y00484547D02*
Y00484639D01*
Y00484547D02*
X00484418Y00482513D01*
X00485939*
X00476894Y00490414D02*
Y00490614D01*
X00485939Y00482513D02*
X00488369Y00480083D01*
Y00479883D02*
Y00480083D01*
X0047638Y00490099D02*
X00476894Y00490614D01*
X00468239Y00490099D02*
X0047638D01*
X00475958Y00482365D02*
X00476894D01*
X00468259Y00480119D02*
X00473712D01*
X00475958Y00482365*
X00468239Y00475099D02*
X00476832D01*
X00476878Y00475145*
X00488369Y00479426D02*
Y00479883D01*
Y00470987D02*
Y00479426D01*
X00489857Y00469499D02*
X00492919D01*
X00488369Y00470987D02*
X00489857Y00469499D01*
X00520665Y00429499D02*
X00522669Y00431503D01*
X00502484Y00411318D02*
X00520665Y00429499D01*
X00530909Y00447622D02*
X00531063D01*
X00536805Y00441879D02*
X00536959D01*
X00531063Y00447622D02*
X00536805Y00441879D01*
X00526526Y00424608D02*
X00529159Y00427241D01*
X0051181Y00409891D02*
X00526526Y00424608D01*
X00468239Y00480099D02*
X00468259Y00480119D01*
X00497921Y00489683D02*
Y00496353D01*
X00507472Y00489683D02*
Y00496353D01*
X00507307Y00489849D02*
X00507472Y00489683D01*
X00488369D02*
Y00496353D01*
X00527219Y00467279D02*
X00534827D01*
X003856Y004064D02*
X00398183D01*
X0037893D02*
X003856D01*
X0037843D02*
X0037893D01*
X00379095Y00406564*
X00368765Y00406234D02*
X0036893Y004064D01*
X0036226D02*
X0036893D01*
X00400413Y00363893D02*
Y00408629D01*
X00398183Y004064D02*
X00400413Y00408629D01*
Y00408893*
X00352835Y00412209D02*
Y00424305D01*
X00359529Y00430999*
X00352835Y00389539D02*
Y00397209D01*
X00468239Y00485099D02*
X00468259Y00485079D01*
X00471343Y00427833D02*
X00477449D01*
X00450629Y00449363D02*
X00462359Y00437633D01*
X00450629Y00449363D02*
Y0045085D01*
X00462359Y00437633D02*
X00471343D01*
X00452529Y00452749D02*
X00482669D01*
X00526575Y00489383D02*
Y00496053D01*
X00517024Y00489383D02*
Y00496053D01*
X00497921Y00489683D02*
X00507472D01*
X00488369D02*
X00497921D01*
X00507472Y00479883D02*
X00517024D01*
X00526575*
X00538915*
X00435753Y00408893D02*
X00435939Y00409079D01*
X00421913Y00408893D02*
X00435753D01*
X00551175Y00429179D02*
X00554026Y0043203D01*
X00536959Y00429179D02*
X00551175D01*
X00554026Y0043203D02*
X00555504D01*
X00421913Y00363893D02*
Y00408893D01*
X00452439Y00372059D02*
Y00372809D01*
X00500394Y00411318D02*
X00502484D01*
X00522669Y00431503D02*
Y00439749D01*
X00498967Y00409891D02*
X00500394Y00411318D01*
X00452439Y00384399D02*
Y00385149D01*
X00505735Y00429315D02*
X00505919Y00429499D01*
X00452439Y00359719D02*
Y00360469D01*
X00512419Y00427092D02*
Y00429499D01*
X00525103Y00445562D02*
X00529159Y00441505D01*
X00522669Y00446249D02*
X00524659D01*
X00525103Y00445806*
Y00445562D02*
Y00445806D01*
X00529159Y00427241D02*
Y00441505D01*
X00435939Y00359719D02*
Y00372059D01*
Y00384399*
Y00396739*
Y00409079*
X00450629Y0045085D02*
X00452529Y00452749D01*
X00330985Y00484159D02*
X00339185Y00492359D01*
X00413767Y00492099D02*
Y0050165D01*
X00413872Y00501756*
X00436525Y00485099D02*
X00449239D01*
X00400769Y00534228D02*
Y00553943D01*
X0040868Y00561854*
X00423488Y00512819D02*
X0043927D01*
X00407018Y00511706D02*
X00413688D01*
X00445429Y00505159D02*
Y00506659D01*
X00423488Y00511706D02*
X00423497Y00511698D01*
X0043927Y00512819D02*
X00445429Y00506659D01*
X00454929Y00559624D02*
X00457159Y00561854D01*
X00475706Y00530568D02*
Y00539524D01*
Y00529908D02*
Y00530568D01*
X00477825*
X0046502D02*
X00475706D01*
X00464429Y00531159D02*
X0046502Y00530568D01*
X00464331Y00531257D02*
X00464429Y00531159D01*
X00449239Y00493859D02*
Y00496948D01*
Y00491329D02*
Y00493859D01*
X00448029Y00490099D02*
X00449239D01*
X00448009Y00490119D02*
X00448029Y00490099D01*
X00423567Y00492099D02*
X00423672Y00492204D01*
X00407202Y00501756D02*
X00413872D01*
X00423672Y00492204D02*
Y00501756D01*
X00535702Y00453322D02*
X00536959Y00454579D01*
X00528401Y00453322D02*
X00535702D01*
X00522853Y00452933D02*
X00528012D01*
X00528401Y00453322*
X00522669Y00452749D02*
X00522853Y00452933D01*
X00536888Y0048005D02*
X00536959D01*
X0037368Y0038103D02*
Y00382418D01*
X00456739Y00477099D02*
X00458739D01*
X00454759Y00475119D02*
X00456739Y00477099D01*
X00449239Y00475099D02*
X00449259Y00475119D01*
X00454759*
X00451657Y00499366D02*
Y00513811D01*
X00445429Y00520039D02*
X00451657Y00513811D01*
X00449239Y00496948D02*
X00451657Y00499366D01*
X00444601Y00530331D02*
X00445429Y00531159D01*
X00474682Y00446178D02*
X00481352D01*
X00445429Y00520039D02*
Y00531159D01*
X00485506Y00529908D02*
X00492176D01*
X00485506Y00539524D02*
X00492176D01*
X00536888Y0048005D02*
X00536959Y00479979D01*
Y0046526D02*
Y00467279D01*
X00532709Y0046101D02*
X00536959Y0046526D01*
X00512419Y00469499D02*
Y00470769D01*
X00522669Y00459249D02*
X00522853Y00459433D01*
X0053122*
X00532709Y00460921D02*
Y0046101D01*
X0053122Y00459433D02*
X00532709Y00460921D01*
X00508169Y00456269D02*
X00512419Y00460519D01*
Y00469499*
G54D15*
X00352835Y00397209D03*
Y00412209D03*
G54D19*
X00555504Y00501159D03*
Y00484159D03*
X00330985Y00501159D03*
Y00484159D03*
X0039168Y00561854D03*
X0040868D03*
X00494809D03*
X00477809D03*
X00494809Y00337335D03*
X00477809D03*
X00555504Y0039803D03*
Y0041503D03*
Y0043203D03*
Y0044903D03*
Y0046603D03*
X00330985Y0039803D03*
Y0041503D03*
Y0043203D03*
Y0044903D03*
Y0046603D03*
X0051181Y00337335D03*
X0040868D03*
X0039168D03*
X0037468D03*
X00555504Y0038103D03*
X00552178Y00364309D03*
X0052853Y00340661D03*
X00542706Y00350133D03*
X00330985Y0038103D03*
X00357959Y00340661D03*
X00334311Y00364309D03*
X00343783Y00350133D03*
X0037468Y00561854D03*
X00330985Y0051816D03*
X00334311Y0053488D03*
X00357959Y00558528D03*
X00343783Y00549056D03*
X00542706D03*
X00552178Y0053488D03*
X0052853Y00558528D03*
X0051181Y00561854D03*
X00555504Y0051816D03*
G54D28*
X00449239Y00480099D03*
Y00485099D03*
Y00490099D03*
Y00475099D03*
X00468239D03*
Y00480099D03*
Y00485099D03*
Y00490099D03*
G54D29*
X00555504Y0051816D02*
D01*
X00555398Y00521208*
X00555079Y00524241*
X0055455Y00527244*
X00553812Y00530203*
X00552869Y00533104*
X00551727Y00535932*
X0055039Y00538673*
X00548865Y00541314*
X00547159Y00543843*
X00545282Y00546246*
X00543241Y00548513*
X00541047Y00550631*
X00538711Y00552591*
X00536243Y00554384*
X00533657Y00556*
X00530964Y00557432*
X00528178Y00558673*
X00525312Y00559716*
X0052238Y00560556*
X00519397Y00561191*
X00516377Y00561615*
X00513334Y00561828*
X0051181Y00561854*
X0037468D02*
D01*
X00371632Y00561748*
X00368599Y00561429*
X00365596Y005609*
X00362636Y00560162*
X00359736Y00559219*
X00356908Y00558077*
X00354167Y0055674*
X00351526Y00555215*
X00348997Y00553509*
X00346594Y00551632*
X00344327Y00549591*
X00342209Y00547397*
X00340248Y00545061*
X00338456Y00542593*
X00336839Y00540007*
X00335408Y00537314*
X00334167Y00534528*
X00333124Y00531662*
X00332283Y0052873*
X00331649Y00525747*
X00331225Y00522727*
X00331012Y00519684*
X00330985Y0051816*
Y0038103D02*
D01*
X00331092Y00377982*
X00331411Y00374949*
X0033194Y00371946*
X00332678Y00368986*
X00333621Y00366086*
X00334763Y00363258*
X003361Y00360517*
X00337625Y00357876*
X0033933Y00355347*
X00341208Y00352944*
X00343249Y00350677*
X00345443Y00348559*
X00347779Y00346598*
X00350246Y00344806*
X00352833Y00343189*
X00355526Y00341758*
X00358312Y00340517*
X00361178Y00339474*
X0036411Y00338633*
X00367093Y00337999*
X00370113Y00337575*
X00373155Y00337362*
X0037468Y00337335*
X0051181D02*
D01*
X00514858Y00337442*
X00517891Y00337761*
X00520894Y0033829*
X00523853Y00339028*
X00526754Y00339971*
X00529582Y00341113*
X00532323Y0034245*
X00534964Y00343975*
X00537493Y0034568*
X00539896Y00347558*
X00542163Y00349599*
X00544281Y00351793*
X00546241Y00354129*
X00548034Y00356596*
X0054965Y00359183*
X00551082Y00361876*
X00552323Y00364662*
X00553366Y00367528*
X00554206Y0037046*
X00554841Y00373443*
X00555265Y00376463*
X00555478Y00379505*
X00555504Y0038103*
Y00501159D02*
Y0051816D01*
Y00484159D02*
Y00501159D01*
Y0046603D02*
Y00484159D01*
Y0044903D02*
Y0046603D01*
Y0043203D02*
Y0044903D01*
Y0041503D02*
Y0043203D01*
Y0039803D02*
Y0041503D01*
Y0038103D02*
Y0039803D01*
X00330985Y00501159D02*
Y0051816D01*
Y00484159D02*
Y00501159D01*
Y0046603D02*
Y00484159D01*
Y0044903D02*
Y0046603D01*
Y0043203D02*
Y0044903D01*
Y0041503D02*
Y0043203D01*
Y0039803D02*
Y0041503D01*
Y0038103D02*
Y0039803D01*
X0037468Y00561854D02*
X0039168D01*
X00494809D02*
X0051181D01*
X00477809D02*
X00494809D01*
X00457159D02*
X00477809D01*
X0040868D02*
X00457159D01*
X0039168D02*
X0040868D01*
X0037468Y00337335D02*
X0051181D01*
G54D31*
X00517024Y00479883D03*
Y00489383D03*
X00526575D03*
Y00479883D03*
G54D32*
X00400769Y00534228D03*
X00425269D03*
G54D33*
X0036893Y004064D03*
X0037843D03*
G54D34*
X00423488Y00511706D03*
X00413688D03*
X00423672Y00501756D03*
X00413872D03*
X00475706Y00529908D03*
X00485506D03*
X00423567Y00492099D03*
X00413767D03*
X00475706Y00539524D03*
X00485506D03*
G54D35*
X00497738Y00480026D03*
Y00489826D03*
X00476894Y00490614D03*
Y00500414D03*
X00507472Y00479883D03*
Y00489683D03*
X00471343Y00437633D03*
Y00427833D03*
X00488369Y00479883D03*
Y00489683D03*
G54D36*
X00498967Y00408891D03*
X0051181D03*
X00536959Y00479979D03*
Y00467279D03*
Y00454579D03*
Y00441879D03*
Y00429179D03*
G54D37*
X00464429Y00505159D03*
X00445429D03*
Y00531159D03*
X00454929D03*
X00464429D03*
G54D38*
X00482669Y00459249D03*
Y00452749D03*
Y00446249D03*
Y00439749D03*
X00522669D03*
Y00446249D03*
Y00452749D03*
Y00459249D03*
G54D39*
X00492919Y00429499D03*
X00499419D03*
X00512419D03*
Y00469499D03*
X00505919D03*
X00499419D03*
X00492919D03*
X00505919Y00429499D03*
G54D40*
X00502669Y00449499D03*
G54D41*
X00359629Y00470599D03*
Y00431099D03*
G54D42*
X00450629Y0045085D03*
G54D43*
X00421913Y00363893D03*
Y00408893D03*
X00400413Y00363893D03*
Y00408893D03*
G54D44*
X00435939Y00396739D03*
X00452439D03*
X00435939Y00409079D03*
X00452439D03*
X00435939Y00359719D03*
X00452439D03*
X00435939Y00372059D03*
X00452439D03*
X00435939Y00384399D03*
X00452439D03*
G54D45*
X00458739Y004826D03*
G54D46*
X0037468Y0051816D03*
Y0038103D03*
X0051181D03*
Y0051816D03*
G54D47*
X00475703Y00511947D03*
X00472525Y00469796D03*
X00497169Y00454999D03*
X00508169D03*
X00497169Y00443999D03*
X00508169D03*
X00538525Y00529796D03*
Y00517796D03*
X00541525Y00511796D03*
X00538525Y00505796D03*
X00541525Y00499796D03*
X00538525Y00493796D03*
X00541525Y00487796D03*
Y00415796D03*
Y00403796D03*
X00538525Y00397797D03*
X00541525Y00391796D03*
X00538525Y00385797D03*
X00541525Y00379797D03*
X00538525Y00373796D03*
X00535525Y00535796D03*
X00532525Y00529796D03*
X00535525Y00523796D03*
Y00511796D03*
X00532525Y00505796D03*
X00535525Y00499796D03*
X00532525Y00397797D03*
X00535525Y00391796D03*
Y00379797D03*
Y00367797D03*
X00532525Y00361796D03*
X00526525Y00541796D03*
X00529525Y00535796D03*
X00526525Y00361796D03*
X00520525Y00541796D03*
X00523525Y00355797D03*
X00514525Y00541796D03*
X00517525Y00355797D03*
X00511525Y00547796D03*
X00508525Y00541796D03*
X00511525Y00355797D03*
X00505525Y00547796D03*
X00502525Y00541796D03*
X00505525Y00355797D03*
X00499525Y00547796D03*
X00496525Y00397797D03*
Y00361796D03*
X00499525Y00355797D03*
X00475525Y00463796D03*
X00466525Y00469796D03*
X00469525Y00463796D03*
X00424525Y00385797D03*
X00421525Y00391796D03*
X00418525Y00385797D03*
X00421525Y00379797D03*
X00415525Y00391796D03*
X00412525Y00385797D03*
X00415525Y00379797D03*
X00412525Y00373796D03*
Y00361796D03*
X00409525Y00391796D03*
X00406525Y00385797D03*
X00409525Y00379797D03*
X00406525Y00373796D03*
X00409525Y00367797D03*
Y00355797D03*
X00400525Y00505796D03*
Y00493796D03*
X00397525Y00511796D03*
X00394525Y00505796D03*
X00397525Y00499796D03*
X00394525Y00493796D03*
X00388525Y00541796D03*
X00391525Y00499796D03*
X00388525Y00493796D03*
Y00361796D03*
X00391525Y00355797D03*
X00385525Y00547796D03*
X00382525Y00541796D03*
Y00493796D03*
X00385525Y00355797D03*
X00379525Y00547796D03*
X00376525Y00541796D03*
Y00493796D03*
X00379525Y00355797D03*
X00373525Y00547796D03*
X00370525Y00541796D03*
Y00493796D03*
X00373525Y00355797D03*
X00364525Y00541796D03*
Y00493796D03*
X00367525Y00487796D03*
Y00451796D03*
X00364525Y00445796D03*
X00367525Y00355797D03*
X00358525Y00541796D03*
Y00493796D03*
X00361525Y00487796D03*
Y00451796D03*
X00358525Y00445796D03*
Y00361796D03*
X00361525Y00355797D03*
X00355525Y00535796D03*
X00352525Y00529796D03*
Y00505796D03*
X00355525Y00499796D03*
X00352525Y00493796D03*
X00355525Y00487796D03*
Y00451796D03*
X00352525Y00445796D03*
Y00373796D03*
X00355525Y00367797D03*
X00352525Y00361796D03*
X00349525Y00523796D03*
X00346525Y00517796D03*
X00349525Y00511796D03*
X00346525Y00505796D03*
X00349525Y00499796D03*
X00346525Y00493796D03*
X00349525Y00487796D03*
Y00451796D03*
X00346525Y00445796D03*
Y00385797D03*
X00349525Y00379797D03*
X00346525Y00373796D03*
X00349525Y00367797D03*
X00484525Y00517796D03*
X00487525Y00511796D03*
X00478525Y00517796D03*
X00481525Y00511796D03*
X00472525Y00517796D03*
X00466525Y00541796D03*
Y00517796D03*
X00460525D03*
X00454525D03*
Y00505796D03*
X00448525Y00541796D03*
Y00517796D03*
X00442525Y00541796D03*
Y00517796D03*
X00436525Y00505796D03*
Y00493796D03*
X00433525Y00499796D03*
X00412525Y00541796D03*
Y00529796D03*
X00457525Y00421796D03*
X00451525D03*
X00412525Y00475796D03*
Y00415796D03*
X00409525Y00481796D03*
X00406525Y00475796D03*
X00409525Y00469796D03*
X00403525Y00481796D03*
X00400525Y00475796D03*
X00403525Y00469796D03*
X00400525Y00463796D03*
X00397525Y00481796D03*
X00394525Y00475796D03*
X00397525Y00469796D03*
X00394525Y00463796D03*
X00397525Y00457796D03*
X00391525Y00481796D03*
X00388525Y00475796D03*
X00391525Y00469796D03*
X00388525Y00463796D03*
X00391525Y00457796D03*
X00388525Y00451796D03*
Y00415796D03*
X00385525Y00481796D03*
X00382525Y00475796D03*
X00385525Y00469796D03*
X00382525Y00463796D03*
X00385525Y00457796D03*
X00382525Y00451796D03*
X00385525Y00445796D03*
X00382525Y00415796D03*
X00379525Y00481796D03*
X00376525Y00475796D03*
X00379525Y00469796D03*
X00376525Y00463796D03*
X00379525Y00457796D03*
X00376525Y00451796D03*
X00379525Y00445796D03*
X00376525Y00439796D03*
Y00415796D03*
X00418525Y00439796D03*
Y00427796D03*
X00412525Y00451796D03*
X00415525Y00445796D03*
X00412525Y00439796D03*
X00415525Y00433796D03*
X00412525Y00427796D03*
X00409525Y00457796D03*
X00406525Y00451796D03*
X00409525Y00445796D03*
X00406525Y00439796D03*
X00409525Y00433796D03*
X00406525Y00427796D03*
X00403525Y00445796D03*
X00400525Y00439796D03*
X00403525Y00433796D03*
X00400525Y00427796D03*
X00397525Y00445796D03*
X00394525Y00439796D03*
X00397525Y00433796D03*
X00394525Y00427796D03*
X00391525Y00433796D03*
X00388525Y00427796D03*
X00458739Y00488099D03*
Y00477099D03*
G54D48*
X00467989Y00490349D02*
Y00492929D01*
Y00490349D02*
X00468239Y00490099D01*
X00464429Y00496489D02*
X00467989Y00492929D01*
X00464429Y00496489D02*
Y00505159D01*
X00468239Y00485099D02*
Y00490099D01*
G54D49*
X00454929Y00531159D02*
Y00559624D01*
G54D50*
X00470565Y00507615D03*
X00464757Y00496734D03*
X00483564Y00500414D03*
X00476894Y00482365D03*
X00476878Y00475145D03*
X00530909Y00447622D03*
X00520665Y00429499D03*
X00526526Y00424608D03*
X00507472Y00496353D03*
X00497921D03*
X00488369D03*
X00527219Y00467279D03*
X003856Y004064D03*
X0036226D03*
X00477449Y00427833D03*
X00526575Y00496053D03*
X00517024D03*
X00352835Y00389539D03*
X00407202Y00501756D03*
X00407018Y00511706D03*
X00492176Y00529908D03*
X00474682Y00446178D03*
X00492176Y00539524D03*
M02*