%FSTAX44Y44*%
%MOMM*%
%SFA1B1*%

%IPPOS*%
%AMD28*
4,1,8,0.200660,0.124460,-0.200660,0.124460,-0.248920,0.076200,-0.248920,-0.076200,-0.200660,-0.124460,0.200660,-0.124460,0.248920,-0.076200,0.248920,0.076200,0.200660,0.124460,0.0*
1,1,0.100000,0.200660,0.076200*
1,1,0.100000,-0.200660,0.076200*
1,1,0.100000,-0.200660,-0.076200*
1,1,0.100000,0.200660,-0.076200*
%
%ADD13R,0.449999X0.499999*%
%ADD14R,1.149998X2.399995*%
%ADD15R,0.999998X0.749999*%
%ADD16R,0.499999X0.449999*%
%ADD17R,0.579999X0.539999*%
%ADD18R,0.539999X0.579999*%
%ADD19C,0.799998*%
%ADD20R,0.499999X0.799998*%
%ADD21O,0.599999X0.150000*%
%ADD22O,0.150000X0.599999*%
%ADD23R,2.499995X2.499995*%
%ADD24R,2.249995X1.949996*%
%ADD25R,2.399995X2.899994*%
%ADD26R,0.499999X0.799998*%
%ADD27R,0.499999X0.649999*%
G04~CAMADD=28~8~0.0~0.0~196.9~98.4~19.7~0.0~15~0.0~0.0~0.0~0.0~0~0.0~0.0~0.0~0.0~0~0.0~0.0~0.0~0.0~196.9~98.4*
%ADD28D28*%
%LNpcb1-1*%
%LPD*%
G36*
X00454239Y00481099D02*
Y00481198D01*
X00454315Y00481382*
X00454456Y00481523*
X0045464Y00481599*
X00454739*
X00462739*
X00462838*
X00463022Y00481523*
X00463163Y00481382*
X00463239Y00481198*
Y00481099*
Y00475099*
Y00474999*
X00463163Y00474816*
X00463022Y00474675*
X00462838Y00474599*
X00462739*
X00454739*
X0045464*
X00454456Y00474675*
X00454315Y00474816*
X00454239Y00474999*
Y00475099*
Y00481099*
G37*
G36*
Y00490099D02*
Y00490199D01*
X00454315Y00490382*
X00454456Y00490523*
X0045464Y00490599*
X00454739*
X00462739*
X00462838*
X00463022Y00490523*
X00463163Y00490382*
X00463239Y00490199*
Y00490099*
Y00484099*
Y00484*
X00463163Y00483816*
X00463022Y00483675*
X00462838Y00483599*
X00462739*
X00454739*
X0045464*
X00454456Y00483675*
X00454315Y00483816*
X00454239Y00484*
Y00484099*
Y00490099*
G37*
G54D13*
X00517024Y00479883D03*
Y00489383D03*
X00526575D03*
Y00479883D03*
G54D14*
X00400769Y00534228D03*
X00425269D03*
G54D15*
X00352835Y00397209D03*
Y00412209D03*
G54D16*
X0036893Y004064D03*
X0037843D03*
G54D17*
X00423488Y00511706D03*
X00413688D03*
X00423672Y00501756D03*
X00413872D03*
X00475706Y00529908D03*
X00485506D03*
X00423567Y00492099D03*
X00413767D03*
X00475706Y00539524D03*
X00485506D03*
G54D18*
X00497738Y00480026D03*
Y00489826D03*
X00476894Y00490614D03*
Y00500414D03*
X00507472Y00479883D03*
Y00489683D03*
X00471343Y00437633D03*
Y00427833D03*
X00488369Y00479883D03*
Y00489683D03*
G54D19*
X00536959Y00479979D03*
Y00467279D03*
Y00454579D03*
Y00441879D03*
Y00429179D03*
G54D20*
X00464429Y00505159D03*
X00445429D03*
Y00531159D03*
X00454929D03*
X00464429D03*
G54D21*
X00482669Y00459249D03*
Y00452749D03*
Y00446249D03*
Y00439749D03*
X00522669D03*
Y00446249D03*
Y00452749D03*
Y00459249D03*
G54D22*
X00492919Y00429499D03*
X00499419D03*
X00512419D03*
Y00469499D03*
X00505919D03*
X00499419D03*
X00492919D03*
X00505919Y00429499D03*
G54D23*
X00502669Y00449499D03*
G54D24*
X00359629Y00470599D03*
Y00431099D03*
G54D25*
X00450629Y0045085D03*
G54D26*
X00421913Y00363893D03*
Y00408893D03*
X00400413Y00363893D03*
Y00408893D03*
G54D27*
X00435939Y00396739D03*
X00452439D03*
X00435939Y00409079D03*
X00452439D03*
X00435939Y00359719D03*
X00452439D03*
X00435939Y00372059D03*
X00452439D03*
X00435939Y00384399D03*
X00452439D03*
G54D28*
X00449239Y00480099D03*
Y00485099D03*
Y00490099D03*
Y00475099D03*
X00468239D03*
Y00480099D03*
Y00485099D03*
Y00490099D03*
M02*