%FSTAX44Y44*%
%MOMM*%
%SFA1B1*%

%IPPOS*%
%AMD28*
4,1,8,0.200660,0.124460,-0.200660,0.124460,-0.248920,0.076200,-0.248920,-0.076200,-0.200660,-0.124460,0.200660,-0.124460,0.248920,-0.076200,0.248920,0.076200,0.200660,0.124460,0.0*
1,1,0.100000,0.200660,0.076200*
1,1,0.100000,-0.200660,0.076200*
1,1,0.100000,-0.200660,-0.076200*
1,1,0.100000,0.200660,-0.076200*
%
%AMD45*
4,1,8,0.401320,0.800100,-0.401320,0.800100,-0.449580,0.749300,-0.449580,-0.749300,-0.401320,-0.800100,0.401320,-0.800100,0.449580,-0.749300,0.449580,0.749300,0.401320,0.800100,0.0*
1,1,0.099000,0.401320,0.749300*
1,1,0.099000,-0.401320,0.749300*
1,1,0.099000,-0.401320,-0.749300*
1,1,0.099000,0.401320,-0.749300*
%
%ADD15R,0.999998X0.749999*%
%ADD19C,0.799998*%
G04~CAMADD=28~8~0.0~0.0~196.9~98.4~19.7~0.0~15~0.0~0.0~0.0~0.0~0~0.0~0.0~0.0~0.0~0~0.0~0.0~0.0~0.0~196.9~98.4*
%ADD28D28*%
%ADD29C,2.299995*%
%ADD30R,2.092896X2.304095*%
%ADD31R,0.649999X0.699999*%
%ADD32R,1.349997X2.599995*%
%ADD33R,0.699999X0.649999*%
%ADD34R,0.779998X0.739999*%
%ADD35R,0.739999X0.779998*%
%ADD36C,0.999998*%
%ADD37R,0.699999X0.999998*%
%ADD38O,0.799998X0.349999*%
%ADD39O,0.349999X0.799998*%
%ADD40R,2.699995X2.699995*%
%ADD41R,2.449995X2.149996*%
%ADD42R,2.599995X3.099994*%
%ADD43R,0.699999X0.999998*%
%ADD44R,0.699999X0.849998*%
G04~CAMADD=45~8~0.0~0.0~354.3~629.9~19.5~0.0~15~0.0~0.0~0.0~0.0~0~0.0~0.0~0.0~0.0~0~0.0~0.0~0.0~0.0~354.3~629.9*
%ADD45D45*%
%ADD46C,3.499993*%
%ADD47C,0.499999*%
%LNpcb1-1*%
%LPD*%
G36*
X00531227Y00419364D02*
X00531294D01*
Y00419331*
Y00419297*
X00531327*
Y00419264*
Y00419231*
Y00419197*
Y00419164*
X0053136*
Y00419131*
Y00419097*
Y00419064*
Y00419031*
Y00418997*
Y00418964*
X00531394*
Y00418931*
Y00418897*
Y00418864*
Y00418831*
Y00418797*
X00531427*
Y00418764*
Y00418731*
Y00418697*
Y00418664*
Y00418631*
X0053146*
Y00418597*
Y00418564*
Y00418531*
Y00418497*
Y00418465*
Y00418431*
X00531495*
Y00418397*
Y00418364*
Y00418331*
Y00418297*
Y00418264*
X00531527*
Y00418231*
Y00418197*
Y00418164*
Y00418131*
Y00418097*
X0053156*
Y00418064*
Y00418031*
Y00417997*
Y00417964*
Y00417931*
Y00417897*
X00531594*
Y00417864*
Y00417831*
Y00417797*
Y00417764*
Y00417731*
X00531627*
Y00417697*
Y00417664*
Y00417631*
Y00417597*
Y00417564*
Y00417531*
X0053166*
Y00417497*
Y00417464*
Y0041743*
Y00417397*
Y00417364*
X00531694*
Y00417331*
Y00417297*
Y00417264*
Y0041723*
Y00417197*
X00531727*
Y00417164*
Y00417131*
Y00417097*
Y00417064*
Y00417031*
Y00416997*
X00531761*
Y00416964*
Y0041693*
Y00416897*
Y00416864*
Y00416831*
X00531794*
Y00416797*
Y00416764*
Y0041673*
X00531827*
Y00416697*
X0053186*
Y00416664*
X00531894*
Y0041663*
X00531994*
Y00416597*
X00532061*
Y00416564*
X00532127*
Y0041653*
X00532227*
Y00416497*
X00532294*
Y00416464*
X00532394*
Y0041643*
X00532461*
Y00416397*
X00532561*
Y00416364*
X00532627*
Y0041633*
X00532727*
Y00416297*
X00532794*
Y00416264*
X00532861*
Y0041623*
X00532961*
Y00416197*
X00533027*
Y00416164*
X00533127*
Y0041613*
X00533194*
Y00416097*
X00533294*
Y00416064*
X00533361*
Y0041603*
X00533461*
Y00415997*
X00533527*
Y00415964*
X00533627*
Y0041593*
X00533694*
Y00415964*
X00533794*
Y00415997*
X00533827*
Y0041603*
X00533894*
Y00416064*
X00533927*
Y00416097*
X00533994*
Y0041613*
X00534027*
Y00416164*
X00534094*
Y00416197*
X00534127*
Y0041623*
X00534194*
Y00416264*
X00534227*
Y00416297*
X00534294*
Y0041633*
X00534327*
Y00416364*
X00534361*
Y00416397*
X00534427*
Y0041643*
X00534461*
Y00416464*
X00534528*
Y00416497*
X00534561*
Y0041653*
X00534627*
Y00416564*
X00534661*
Y00416597*
X00534728*
Y0041663*
X00534761*
Y00416664*
X00534827*
Y00416697*
X00534861*
Y0041673*
X00534894*
Y00416764*
X00534961*
Y00416797*
X00534994*
Y00416831*
X00535061*
Y00416864*
X00535094*
Y00416897*
X00535161*
Y0041693*
X00535194*
Y00416964*
X00535261*
Y00416997*
X00535294*
Y00417031*
X00535361*
Y00417064*
X00535394*
Y00417097*
X00535428*
Y00417131*
X00535494*
Y00417164*
X00535528*
Y00417197*
X00535594*
Y0041723*
X00535628*
Y00417264*
X00535694*
Y00417297*
X00535728*
Y00417331*
X00535794*
Y00417364*
X00535828*
Y00417397*
X00535894*
Y0041743*
X00535994*
Y00417397*
X00536028*
Y00417364*
X00536094*
Y00417331*
X00536128*
Y00417297*
X00536161*
Y00417264*
X00536194*
Y0041723*
X00536228*
Y00417197*
X00536261*
Y00417164*
X00536294*
Y00417131*
X00536328*
Y00417097*
X00536361*
Y00417064*
X00536394*
Y00417031*
X00536428*
Y00416997*
X00536461*
Y00416964*
X00536494*
Y0041693*
X00536528*
Y00416897*
X00536561*
Y00416864*
X00536594*
Y00416831*
X00536628*
Y00416797*
X00536661*
Y00416764*
X00536694*
Y0041673*
X00536728*
Y00416697*
X00536761*
Y00416664*
X00536794*
Y0041663*
X00536829*
Y00416597*
X00536861*
Y00416564*
X00536894*
Y0041653*
X00536928*
Y00416497*
X00536961*
Y00416464*
X00536995*
Y0041643*
X00537028*
Y00416397*
X00537061*
Y00416364*
X00537094*
Y0041633*
X00537128*
Y00416297*
X00537161*
Y00416264*
X00537195*
Y0041623*
X00537228*
Y00416197*
X00537261*
Y00416164*
X00537294*
Y0041613*
X00537328*
Y00416097*
X00537361*
Y00416064*
X00537395*
Y0041603*
X00537428*
Y00415997*
X00537461*
Y00415964*
X00537494*
Y0041593*
X00537528*
Y00415897*
X00537561*
Y00415864*
X00537594*
Y0041583*
X00537628*
Y00415798*
X00537661*
Y00415764*
X00537695*
Y0041573*
X00537728*
Y00415697*
X00537761*
Y00415664*
X00537795*
Y0041563*
Y00415597*
X00537828*
Y00415564*
Y0041553*
Y00415497*
Y00415464*
X00537795*
Y0041543*
Y00415397*
X00537761*
Y00415364*
X00537728*
Y0041533*
Y00415297*
X00537695*
Y00415264*
X00537661*
Y0041523*
X00537628*
Y00415197*
Y00415164*
X00537594*
Y0041513*
X00537561*
Y00415097*
Y00415064*
X00537528*
Y0041503*
X00537494*
Y00414997*
Y00414964*
X00537461*
Y0041493*
X00537428*
Y00414897*
Y00414864*
X00537395*
Y0041483*
X00537361*
Y00414797*
Y00414764*
X00537328*
Y0041473*
X00537294*
Y00414697*
X00537261*
Y00414663*
Y0041463*
X00537228*
Y00414597*
X00537195*
Y00414564*
Y0041453*
X00537161*
Y00414497*
X00537128*
Y00414463*
Y0041443*
X00537094*
Y00414397*
X00537061*
Y00414364*
Y0041433*
X00537028*
Y00414297*
X00536995*
Y00414263*
Y0041423*
X00536961*
Y00414197*
X00536928*
Y00414164*
Y0041413*
X00536894*
Y00414097*
X00536861*
Y00414063*
X00536829*
Y0041403*
Y00413997*
X00536794*
Y00413963*
X00536761*
Y0041393*
Y00413897*
X00536728*
Y00413863*
X00536694*
Y0041383*
Y00413797*
X00536661*
Y00413763*
X00536628*
Y0041373*
Y00413697*
X00536594*
Y00413663*
X00536561*
Y0041363*
Y00413597*
X00536528*
Y00413563*
X00536494*
Y0041353*
X00536461*
Y00413497*
Y00413463*
X00536428*
Y0041343*
X00536394*
Y00413397*
Y00413363*
Y0041333*
X00536361*
Y00413297*
X00536394*
Y00413263*
Y0041323*
Y00413197*
Y00413163*
X00536428*
Y00413131*
Y00413097*
X00536461*
Y00413063*
Y0041303*
Y00412997*
X00536494*
Y00412963*
Y0041293*
X00536528*
Y00412897*
Y00412863*
X00536561*
Y0041283*
Y00412797*
Y00412763*
X00536594*
Y0041273*
Y00412697*
X00536628*
Y00412663*
Y0041263*
X00536661*
Y00412597*
Y00412563*
Y0041253*
X00536694*
Y00412497*
Y00412463*
X00536728*
Y0041243*
Y00412397*
X00536761*
Y00412363*
Y0041233*
Y00412297*
X00536794*
Y00412263*
Y0041223*
X00536829*
Y00412196*
Y00412163*
X00536861*
Y0041213*
Y00412097*
Y00412063*
X00536894*
Y0041203*
Y00411996*
X00536928*
Y00411963*
Y0041193*
X00536961*
Y00411897*
Y00411863*
Y0041183*
X00536995*
Y00411796*
Y00411763*
X00537028*
Y0041173*
Y00411697*
X00537061*
Y00411663*
Y0041163*
Y00411597*
X00537094*
Y00411563*
Y0041153*
X00537128*
Y00411496*
Y00411463*
X00537161*
Y0041143*
X00537195*
Y00411396*
X00537228*
Y00411363*
X00537361*
Y0041133*
X00537528*
Y00411296*
X00537695*
Y00411263*
X00537895*
Y0041123*
X00538061*
Y00411196*
X00538228*
Y00411163*
X00538428*
Y0041113*
X00538595*
Y00411096*
X00538795*
Y00411063*
X00538961*
Y0041103*
X00539128*
Y00410996*
X00539328*
Y00410963*
X00539496*
Y0041093*
X00539662*
Y00410896*
X00539761*
Y00410863*
X00539795*
Y0041083*
Y00410796*
Y00410763*
Y0041073*
Y00410696*
Y00410663*
Y0041063*
Y00410596*
Y00410563*
Y0041053*
Y00410496*
Y00410464*
Y0041043*
Y00410396*
Y00410363*
Y0041033*
Y00410296*
Y00410263*
Y0041023*
Y00410196*
Y00410163*
Y0041013*
Y00410096*
Y00410063*
Y0041003*
Y00409996*
Y00409963*
Y0040993*
Y00409896*
Y00409863*
Y0040983*
Y00409796*
Y00409763*
Y0040973*
Y00409696*
Y00409663*
Y0040963*
Y00409596*
Y00409563*
Y00409529*
Y00409496*
Y00409463*
Y0040943*
Y00409396*
Y00409363*
Y00409329*
Y00409296*
Y00409263*
Y00409229*
Y00409196*
Y00409163*
Y0040913*
Y00409096*
Y00409063*
Y00409029*
Y00408996*
Y00408963*
Y0040893*
Y00408896*
Y00408863*
Y00408829*
Y00408796*
Y00408763*
Y00408729*
Y00408696*
Y00408663*
Y00408629*
Y00408596*
Y00408563*
Y00408529*
Y00408496*
Y00408463*
Y00408429*
Y00408396*
Y00408363*
Y00408329*
Y00408296*
Y00408263*
Y00408229*
X00539761*
Y00408196*
X00539728*
Y00408163*
X00539628*
Y00408129*
X00539461*
Y00408096*
X00539261*
Y00408063*
X00539095*
Y00408029*
X00538928*
Y00407996*
X00538728*
Y00407963*
X00538561*
Y00407929*
X00538395*
Y00407896*
X00538195*
Y00407863*
X00538028*
Y00407829*
X00537828*
Y00407797*
X00537661*
Y00407763*
X00537494*
Y00407729*
X00537328*
Y00407696*
X00537261*
Y00407663*
X00537228*
Y00407629*
X00537195*
Y00407596*
Y00407563*
X00537161*
Y00407529*
Y00407496*
Y00407463*
X00537128*
Y00407429*
Y00407396*
X00537094*
Y00407363*
Y00407329*
Y00407296*
X00537061*
Y00407263*
Y00407229*
X00537028*
Y00407196*
Y00407163*
Y00407129*
X00536995*
Y00407096*
Y00407063*
X00536961*
Y00407029*
Y00406996*
Y00406963*
X00536928*
Y00406929*
Y00406896*
X00536894*
Y00406863*
Y00406829*
Y00406796*
X00536861*
Y00406762*
Y00406729*
X00536829*
Y00406696*
Y00406663*
Y00406629*
X00536794*
Y00406596*
Y00406562*
X00536761*
Y00406529*
Y00406496*
Y00406463*
X00536728*
Y00406429*
Y00406396*
X00536694*
Y00406362*
Y00406329*
Y00406296*
X00536661*
Y00406263*
Y00406229*
X00536628*
Y00406196*
Y00406162*
Y00406129*
X00536594*
Y00406096*
Y00406062*
X00536561*
Y00406029*
Y00405996*
Y00405962*
X00536528*
Y00405929*
Y00405896*
X00536494*
Y00405862*
Y00405829*
Y00405796*
X00536461*
Y00405762*
Y00405729*
Y00405696*
Y00405662*
Y00405629*
Y00405596*
Y00405562*
X00536494*
Y00405529*
Y00405496*
X00536528*
Y00405462*
X00536561*
Y00405429*
Y00405396*
X00536594*
Y00405362*
X00536628*
Y00405329*
Y00405296*
X00536661*
Y00405262*
X00536694*
Y00405229*
X00536728*
Y00405196*
Y00405162*
X00536761*
Y0040513*
X00536794*
Y00405096*
Y00405062*
X00536829*
Y00405029*
X00536861*
Y00404996*
Y00404962*
X00536894*
Y00404929*
X00536928*
Y00404896*
Y00404862*
X00536961*
Y00404829*
X00536995*
Y00404796*
Y00404762*
X00537028*
Y00404729*
X00537061*
Y00404696*
Y00404662*
X00537094*
Y00404629*
X00537128*
Y00404596*
X00537161*
Y00404562*
Y00404529*
X00537195*
Y00404496*
X00537228*
Y00404462*
Y00404429*
X00537261*
Y00404396*
X00537294*
Y00404362*
Y00404329*
X00537328*
Y00404296*
X00537361*
Y00404262*
Y00404229*
X00537395*
Y00404196*
X00537428*
Y00404162*
Y00404129*
X00537461*
Y00404095*
X00537494*
Y00404062*
X00537528*
Y00404029*
Y00403996*
X00537561*
Y00403962*
X00537594*
Y00403929*
Y00403895*
X00537628*
Y00403862*
X00537661*
Y00403829*
Y00403796*
X00537695*
Y00403762*
X00537728*
Y00403729*
Y00403696*
X00537761*
Y00403662*
X00537795*
Y00403629*
Y00403595*
X00537828*
Y00403562*
Y00403529*
Y00403496*
Y00403462*
X00537795*
Y00403429*
X00537761*
Y00403395*
X00537728*
Y00403362*
X00537695*
Y00403329*
X00537661*
Y00403295*
X00537628*
Y00403262*
X00537594*
Y00403229*
X00537561*
Y00403195*
X00537528*
Y00403162*
X00537494*
Y00403129*
X00537461*
Y00403095*
X00537428*
Y00403062*
X00537395*
Y00403029*
X00537361*
Y00402995*
X00537328*
Y00402962*
X00537294*
Y00402929*
X00537261*
Y00402895*
X00537228*
Y00402862*
X00537195*
Y00402829*
X00537161*
Y00402795*
X00537128*
Y00402762*
X00537094*
Y00402729*
X00537061*
Y00402695*
X00537028*
Y00402662*
X00536995*
Y00402629*
X00536961*
Y00402595*
X00536928*
Y00402562*
X00536894*
Y00402529*
X00536861*
Y00402495*
X00536829*
Y00402463*
X00536794*
Y00402429*
X00536761*
Y00402395*
X00536728*
Y00402362*
X00536694*
Y00402329*
X00536661*
Y00402295*
X00536628*
Y00402262*
X00536594*
Y00402229*
X00536561*
Y00402195*
X00536528*
Y00402162*
X00536494*
Y00402129*
X00536461*
Y00402095*
X00536428*
Y00402062*
X00536394*
Y00402029*
X00536361*
Y00401995*
X00536328*
Y00401962*
X00536294*
Y00401929*
X00536261*
Y00401895*
X00536228*
Y00401862*
X00536194*
Y00401829*
X00536161*
Y00401795*
X00536128*
Y00401762*
X00536094*
Y00401729*
X00536061*
Y00401695*
X00536028*
Y00401662*
X00535961*
Y00401629*
X00535928*
Y00401662*
X00535828*
Y00401695*
X00535794*
Y00401729*
X00535761*
Y00401762*
X00535694*
Y00401795*
X00535661*
Y00401829*
X00535594*
Y00401862*
X00535561*
Y00401895*
X00535494*
Y00401929*
X00535461*
Y00401962*
X00535394*
Y00401995*
X00535361*
Y00402029*
X00535294*
Y00402062*
X00535261*
Y00402095*
X00535194*
Y00402129*
X00535161*
Y00402162*
X00535128*
Y00402195*
X00535061*
Y00402229*
X00535027*
Y00402262*
X00534961*
Y00402295*
X00534928*
Y00402329*
X00534861*
Y00402362*
X00534827*
Y00402395*
X00534761*
Y00402429*
X00534728*
Y00402463*
X00534661*
Y00402495*
X00534627*
Y00402529*
X00534594*
Y00402562*
X00534528*
Y00402595*
X00534494*
Y00402629*
X00534427*
Y00402662*
X00534394*
Y00402695*
X00534327*
Y00402729*
X00534294*
Y00402762*
X00534227*
Y00402795*
X00534194*
Y00402829*
X00534127*
Y00402862*
X00534094*
Y00402895*
X00534061*
Y00402929*
X00533994*
Y00402962*
X00533961*
Y00402995*
X00533761*
Y00402962*
X00533694*
Y00402929*
X00533627*
Y00402895*
X00533561*
Y00402862*
X00533494*
Y00402829*
X00533427*
Y00402795*
X00533361*
Y00402762*
X00533327*
Y00402729*
X00533261*
Y00402695*
X00533194*
Y00402662*
X00533127*
Y00402629*
X00533061*
Y00402595*
X00532994*
Y00402562*
X00532927*
Y00402529*
X00532794*
Y00402562*
Y00402595*
X00532761*
Y00402629*
Y00402662*
X00532727*
Y00402695*
Y00402729*
Y00402762*
X00532694*
Y00402795*
Y00402829*
X00532661*
Y00402862*
Y00402895*
X00532627*
Y00402929*
Y00402962*
Y00402995*
X00532594*
Y00403029*
Y00403062*
X00532561*
Y00403095*
Y00403129*
Y00403162*
X00532527*
Y00403195*
Y00403229*
X00532494*
Y00403262*
Y00403295*
X00532461*
Y00403329*
Y00403362*
Y00403395*
X00532427*
Y00403429*
Y00403462*
X00532394*
Y00403496*
Y00403529*
Y00403562*
X0053236*
Y00403595*
Y00403629*
X00532327*
Y00403662*
Y00403696*
Y00403729*
X00532294*
Y00403762*
Y00403796*
X00532261*
Y00403829*
Y00403862*
X00532227*
Y00403895*
Y00403929*
Y00403962*
X00532194*
Y00403996*
Y00404029*
X0053216*
Y00404062*
Y00404095*
Y00404129*
X00532127*
Y00404162*
Y00404196*
X00532094*
Y00404229*
Y00404262*
X00532061*
Y00404296*
Y00404329*
Y00404362*
X00532027*
Y00404396*
Y00404429*
X00531994*
Y00404462*
Y00404496*
Y00404529*
X00531961*
Y00404562*
Y00404596*
X00531927*
Y00404629*
Y00404662*
Y00404696*
X00531894*
Y00404729*
Y00404762*
X0053186*
Y00404796*
Y00404829*
X00531827*
Y00404862*
Y00404896*
Y00404929*
X00531794*
Y00404962*
Y00404996*
X00531761*
Y00405029*
Y00405062*
Y00405096*
X00531727*
Y0040513*
Y00405162*
X00531694*
Y00405196*
Y00405229*
X0053166*
Y00405262*
Y00405296*
Y00405329*
X00531627*
Y00405362*
Y00405396*
X00531594*
Y00405429*
Y00405462*
Y00405496*
X0053156*
Y00405529*
Y00405562*
X00531527*
Y00405596*
Y00405629*
Y00405662*
X00531495*
Y00405696*
Y00405729*
X0053146*
Y00405762*
Y00405796*
X00531427*
Y00405829*
Y00405862*
Y00405896*
X00531394*
Y00405929*
Y00405962*
X0053136*
Y00405996*
Y00406029*
Y00406062*
X00531327*
Y00406096*
Y00406129*
X00531294*
Y00406162*
Y00406196*
X0053126*
Y00406229*
Y00406263*
Y00406296*
X00531227*
Y00406329*
Y00406362*
X00531194*
Y00406396*
Y00406429*
Y00406463*
X0053116*
Y00406496*
Y00406529*
X00531127*
Y00406562*
Y00406596*
X00531094*
Y00406629*
Y00406663*
Y00406696*
X0053106*
Y00406729*
Y00406762*
X00531027*
Y00406796*
Y00406829*
Y00406863*
Y00406896*
Y00406929*
X0053106*
Y00406963*
X00531094*
Y00406996*
X0053116*
Y00407029*
X00531227*
Y00407063*
X0053126*
Y00407096*
X00531327*
Y00407129*
X0053136*
Y00407163*
X00531394*
Y00407196*
X0053146*
Y00407229*
X00531495*
Y00407263*
X00531527*
Y00407296*
X00531594*
Y00407329*
X00531627*
Y00407363*
X00531694*
Y00407396*
X00531727*
Y00407429*
X00531761*
Y00407463*
X00531794*
Y00407496*
X00531827*
Y00407529*
X0053186*
Y00407563*
X00531894*
Y00407596*
X00531927*
Y00407629*
X00531961*
Y00407663*
X00531994*
Y00407696*
X00532027*
Y00407729*
X00532061*
Y00407763*
Y00407797*
X00532094*
Y00407829*
X00532127*
Y00407863*
X0053216*
Y00407896*
X00532194*
Y00407929*
Y00407963*
X00532227*
Y00407996*
X00532261*
Y00408029*
Y00408063*
X00532294*
Y00408096*
Y00408129*
X00532327*
Y00408163*
X0053236*
Y00408196*
Y00408229*
X00532394*
Y00408263*
Y00408296*
X00532427*
Y00408329*
Y00408363*
X00532461*
Y00408396*
Y00408429*
X00532494*
Y00408463*
Y00408496*
Y00408529*
X00532527*
Y00408563*
Y00408596*
Y00408629*
X00532561*
Y00408663*
Y00408696*
Y00408729*
X00532594*
Y00408763*
Y00408796*
Y00408829*
X00532627*
Y00408863*
Y00408896*
Y0040893*
Y00408963*
Y00408996*
X00532661*
Y00409029*
Y00409063*
Y00409096*
Y0040913*
Y00409163*
X00532694*
Y00409196*
Y00409229*
Y00409263*
Y00409296*
Y00409329*
Y00409363*
Y00409396*
Y0040943*
Y00409463*
Y00409496*
Y00409529*
Y00409563*
Y00409596*
Y0040963*
Y00409663*
Y00409696*
Y0040973*
Y00409763*
Y00409796*
Y0040983*
Y00409863*
X00532661*
Y00409896*
Y0040993*
Y00409963*
Y00409996*
Y0041003*
Y00410063*
X00532627*
Y00410096*
Y0041013*
Y00410163*
Y00410196*
X00532594*
Y0041023*
Y00410263*
Y00410296*
Y0041033*
X00532561*
Y00410363*
Y00410396*
Y0041043*
X00532527*
Y00410464*
Y00410496*
Y0041053*
X00532494*
Y00410563*
Y00410596*
X00532461*
Y0041063*
Y00410663*
X00532427*
Y00410696*
Y0041073*
X00532394*
Y00410763*
Y00410796*
X0053236*
Y0041083*
Y00410863*
X00532327*
Y00410896*
Y0041093*
X00532294*
Y00410963*
Y00410996*
X00532261*
Y0041103*
X00532227*
Y00411063*
Y00411096*
X00532194*
Y0041113*
X0053216*
Y00411163*
X00532127*
Y00411196*
Y0041123*
X00532094*
Y00411263*
X00532061*
Y00411296*
X00532027*
Y0041133*
X00531994*
Y00411363*
X00531961*
Y00411396*
X00531927*
Y0041143*
Y00411463*
X00531894*
Y00411496*
X00531827*
Y0041153*
X00531794*
Y00411563*
X00531761*
Y00411597*
X00531727*
Y0041163*
X00531694*
Y00411663*
X0053166*
Y00411697*
X00531594*
Y0041173*
X0053156*
Y00411763*
X00531527*
Y00411796*
X0053146*
Y0041183*
X00531427*
Y00411863*
X0053136*
Y00411897*
X00531294*
Y0041193*
X0053126*
Y00411963*
X00531194*
Y00411996*
X00531127*
Y0041203*
X00531027*
Y00412063*
X0053096*
Y00412097*
X0053086*
Y0041213*
X00530794*
Y00412163*
X0053066*
Y00412196*
X00530527*
Y0041223*
X00530327*
Y00412263*
X0052956*
Y0041223*
X0052936*
Y00412196*
X00529227*
Y00412163*
X00529094*
Y0041213*
X00529027*
Y00412097*
X00528927*
Y00412063*
X0052886*
Y0041203*
X0052876*
Y00411996*
X00528693*
Y00411963*
X00528627*
Y0041193*
X00528593*
Y00411897*
X00528527*
Y00411863*
X0052846*
Y0041183*
X00528427*
Y00411796*
X0052836*
Y00411763*
X00528327*
Y0041173*
X00528293*
Y00411697*
X00528227*
Y00411663*
X00528193*
Y0041163*
X0052816*
Y00411597*
X00528127*
Y00411563*
X00528093*
Y0041153*
X0052806*
Y00411496*
X00527993*
Y00411463*
X0052796*
Y0041143*
Y00411396*
X00527927*
Y00411363*
X00527893*
Y0041133*
X0052786*
Y00411296*
X00527827*
Y00411263*
X00527793*
Y0041123*
X0052776*
Y00411196*
Y00411163*
X00527727*
Y0041113*
X00527693*
Y00411096*
X0052766*
Y00411063*
Y0041103*
X00527627*
Y00410996*
X00527593*
Y00410963*
Y0041093*
X0052756*
Y00410896*
Y00410863*
X00527527*
Y0041083*
Y00410796*
X00527493*
Y00410763*
Y0041073*
X0052746*
Y00410696*
Y00410663*
X00527427*
Y0041063*
Y00410596*
X00527393*
Y00410563*
Y0041053*
X0052736*
Y00410496*
Y00410464*
Y0041043*
X00527327*
Y00410396*
Y00410363*
Y0041033*
X00527293*
Y00410296*
Y00410263*
Y0041023*
Y00410196*
X0052726*
Y00410163*
Y0041013*
Y00410096*
Y00410063*
X00527227*
Y0041003*
Y00409996*
Y00409963*
Y0040993*
Y00409896*
Y00409863*
X00527193*
Y0040983*
Y00409796*
Y00409763*
Y0040973*
Y00409696*
Y00409663*
Y0040963*
Y00409596*
Y00409563*
Y00409529*
Y00409496*
Y00409463*
Y0040943*
Y00409396*
Y00409363*
Y00409329*
Y00409296*
Y00409263*
Y00409229*
Y00409196*
Y00409163*
X00527227*
Y0040913*
Y00409096*
Y00409063*
Y00409029*
Y00408996*
X0052726*
Y00408963*
Y0040893*
Y00408896*
Y00408863*
Y00408829*
X00527293*
Y00408796*
Y00408763*
Y00408729*
X00527327*
Y00408696*
Y00408663*
Y00408629*
X0052736*
Y00408596*
Y00408563*
Y00408529*
X00527393*
Y00408496*
Y00408463*
Y00408429*
X00527427*
Y00408396*
Y00408363*
X0052746*
Y00408329*
Y00408296*
X00527493*
Y00408263*
Y00408229*
X00527527*
Y00408196*
Y00408163*
X0052756*
Y00408129*
X00527593*
Y00408096*
Y00408063*
X00527627*
Y00408029*
Y00407996*
X0052766*
Y00407963*
X00527693*
Y00407929*
Y00407896*
X00527727*
Y00407863*
X0052776*
Y00407829*
X00527793*
Y00407797*
X00527827*
Y00407763*
Y00407729*
X0052786*
Y00407696*
X00527893*
Y00407663*
X00527927*
Y00407629*
X0052796*
Y00407596*
X00527993*
Y00407563*
X00528027*
Y00407529*
X0052806*
Y00407496*
X00528093*
Y00407463*
X00528127*
Y00407429*
X0052816*
Y00407396*
X00528193*
Y00407363*
X0052826*
Y00407329*
X00528293*
Y00407296*
X0052836*
Y00407263*
X00528393*
Y00407229*
X00528427*
Y00407196*
X00528493*
Y00407163*
X00528527*
Y00407129*
X0052856*
Y00407096*
X00528627*
Y00407063*
X0052866*
Y00407029*
X00528727*
Y00406996*
X00528793*
Y00406963*
X00528828*
Y00406929*
X0052886*
Y00406896*
Y00406863*
Y00406829*
Y00406796*
Y00406762*
X00528828*
Y00406729*
Y00406696*
X00528793*
Y00406663*
Y00406629*
Y00406596*
X0052876*
Y00406562*
Y00406529*
X00528727*
Y00406496*
Y00406463*
X00528693*
Y00406429*
Y00406396*
Y00406362*
X0052866*
Y00406329*
Y00406296*
X00528627*
Y00406263*
Y00406229*
Y00406196*
X00528593*
Y00406162*
Y00406129*
X0052856*
Y00406096*
Y00406062*
X00528527*
Y00406029*
Y00405996*
Y00405962*
X00528493*
Y00405929*
Y00405896*
X0052846*
Y00405862*
Y00405829*
Y00405796*
X00528427*
Y00405762*
Y00405729*
X00528393*
Y00405696*
Y00405662*
X0052836*
Y00405629*
Y00405596*
Y00405562*
X00528327*
Y00405529*
Y00405496*
X00528293*
Y00405462*
Y00405429*
Y00405396*
X0052826*
Y00405362*
Y00405329*
X00528227*
Y00405296*
Y00405262*
Y00405229*
X00528193*
Y00405196*
Y00405162*
X0052816*
Y0040513*
Y00405096*
X00528127*
Y00405062*
Y00405029*
Y00404996*
X00528093*
Y00404962*
Y00404929*
X0052806*
Y00404896*
Y00404862*
Y00404829*
X00528027*
Y00404796*
Y00404762*
X00527993*
Y00404729*
Y00404696*
X0052796*
Y00404662*
Y00404629*
Y00404596*
X00527927*
Y00404562*
Y00404529*
X00527893*
Y00404496*
Y00404462*
Y00404429*
X0052786*
Y00404396*
Y00404362*
X00527827*
Y00404329*
Y00404296*
Y00404262*
X00527793*
Y00404229*
Y00404196*
X0052776*
Y00404162*
Y00404129*
X00527727*
Y00404095*
Y00404062*
Y00404029*
X00527693*
Y00403996*
Y00403962*
X0052766*
Y00403929*
Y00403895*
Y00403862*
X00527627*
Y00403829*
Y00403796*
X00527593*
Y00403762*
Y00403729*
X0052756*
Y00403696*
Y00403662*
Y00403629*
X00527527*
Y00403595*
Y00403562*
X00527493*
Y00403529*
Y00403496*
Y00403462*
X0052746*
Y00403429*
Y00403395*
X00527427*
Y00403362*
Y00403329*
Y00403295*
X00527393*
Y00403262*
Y00403229*
X0052736*
Y00403195*
Y00403162*
X00527327*
Y00403129*
Y00403095*
Y00403062*
X00527293*
Y00403029*
Y00402995*
X0052726*
Y00402962*
Y00402929*
Y00402895*
X00527227*
Y00402862*
Y00402829*
X00527193*
Y00402795*
Y00402762*
X0052716*
Y00402729*
Y00402695*
Y00402662*
X00527127*
Y00402629*
Y00402595*
X00527093*
Y00402562*
Y00402529*
X0052696*
Y00402562*
X00526893*
Y00402595*
X00526827*
Y00402629*
X0052676*
Y00402662*
X00526693*
Y00402695*
X00526627*
Y00402729*
X0052656*
Y00402762*
X00526526*
Y00402795*
X0052646*
Y00402829*
X00526393*
Y00402862*
X00526327*
Y00402895*
X0052626*
Y00402929*
X00526193*
Y00402962*
X00526126*
Y00402995*
X00525926*
Y00402962*
X00525893*
Y00402929*
X00525826*
Y00402895*
X00525793*
Y00402862*
X0052576*
Y00402829*
X00525693*
Y00402795*
X0052566*
Y00402762*
X00525593*
Y00402729*
X0052556*
Y00402695*
X00525493*
Y00402662*
X0052546*
Y00402629*
X00525393*
Y00402595*
X0052536*
Y00402562*
X00525293*
Y00402529*
X0052526*
Y00402495*
X00525226*
Y00402463*
X0052516*
Y00402429*
X00525126*
Y00402395*
X0052506*
Y00402362*
X00525026*
Y00402329*
X0052496*
Y00402295*
X00524926*
Y00402262*
X0052486*
Y00402229*
X00524826*
Y00402195*
X0052476*
Y00402162*
X00524726*
Y00402129*
X00524693*
Y00402095*
X00524626*
Y00402062*
X00524593*
Y00402029*
X00524526*
Y00401995*
X00524493*
Y00401962*
X00524426*
Y00401929*
X00524393*
Y00401895*
X00524326*
Y00401862*
X00524293*
Y00401829*
X00524226*
Y00401795*
X00524193*
Y00401762*
X00524126*
Y00401729*
X00524093*
Y00401695*
X0052406*
Y00401662*
X00523959*
Y00401629*
X00523926*
Y00401662*
X0052386*
Y00401695*
X00523826*
Y00401729*
X00523793*
Y00401762*
X00523759*
Y00401795*
X00523726*
Y00401829*
X00523693*
Y00401862*
X0052366*
Y00401895*
X00523626*
Y00401929*
X00523593*
Y00401962*
X00523559*
Y00401995*
X00523526*
Y00402029*
X00523494*
Y00402062*
X00523459*
Y00402095*
X00523426*
Y00402129*
X00523393*
Y00402162*
X00523359*
Y00402195*
X00523326*
Y00402229*
X00523293*
Y00402262*
X00523259*
Y00402295*
X00523226*
Y00402329*
X00523193*
Y00402362*
X00523159*
Y00402395*
X00523126*
Y00402429*
X00523093*
Y00402463*
X00523059*
Y00402495*
X00523026*
Y00402529*
X00522993*
Y00402562*
X00522959*
Y00402595*
X00522926*
Y00402629*
X00522893*
Y00402662*
X00522859*
Y00402695*
X00522826*
Y00402729*
X00522793*
Y00402762*
X00522759*
Y00402795*
X00522726*
Y00402829*
X00522693*
Y00402862*
X00522659*
Y00402895*
X00522626*
Y00402929*
X00522593*
Y00402962*
X00522559*
Y00402995*
X00522526*
Y00403029*
X00522493*
Y00403062*
X00522459*
Y00403095*
X00522426*
Y00403129*
X00522393*
Y00403162*
X00522359*
Y00403195*
X00522326*
Y00403229*
X00522293*
Y00403262*
X00522259*
Y00403295*
X00522226*
Y00403329*
X00522193*
Y00403362*
X00522159*
Y00403395*
X00522126*
Y00403429*
X00522093*
Y00403462*
X00522059*
Y00403496*
Y00403529*
Y00403562*
Y00403595*
X00522093*
Y00403629*
Y00403662*
X00522126*
Y00403696*
X00522159*
Y00403729*
Y00403762*
X00522193*
Y00403796*
X00522226*
Y00403829*
Y00403862*
X00522259*
Y00403895*
X00522293*
Y00403929*
Y00403962*
X00522326*
Y00403996*
X00522359*
Y00404029*
Y00404062*
X00522393*
Y00404095*
X00522426*
Y00404129*
X00522459*
Y00404162*
Y00404196*
X00522493*
Y00404229*
X00522526*
Y00404262*
Y00404296*
X00522559*
Y00404329*
X00522593*
Y00404362*
Y00404396*
X00522626*
Y00404429*
X00522659*
Y00404462*
Y00404496*
X00522693*
Y00404529*
X00522726*
Y00404562*
Y00404596*
X00522759*
Y00404629*
X00522793*
Y00404662*
X00522826*
Y00404696*
Y00404729*
X00522859*
Y00404762*
X00522893*
Y00404796*
Y00404829*
X00522926*
Y00404862*
X00522959*
Y00404896*
Y00404929*
X00522993*
Y00404962*
X00523026*
Y00404996*
Y00405029*
X00523059*
Y00405062*
X00523093*
Y00405096*
Y0040513*
X00523126*
Y00405162*
X00523159*
Y00405196*
Y00405229*
X00523193*
Y00405262*
X00523226*
Y00405296*
X00523259*
Y00405329*
Y00405362*
X00523293*
Y00405396*
X00523326*
Y00405429*
Y00405462*
X00523359*
Y00405496*
X00523393*
Y00405529*
Y00405562*
X00523426*
Y00405596*
Y00405629*
Y00405662*
Y00405696*
Y00405729*
Y00405762*
Y00405796*
X00523393*
Y00405829*
Y00405862*
Y00405896*
X00523359*
Y00405929*
Y00405962*
X00523326*
Y00405996*
Y00406029*
Y00406062*
X00523293*
Y00406096*
Y00406129*
X00523259*
Y00406162*
Y00406196*
Y00406229*
X00523226*
Y00406263*
Y00406296*
X00523193*
Y00406329*
Y00406362*
Y00406396*
X00523159*
Y00406429*
Y00406463*
X00523126*
Y00406496*
Y00406529*
Y00406562*
X00523093*
Y00406596*
Y00406629*
X00523059*
Y00406663*
Y00406696*
Y00406729*
X00523026*
Y00406762*
Y00406796*
X00522993*
Y00406829*
Y00406863*
Y00406896*
X00522959*
Y00406929*
Y00406963*
X00522926*
Y00406996*
Y00407029*
Y00407063*
X00522893*
Y00407096*
Y00407129*
X00522859*
Y00407163*
Y00407196*
Y00407229*
X00522826*
Y00407263*
Y00407296*
X00522793*
Y00407329*
Y00407363*
Y00407396*
X00522759*
Y00407429*
Y00407463*
X00522726*
Y00407496*
Y00407529*
Y00407563*
X00522693*
Y00407596*
Y00407629*
X00522659*
Y00407663*
X00522626*
Y00407696*
X00522559*
Y00407729*
X00522393*
Y00407763*
X00522226*
Y00407797*
X00522059*
Y00407829*
X00521859*
Y00407863*
X00521692*
Y00407896*
X00521492*
Y00407929*
X00521326*
Y00407963*
X00521159*
Y00407996*
X00520959*
Y00408029*
X00520792*
Y00408063*
X00520626*
Y00408096*
X00520426*
Y00408129*
X00520259*
Y00408163*
X00520159*
Y00408196*
X00520126*
Y00408229*
X00520092*
Y00408263*
Y00408296*
Y00408329*
Y00408363*
Y00408396*
Y00408429*
Y00408463*
Y00408496*
Y00408529*
Y00408563*
Y00408596*
Y00408629*
Y00408663*
Y00408696*
Y00408729*
Y00408763*
Y00408796*
Y00408829*
Y00408863*
Y00408896*
Y0040893*
Y00408963*
Y00408996*
Y00409029*
Y00409063*
Y00409096*
Y0040913*
Y00409163*
Y00409196*
Y00409229*
Y00409263*
Y00409296*
Y00409329*
Y00409363*
Y00409396*
Y0040943*
Y00409463*
Y00409496*
Y00409529*
Y00409563*
Y00409596*
Y0040963*
Y00409663*
Y00409696*
Y0040973*
Y00409763*
Y00409796*
Y0040983*
Y00409863*
Y00409896*
Y0040993*
Y00409963*
Y00409996*
Y0041003*
Y00410063*
Y00410096*
Y0041013*
Y00410163*
Y00410196*
Y0041023*
Y00410263*
Y00410296*
Y0041033*
Y00410363*
Y00410396*
Y0041043*
Y00410464*
Y00410496*
Y0041053*
Y00410563*
Y00410596*
Y0041063*
Y00410663*
Y00410696*
Y0041073*
Y00410763*
Y00410796*
Y0041083*
Y00410863*
X00520126*
Y00410896*
X00520226*
Y0041093*
X00520392*
Y00410963*
X00520559*
Y00410996*
X00520759*
Y0041103*
X00520926*
Y00411063*
X00521092*
Y00411096*
X00521292*
Y0041113*
X00521459*
Y00411163*
X00521659*
Y00411196*
X00521826*
Y0041123*
X00521993*
Y00411263*
X00522193*
Y00411296*
X00522359*
Y0041133*
X00522526*
Y00411363*
X00522659*
Y00411396*
X00522693*
Y0041143*
X00522726*
Y00411463*
X00522759*
Y00411496*
Y0041153*
X00522793*
Y00411563*
Y00411597*
X00522826*
Y0041163*
Y00411663*
Y00411697*
X00522859*
Y0041173*
Y00411763*
X00522893*
Y00411796*
Y0041183*
X00522926*
Y00411863*
Y00411897*
Y0041193*
X00522959*
Y00411963*
Y00411996*
X00522993*
Y0041203*
Y00412063*
X00523026*
Y00412097*
Y0041213*
Y00412163*
X00523059*
Y00412196*
Y0041223*
X00523093*
Y00412263*
Y00412297*
X00523126*
Y0041233*
Y00412363*
Y00412397*
X00523159*
Y0041243*
Y00412463*
X00523193*
Y00412497*
Y0041253*
X00523226*
Y00412563*
Y00412597*
Y0041263*
X00523259*
Y00412663*
Y00412697*
X00523293*
Y0041273*
Y00412763*
X00523326*
Y00412797*
Y0041283*
Y00412863*
X00523359*
Y00412897*
Y0041293*
X00523393*
Y00412963*
Y00412997*
X00523426*
Y0041303*
Y00413063*
Y00413097*
X00523459*
Y00413131*
Y00413163*
X00523494*
Y00413197*
Y0041323*
Y00413263*
Y00413297*
X00523526*
Y0041333*
X00523494*
Y00413363*
Y00413397*
Y0041343*
X00523459*
Y00413463*
X00523426*
Y00413497*
Y0041353*
X00523393*
Y00413563*
X00523359*
Y00413597*
X00523326*
Y0041363*
Y00413663*
X00523293*
Y00413697*
X00523259*
Y0041373*
Y00413763*
X00523226*
Y00413797*
X00523193*
Y0041383*
Y00413863*
X00523159*
Y00413897*
X00523126*
Y0041393*
Y00413963*
X00523093*
Y00413997*
X00523059*
Y0041403*
Y00414063*
X00523026*
Y00414097*
X00522993*
Y0041413*
X00522959*
Y00414164*
Y00414197*
X00522926*
Y0041423*
X00522893*
Y00414263*
Y00414297*
X00522859*
Y0041433*
X00522826*
Y00414364*
Y00414397*
X00522793*
Y0041443*
X00522759*
Y00414463*
Y00414497*
X00522726*
Y0041453*
X00522693*
Y00414564*
Y00414597*
X00522659*
Y0041463*
X00522626*
Y00414663*
Y00414697*
X00522593*
Y0041473*
X00522559*
Y00414764*
X00522526*
Y00414797*
Y0041483*
X00522493*
Y00414864*
X00522459*
Y00414897*
Y0041493*
X00522426*
Y00414964*
X00522393*
Y00414997*
Y0041503*
X00522359*
Y00415064*
X00522326*
Y00415097*
Y0041513*
X00522293*
Y00415164*
X00522259*
Y00415197*
Y0041523*
X00522226*
Y00415264*
X00522193*
Y00415297*
X00522159*
Y0041533*
Y00415364*
X00522126*
Y00415397*
X00522093*
Y0041543*
Y00415464*
X00522059*
Y00415497*
Y0041553*
Y00415564*
Y00415597*
X00522093*
Y0041563*
X00522126*
Y00415664*
X00522159*
Y00415697*
X00522193*
Y0041573*
X00522226*
Y00415764*
X00522259*
Y00415798*
X00522293*
Y0041583*
X00522326*
Y00415864*
X00522359*
Y00415897*
X00522393*
Y0041593*
X00522426*
Y00415964*
X00522459*
Y00415997*
X00522493*
Y0041603*
X00522526*
Y00416064*
X00522559*
Y00416097*
X00522593*
Y0041613*
X00522626*
Y00416164*
X00522659*
Y00416197*
X00522693*
Y0041623*
X00522726*
Y00416264*
X00522759*
Y00416297*
X00522793*
Y0041633*
X00522826*
Y00416364*
X00522859*
Y00416397*
X00522893*
Y0041643*
X00522926*
Y00416464*
X00522959*
Y00416497*
X00522993*
Y0041653*
X00523026*
Y00416564*
X00523059*
Y00416597*
X00523093*
Y0041663*
X00523126*
Y00416664*
X00523159*
Y00416697*
X00523193*
Y0041673*
X00523226*
Y00416764*
X00523259*
Y00416797*
X00523293*
Y00416831*
X00523326*
Y00416864*
X00523359*
Y00416897*
X00523393*
Y0041693*
X00523426*
Y00416964*
X00523459*
Y00416997*
X00523494*
Y00417031*
X00523526*
Y00417064*
X00523559*
Y00417097*
X00523593*
Y00417131*
X00523626*
Y00417164*
X0052366*
Y00417197*
X00523693*
Y0041723*
X00523726*
Y00417264*
X00523759*
Y00417297*
X00523793*
Y00417331*
X00523826*
Y00417364*
X0052386*
Y00417397*
X00523893*
Y0041743*
X00523993*
Y00417397*
X0052406*
Y00417364*
X00524093*
Y00417331*
X00524159*
Y00417297*
X00524193*
Y00417264*
X00524259*
Y0041723*
X00524293*
Y00417197*
X0052436*
Y00417164*
X00524393*
Y00417131*
X0052446*
Y00417097*
X00524493*
Y00417064*
X00524526*
Y00417031*
X00524593*
Y00416997*
X00524626*
Y00416964*
X00524693*
Y0041693*
X00524726*
Y00416897*
X00524793*
Y00416864*
X00524826*
Y00416831*
X00524893*
Y00416797*
X00524926*
Y00416764*
X00524993*
Y0041673*
X00525026*
Y00416697*
X0052506*
Y00416664*
X00525126*
Y0041663*
X0052516*
Y00416597*
X00525226*
Y00416564*
X0052526*
Y0041653*
X00525326*
Y00416497*
X0052536*
Y00416464*
X00525426*
Y0041643*
X0052546*
Y00416397*
X00525526*
Y00416364*
X0052556*
Y0041633*
X00525626*
Y00416297*
X0052566*
Y00416264*
X00525693*
Y0041623*
X0052576*
Y00416197*
X00525793*
Y00416164*
X0052586*
Y0041613*
X00525893*
Y00416097*
X0052596*
Y00416064*
X00525993*
Y0041603*
X0052606*
Y00415997*
X00526093*
Y00415964*
X00526193*
Y0041593*
X0052626*
Y00415964*
X0052636*
Y00415997*
X00526426*
Y0041603*
X00526526*
Y00416064*
X00526593*
Y00416097*
X00526693*
Y0041613*
X0052676*
Y00416164*
X0052686*
Y00416197*
X00526926*
Y0041623*
X00527027*
Y00416264*
X00527093*
Y00416297*
X0052716*
Y0041633*
X0052726*
Y00416364*
X00527327*
Y00416397*
X00527427*
Y0041643*
X00527493*
Y00416464*
X00527593*
Y00416497*
X0052766*
Y0041653*
X0052776*
Y00416564*
X00527827*
Y00416597*
X00527893*
Y0041663*
X00527993*
Y00416664*
X00528027*
Y00416697*
X0052806*
Y0041673*
X00528093*
Y00416764*
Y00416797*
Y00416831*
X00528127*
Y00416864*
Y00416897*
Y0041693*
Y00416964*
Y00416997*
X0052816*
Y00417031*
Y00417064*
Y00417097*
Y00417131*
Y00417164*
Y00417197*
X00528193*
Y0041723*
Y00417264*
Y00417297*
Y00417331*
Y00417364*
X00528227*
Y00417397*
Y0041743*
Y00417464*
Y00417497*
Y00417531*
X0052826*
Y00417564*
Y00417597*
Y00417631*
Y00417664*
Y00417697*
Y00417731*
X00528293*
Y00417764*
Y00417797*
Y00417831*
Y00417864*
Y00417897*
X00528327*
Y00417931*
Y00417964*
Y00417997*
Y00418031*
Y00418064*
X0052836*
Y00418097*
Y00418131*
Y00418164*
Y00418197*
Y00418231*
Y00418264*
X00528393*
Y00418297*
Y00418331*
Y00418364*
Y00418397*
Y00418431*
X00528427*
Y00418465*
Y00418497*
Y00418531*
Y00418564*
Y00418597*
Y00418631*
X0052846*
Y00418664*
Y00418697*
Y00418731*
Y00418764*
Y00418797*
X00528493*
Y00418831*
Y00418864*
Y00418897*
Y00418931*
Y00418964*
X00528527*
Y00418997*
Y00419031*
Y00419064*
Y00419097*
Y00419131*
Y00419164*
X0052856*
Y00419197*
Y00419231*
Y00419264*
Y00419297*
X00528593*
Y00419331*
Y00419364*
X0052866*
Y00419397*
X00531227*
Y00419364*
G37*
G54D15*
X00352835Y00397209D03*
Y00412209D03*
G54D19*
X00555504Y00501159D03*
Y00484159D03*
X00330985Y00501159D03*
Y00484159D03*
X0039168Y00561854D03*
X0040868D03*
X00494809D03*
X00477809D03*
X00494809Y00337335D03*
X00477809D03*
X00555504Y0039803D03*
Y0041503D03*
Y0043203D03*
Y0044903D03*
Y0046603D03*
X00330985Y0039803D03*
Y0041503D03*
Y0043203D03*
Y0044903D03*
Y0046603D03*
X0051181Y00337335D03*
X0040868D03*
X0039168D03*
X0037468D03*
X00555504Y0038103D03*
X00552178Y00364309D03*
X0052853Y00340661D03*
X00542706Y00350133D03*
X00330985Y0038103D03*
X00357959Y00340661D03*
X00334311Y00364309D03*
X00343783Y00350133D03*
X0037468Y00561854D03*
X00330985Y0051816D03*
X00334311Y0053488D03*
X00357959Y00558528D03*
X00343783Y00549056D03*
X00542706D03*
X00552178Y0053488D03*
X0052853Y00558528D03*
X0051181Y00561854D03*
X00555504Y0051816D03*
G54D28*
X00449239Y00480099D03*
Y00485099D03*
Y00490099D03*
Y00475099D03*
X00468239D03*
Y00480099D03*
Y00485099D03*
Y00490099D03*
G54D29*
X00330985Y0038103D02*
D01*
X00331092Y00377982*
X00331411Y00374949*
X0033194Y00371946*
X00332678Y00368986*
X00333621Y00366086*
X00334763Y00363258*
X003361Y00360517*
X00337625Y00357876*
X0033933Y00355347*
X00341208Y00352944*
X00343249Y00350677*
X00345443Y00348559*
X00347779Y00346598*
X00350246Y00344806*
X00352833Y00343189*
X00355526Y00341758*
X00358312Y00340517*
X00361178Y00339474*
X0036411Y00338633*
X00367093Y00337999*
X00370113Y00337575*
X00373155Y00337362*
X0037468Y00337335*
X0051181D02*
D01*
X00514858Y00337442*
X00517891Y00337761*
X00520894Y0033829*
X00523853Y00339028*
X00526754Y00339971*
X00529582Y00341113*
X00532323Y0034245*
X00534964Y00343975*
X00537493Y0034568*
X00539896Y00347558*
X00542163Y00349599*
X00544281Y00351793*
X00546241Y00354129*
X00548034Y00356596*
X0054965Y00359183*
X00551082Y00361876*
X00552323Y00364662*
X00553366Y00367528*
X00554206Y0037046*
X00554841Y00373443*
X00555265Y00376463*
X00555478Y00379505*
X00555504Y0038103*
X0037468Y00561854D02*
D01*
X00371632Y00561748*
X00368599Y00561429*
X00365596Y005609*
X00362636Y00560162*
X00359736Y00559219*
X00356908Y00558077*
X00354167Y0055674*
X00351526Y00555215*
X00348997Y00553509*
X00346594Y00551632*
X00344327Y00549591*
X00342209Y00547397*
X00340248Y00545061*
X00338456Y00542593*
X00336839Y00540007*
X00335408Y00537314*
X00334167Y00534528*
X00333124Y00531662*
X00332283Y0052873*
X00331649Y00525747*
X00331225Y00522727*
X00331012Y00519684*
X00330985Y0051816*
X00555504D02*
D01*
X00555398Y00521208*
X00555079Y00524241*
X0055455Y00527244*
X00553812Y00530203*
X00552869Y00533104*
X00551727Y00535932*
X0055039Y00538673*
X00548865Y00541314*
X00547159Y00543843*
X00545282Y00546246*
X00543241Y00548513*
X00541047Y00550631*
X00538711Y00552591*
X00536243Y00554384*
X00533657Y00556*
X00530964Y00557432*
X00528178Y00558673*
X00525312Y00559716*
X0052238Y00560556*
X00519397Y00561191*
X00516377Y00561615*
X00513334Y00561828*
X0051181Y00561854*
X00330985Y0038103D02*
D01*
X00331092Y00377982*
X00331411Y00374949*
X0033194Y00371946*
X00332678Y00368986*
X00333621Y00366086*
X00334763Y00363258*
X003361Y00360517*
X00337625Y00357876*
X0033933Y00355347*
X00341208Y00352944*
X00343249Y00350677*
X00345443Y00348559*
X00347779Y00346598*
X00350246Y00344806*
X00352833Y00343189*
X00355526Y00341758*
X00358312Y00340517*
X00361178Y00339474*
X0036411Y00338633*
X00367093Y00337999*
X00370113Y00337575*
X00373155Y00337362*
X0037468Y00337335*
X0051181D02*
D01*
X00514858Y00337442*
X00517891Y00337761*
X00520894Y0033829*
X00523853Y00339028*
X00526754Y00339971*
X00529582Y00341113*
X00532323Y0034245*
X00534964Y00343975*
X00537493Y0034568*
X00539896Y00347558*
X00542163Y00349599*
X00544281Y00351793*
X00546241Y00354129*
X00548034Y00356596*
X0054965Y00359183*
X00551082Y00361876*
X00552323Y00364662*
X00553366Y00367528*
X00554206Y0037046*
X00554841Y00373443*
X00555265Y00376463*
X00555478Y00379505*
X00555504Y0038103*
X0037468Y00561854D02*
D01*
X00371632Y00561748*
X00368599Y00561429*
X00365596Y005609*
X00362636Y00560162*
X00359736Y00559219*
X00356908Y00558077*
X00354167Y0055674*
X00351526Y00555215*
X00348997Y00553509*
X00346594Y00551632*
X00344327Y00549591*
X00342209Y00547397*
X00340248Y00545061*
X00338456Y00542593*
X00336839Y00540007*
X00335408Y00537314*
X00334167Y00534528*
X00333124Y00531662*
X00332283Y0052873*
X00331649Y00525747*
X00331225Y00522727*
X00331012Y00519684*
X00330985Y0051816*
X00555504D02*
D01*
X00555398Y00521208*
X00555079Y00524241*
X0055455Y00527244*
X00553812Y00530203*
X00552869Y00533104*
X00551727Y00535932*
X0055039Y00538673*
X00548865Y00541314*
X00547159Y00543843*
X00545282Y00546246*
X00543241Y00548513*
X00541047Y00550631*
X00538711Y00552591*
X00536243Y00554384*
X00533657Y00556*
X00530964Y00557432*
X00528178Y00558673*
X00525312Y00559716*
X0052238Y00560556*
X00519397Y00561191*
X00516377Y00561615*
X00513334Y00561828*
X0051181Y00561854*
X00555504Y0038103D02*
Y0051816D01*
X00330985Y0038103D02*
Y0051816D01*
X0037468Y00561854D02*
X0040088D01*
X00485609D02*
X0051181D01*
X00485609Y00337335D02*
X0051181D01*
X0037468D02*
X0040088D01*
X00555504Y0038103D02*
Y0051816D01*
X00330985Y0038103D02*
Y0051816D01*
X0037468Y00561854D02*
X0040088D01*
X00485609D02*
X0051181D01*
X00485609Y00337335D02*
X0051181D01*
X0037468D02*
X0040088D01*
G54D30*
X00402189Y00561768D03*
X00484301Y0056194D03*
Y00337421D03*
X00402189Y00337249D03*
Y00561768D03*
X00484301Y0056194D03*
Y00337421D03*
X00402189Y00337249D03*
G54D31*
X00517024Y00479883D03*
Y00489383D03*
X00526575D03*
Y00479883D03*
G54D32*
X00400769Y00534228D03*
X00425269D03*
G54D33*
X0036893Y004064D03*
X0037843D03*
G54D34*
X00423488Y00511706D03*
X00413688D03*
X00423672Y00501756D03*
X00413872D03*
X00475706Y00529908D03*
X00485506D03*
X00423567Y00492099D03*
X00413767D03*
X00475706Y00539524D03*
X00485506D03*
G54D35*
X00497738Y00480026D03*
Y00489826D03*
X00476894Y00490614D03*
Y00500414D03*
X00507472Y00479883D03*
Y00489683D03*
X00471343Y00437633D03*
Y00427833D03*
X00488369Y00479883D03*
Y00489683D03*
G54D36*
X00498967Y00408891D03*
X0051181D03*
X00536959Y00479979D03*
Y00467279D03*
Y00454579D03*
Y00441879D03*
Y00429179D03*
G54D37*
X00464429Y00505159D03*
X00445429D03*
Y00531159D03*
X00454929D03*
X00464429D03*
G54D38*
X00482669Y00459249D03*
Y00452749D03*
Y00446249D03*
Y00439749D03*
X00522669D03*
Y00446249D03*
Y00452749D03*
Y00459249D03*
G54D39*
X00492919Y00429499D03*
X00499419D03*
X00512419D03*
Y00469499D03*
X00505919D03*
X00499419D03*
X00492919D03*
X00505919Y00429499D03*
G54D40*
X00502669Y00449499D03*
G54D41*
X00359629Y00470599D03*
Y00431099D03*
G54D42*
X00450629Y0045085D03*
G54D43*
X00421913Y00363893D03*
Y00408893D03*
X00400413Y00363893D03*
Y00408893D03*
G54D44*
X00435939Y00396739D03*
X00452439D03*
X00435939Y00409079D03*
X00452439D03*
X00435939Y00359719D03*
X00452439D03*
X00435939Y00372059D03*
X00452439D03*
X00435939Y00384399D03*
X00452439D03*
G54D45*
X00458739Y004826D03*
G54D46*
X0037468Y0051816D03*
Y0038103D03*
X0051181D03*
Y0051816D03*
G54D47*
X00497169Y00454999D03*
X00508169D03*
X00497169Y00443999D03*
X00508169D03*
X00458739Y00488099D03*
Y00477099D03*
M02*